<?xml version="1.0" standalone="no"?>
<!DOCTYPE svg PUBLIC "-//W3C//DTD SVG 1.1//EN" "http://www.w3.org/Graphics/SVG/1.1/DTD/svg11.dtd" >
<svg xmlns="http://www.w3.org/2000/svg" xmlns:xlink="http://www.w3.org/1999/xlink" version="1.1">
<metadata>
Created by FontForge 20201107 at Mon Jun  9 06:18:46 2014
 By Jimmy Wärting
Copyright c 2014 Hangeulmuseum. &#38; YoonDesign Inc. All rights reserved.
This Font Software is protected by copyright laws of Korea, international copyright treaties. It may not be reproduced, copied, distributed, resold, rented, transferred without the written expression of Hangeulmuseum &#38; Yoondesign Inc.
</metadata>
<defs>
<font id="HangeulNuri-Bold" horiz-adv-x="900" >
  <font-face 
    font-family="HangeulNuri"
    font-weight="700"
    font-stretch="normal"
    units-per-em="1000"
    panose-1="2 11 8 3 0 0 0 0 0 0"
    ascent="800"
    descent="-200"
    x-height="544"
    cap-height="745"
    bbox="-71 -233 1039 900"
    underline-thickness="50"
    underline-position="-100"
    unicode-range="U+0001-FFE6"
  />
<missing-glyph horiz-adv-x="300" 
 />
    <glyph glyph-name=".notdef" horiz-adv-x="300" 
 />
    <glyph glyph-name="space" horiz-adv-x="300" 
 />
    <glyph glyph-name="space" unicode="&#xa0;" horiz-adv-x="300" 
 />
    <glyph glyph-name="space" unicode=" " horiz-adv-x="300" 
 />
    <glyph glyph-name="space" horiz-adv-x="300" 
 />
    <glyph glyph-name="space" horiz-adv-x="300" 
 />
    <glyph glyph-name="space" horiz-adv-x="300" 
 />
    <glyph glyph-name="space" horiz-adv-x="300" 
 />
    <glyph glyph-name="space" horiz-adv-x="300" 
 />
    <glyph glyph-name="space" horiz-adv-x="300" 
 />
    <glyph glyph-name="space" horiz-adv-x="300" 
 />
    <glyph glyph-name="space" horiz-adv-x="300" 
 />
    <glyph glyph-name="space" horiz-adv-x="300" 
 />
    <glyph glyph-name="space" horiz-adv-x="300" 
 />
    <glyph glyph-name="space" horiz-adv-x="300" 
 />
    <glyph glyph-name="space" horiz-adv-x="300" 
 />
    <glyph glyph-name="space" horiz-adv-x="300" 
 />
    <glyph glyph-name="space" horiz-adv-x="300" 
 />
    <glyph glyph-name="space" horiz-adv-x="300" 
 />
    <glyph glyph-name="space" horiz-adv-x="300" 
 />
    <glyph glyph-name="space" horiz-adv-x="300" 
 />
    <glyph glyph-name="space" horiz-adv-x="300" 
 />
    <glyph glyph-name="space" unicode="&#xd;" horiz-adv-x="300" 
 />
    <glyph glyph-name="space" horiz-adv-x="300" 
 />
    <glyph glyph-name="space" horiz-adv-x="300" 
 />
    <glyph glyph-name="space" unicode="&#xa;" horiz-adv-x="300" 
 />
    <glyph glyph-name="space" unicode="&#x9;" horiz-adv-x="300" 
 />
    <glyph glyph-name="space" horiz-adv-x="300" 
 />
    <glyph glyph-name="space" horiz-adv-x="300" 
 />
    <glyph glyph-name="space" horiz-adv-x="300" 
 />
    <glyph glyph-name="space" horiz-adv-x="300" 
 />
    <glyph glyph-name="space" horiz-adv-x="300" 
 />
    <glyph glyph-name="space" horiz-adv-x="300" 
 />
    <glyph glyph-name="space" horiz-adv-x="300" 
 />
    <glyph glyph-name="space" horiz-adv-x="300" 
 />
    <glyph glyph-name="exclam" unicode="!" horiz-adv-x="274" 
d="M85 170q-3 36 -5 78.5t-3.5 86.5t-2.5 85.5t-1 75.5v269h128v-269q0 -34 -1 -75.5t-2.5 -85.5t-3.5 -86.5t-5 -78.5h-104zM59 9q0 32 22 54.5t56 22.5t56 -22.5t22 -54.5t-22 -54.5t-56 -22.5t-56 22.5t-22 54.5z" />
    <glyph glyph-name="quotedbl" unicode="&#x22;" horiz-adv-x="344" 
d="M152 553h-116v258h116v-258zM308 553h-116v258h116v-258z" />
    <glyph glyph-name="numbersign" unicode="#" horiz-adv-x="743" 
d="M508 755h117l-30 -184h93v-95h-108l-33 -207h101v-95h-116l-29 -184h-118l29 184h-149l-29 -184h-118l29 184h-92v95h108l33 207h-101v95h116l30 184h117l-30 -184h150zM280 269h150l33 207h-150z" />
    <glyph glyph-name="dollar" unicode="$" horiz-adv-x="610" 
d="M248 -110v107q-54 4 -106.5 20t-94.5 42l36 91q42 -21 86 -36.5t82 -20.5v268l-14 5q-47 17 -81.5 36t-57 42.5t-33 52.5t-10.5 67q0 75 47.5 123.5t145.5 59.5v92h114v-93q38 -4 78 -12t76 -19l-26 -97q-33 11 -66 19.5t-65 13.5v-230l14 -5q97 -35 139.5 -84t42.5 -128
q0 -81 -48 -134.5t-145 -68.5v-111h-114zM437 204q0 45 -18 73.5t-51 40.5l-9 3v-223q78 22 78 106zM173 564q0 -40 17 -63.5t46 -34.5l15 -6v190q-41 -9 -59.5 -31.5t-18.5 -54.5z" />
    <glyph glyph-name="percent" unicode="%" horiz-adv-x="956" 
d="M327 -10h-120l422 765h120zM335 562q0 45 -23 72.5t-64 27.5t-64 -27.5t-23 -72.5t23 -72.5t64 -27.5t64 27.5t23 72.5zM451 562q0 -44 -15 -79.5t-41.5 -61t-64 -39t-82.5 -13.5t-82.5 13.5t-64 39t-41.5 61t-15 79.5t15 79.5t41.5 61t64 39t82.5 13.5t82.5 -13.5
t64 -39t41.5 -61t15 -79.5zM795 183q0 45 -23 72.5t-64 27.5t-64 -27.5t-23 -72.5t23 -72.5t64 -27.5t64 27.5t23 72.5zM911 183q0 -44 -15 -79.5t-41.5 -61t-64 -39t-82.5 -13.5t-82.5 13.5t-64 39t-41.5 61t-15 79.5t15 79.5t41.5 61t64 39t82.5 13.5t82.5 -13.5t64 -39
t41.5 -61t15 -79.5z" />
    <glyph glyph-name="ampersand" unicode="&#x26;" horiz-adv-x="731" 
d="M513 92q-53 -55 -108 -81t-122 -26q-109 0 -173.5 51.5t-64.5 148.5q0 60 32.5 108t100.5 90l44 27q-47 52 -69 93.5t-22 84.5q0 78 51.5 125t148.5 47t148.5 -47t51.5 -125q0 -48 -25.5 -84.5t-83.5 -72.5l-57 -35l146 -160l61 68h125l-121 -140l150 -164h-128zM283 80
q44 0 80 14.5t63 45.5l21 24l-165 180l-50 -31q-33 -20 -51 -51.5t-18 -76.5q0 -48 32 -76.5t88 -28.5zM249 588q0 -16 2 -30t8 -28.5t17 -31t29 -36.5l62 39q23 15 34.5 36t11.5 51t-22 53.5t-60 23.5t-60 -23.5t-22 -53.5z" />
    <glyph glyph-name="quotesingle" unicode="'" horiz-adv-x="222" 
d="M170 553h-118v258h118v-258z" />
    <glyph glyph-name="parenleft" unicode="(" horiz-adv-x="383" 
d="M228 252q0 -112 31 -209.5t94 -171.5l-69 -57q-84 81 -129 193t-45 245v120q0 133 45 245t129 193l69 -57q-63 -74 -94 -171.5t-31 -209.5v-120z" />
    <glyph glyph-name="parenright" unicode=")" horiz-adv-x="383" 
d="M155 372q0 112 -31 209.5t-94 171.5l69 57q84 -81 129 -193t45 -245v-120q0 -133 -45 -245t-129 -193l-69 57q63 74 94 171.5t31 209.5v120z" />
    <glyph glyph-name="asterisk" unicode="*" horiz-adv-x="459" 
d="M401 649l-54 -17q-18 -7 -40 -12q6 -7 12.5 -14.5t12.5 -15.5l35 -48l-82 -59l-33 46q-7 8 -12.5 17t-10.5 18q-5 -8 -10.5 -16.5t-11.5 -16.5l-34 -48l-82 59l34 46q11 16 26 33q-10 2 -19.5 4.5t-18.5 5.5l-56 18l31 96l54 -18q10 -4 19.5 -7t19.5 -8q-2 10 -2 20v20
v59h100v-57q0 -11 -0.5 -21.5t-1.5 -20.5q9 4 18 7.5t19 7.5l57 18z" />
    <glyph glyph-name="plus" unicode="+" horiz-adv-x="632" 
d="M45 431h211v221h118v-221h213v-95h-213v-230h-118v230h-211v95z" />
    <glyph glyph-name="comma" unicode="," horiz-adv-x="246" 
d="M25 9q0 33 22 55t56 22q35 0 55.5 -22t22.5 -55q1 -12 0.5 -24t-2.5 -26q-15 -102 -112 -157l-28 38q29 20 46 42.5t21 43.5l1 6h-4q-34 0 -56 22t-22 55z" />
    <glyph glyph-name="hyphen" unicode="-" horiz-adv-x="496" 
d="M451 336h-406v95h406v-95z" />
    <glyph glyph-name="period" unicode="." horiz-adv-x="246" 
d="M25 9q0 32 22 54.5t56 22.5t56 -22.5t22 -54.5t-22 -54.5t-56 -22.5t-56 22.5t-22 54.5z" />
    <glyph glyph-name="slash" unicode="/" horiz-adv-x="432" 
d="M141 -70h-116l266 855h116z" />
    <glyph glyph-name="zero" unicode="0" horiz-adv-x="620" 
d="M574 373q0 -194 -68.5 -290.5t-195.5 -96.5t-195.5 96.5t-68.5 290.5t68.5 290.5t195.5 96.5t195.5 -96.5t68.5 -290.5zM164 373q0 -146 38.5 -219t107.5 -73t107.5 73t38.5 219t-38.5 219t-107.5 73t-107.5 -73t-38.5 -219z" />
    <glyph glyph-name="one" unicode="1" horiz-adv-x="460" 
d="M203 745h114v-745h-118v617l-114 -73l-56 85z" />
    <glyph glyph-name="two" unicode="2" horiz-adv-x="620" 
d="M297 665q-39 0 -88 -12t-96 -35l-36 91q48 24 107 37.5t113 13.5q61 0 108 -16.5t78 -46.5t47 -71.5t16 -91.5q0 -71 -35.5 -132.5t-107.5 -127.5l-194 -179h353v-95h-494v95l237 219q60 55 91.5 107.5t31.5 112.5q0 27 -9 51t-26 41.5t-41.5 28t-54.5 10.5z" />
    <glyph glyph-name="three" unicode="3" horiz-adv-x="620" 
d="M104 122q48 -20 96 -31t88 -11q74 0 114 33.5t40 93.5q0 27 -9.5 51t-29.5 41.5t-51 28t-74 10.5h-114v95h114q73 0 108 33t35 85q0 51 -32.5 82.5t-97.5 31.5q-41 0 -87.5 -8.5t-89.5 -25.5l-31 91q49 20 101.5 29t106.5 9q126 0 187 -55t61 -154q0 -57 -26 -99t-77 -64
q57 -18 90.5 -66.5t33.5 -114.5q0 -108 -67.5 -165t-204.5 -57q-54 0 -111.5 11.5t-104.5 35.5z" />
    <glyph glyph-name="four" unicode="4" horiz-adv-x="620" 
d="M22 236l369 509h118v-509h95v-95h-95v-141h-118v141h-369v95zM391 236v361q-10 -23 -24 -48t-30 -46l-141 -193q-14 -18 -32.5 -39.5t-32.5 -34.5h260z" />
    <glyph glyph-name="five" unicode="5" horiz-adv-x="620" 
d="M294 -15q-56 0 -117 11.5t-106 32.5l28 89q48 -19 98 -28.5t97 -9.5q71 0 114 39.5t43 107.5t-43 107.5t-114 39.5q-59 0 -110.5 -6t-92.5 -17l39 389h390v-95h-281l-19 -182q15 3 35.5 4.5t38.5 1.5q132 0 203.5 -64.5t71.5 -177.5t-71.5 -177.5t-203.5 -64.5z" />
    <glyph glyph-name="six" unicode="6" horiz-adv-x="620" 
d="M331 760q51 0 98 -9t85 -23l-27 -90q-35 13 -75 20t-81 7q-37 0 -67 -18t-51 -50.5t-33 -78t-12 -99.5q25 24 65 40t84 16q60 0 108 -17t81.5 -49t51 -77.5t17.5 -101.5q0 -54 -19.5 -99.5t-54 -77.5t-81.5 -50t-103 -18q-99 0 -166 55.5t-87 161.5q-4 19 -6.5 42.5
t-4.5 47.5t-2.5 47.5t-0.5 42.5q1 97 22.5 168.5t58.5 118t88 69t112 22.5zM177 230q0 -35 10.5 -62.5t29.5 -47t44.5 -30t55.5 -10.5t55.5 10.5t44.5 30t29.5 47t10.5 62.5t-10.5 62.5t-29.5 47t-44.5 30t-55.5 10.5t-55.5 -10.5t-44.5 -30t-29.5 -47t-10.5 -62.5z" />
    <glyph glyph-name="seven" unicode="7" horiz-adv-x="620" 
d="M42 740h511v-94l-272 -646h-121l271 645h-389v95z" />
    <glyph glyph-name="eight" unicode="8" horiz-adv-x="620" 
d="M310 -25q-57 0 -105.5 14.5t-84 43t-55 70.5t-19.5 97q0 66 38 117t100 71q-49 18 -83 63.5t-34 106.5q0 47 16 86t47 67t76.5 43.5t103.5 15.5t103.5 -15.5t76.5 -43.5t47 -67t16 -86q0 -61 -34 -106.5t-83 -63.5q62 -20 100 -71t38 -117q0 -55 -19.5 -97t-55 -70.5
t-84 -43t-105.5 -14.5zM310 338q-35 0 -62.5 -11t-46 -29.5t-28 -43t-9.5 -50.5t9.5 -50.5t28 -43t46 -29.5t62.5 -11t62.5 11t46 29.5t28 43t9.5 50.5t-9.5 50.5t-28 43t-46 29.5t-62.5 11zM310 433q58 0 91.5 34.5t33.5 86.5t-33.5 86.5t-91.5 34.5t-91.5 -34.5
t-33.5 -86.5t33.5 -86.5t91.5 -34.5z" />
    <glyph glyph-name="nine" unicode="9" horiz-adv-x="620" 
d="M279 -15q-51 0 -95.5 9t-82.5 23l26 90q34 -13 74 -20t78 -7q37 0 69 16.5t55 48t36 77t13 104.5q-25 -24 -65 -40t-84 -16q-56 0 -103.5 17t-82 48.5t-53.5 77t-19 102.5q0 55 18 100.5t52 77.5t81.5 49.5t106.5 17.5q106 0 170.5 -56t82.5 -161q3 -19 6 -42.5t5 -47.5
t2.5 -47.5t0.5 -42.5q-2 -96 -22.5 -167.5t-58 -118t-90.5 -69.5t-120 -23zM443 515q0 35 -10.5 62.5t-29.5 47t-44.5 30t-55.5 10.5t-55.5 -10.5t-44.5 -30t-29.5 -47t-10.5 -62.5t10.5 -62.5t29.5 -47t44.5 -30t55.5 -10.5t55.5 10.5t44.5 30t29.5 47t10.5 62.5z" />
    <glyph glyph-name="colon" unicode=":" horiz-adv-x="276" 
d="M60 184q0 32 22 54.5t56 22.5t56 -22.5t22 -54.5t-22 -54.5t-56 -22.5t-56 22.5t-22 54.5zM60 566q0 32 22 54.5t56 22.5t56 -22.5t22 -54.5t-22 -54.5t-56 -22.5t-56 22.5t-22 54.5z" />
    <glyph glyph-name="semicolon" unicode=";" horiz-adv-x="276" 
d="M60 184q0 33 22 55t56 22q35 0 55.5 -22t22.5 -55q1 -12 0.5 -24t-2.5 -26q-15 -102 -112 -157l-28 38q29 20 46 42.5t21 43.5l1 6h-4q-34 0 -56 22t-22 55zM60 566q0 32 22 54.5t56 22.5t56 -22.5t22 -54.5t-22 -54.5t-56 -22.5t-56 22.5t-22 54.5z" />
    <glyph glyph-name="less" unicode="&#x3c;" horiz-adv-x="795" 
d="M318 373q27 -8 52.5 -16.5t45.5 -16.5l299 -126v-115l-660 274l660 274v-115l-299 -126q-20 -8 -45.5 -16.5t-52.5 -16.5z" />
    <glyph glyph-name="equal" unicode="=" horiz-adv-x="526" 
d="M481 227h-436v95h436v-95zM481 445h-436v95h436v-95z" />
    <glyph glyph-name="greater" unicode="&#x3e;" horiz-adv-x="795" 
d="M467 373q-27 8 -52.5 16.5t-45.5 16.5l-299 126v115l660 -274l-660 -274v115l299 126q20 8 45.5 16.5t52.5 16.5z" />
    <glyph glyph-name="question" unicode="?" horiz-adv-x="547" 
d="M285 170h-106l-6 88q-2 32 7 55t32 43l102 87q29 26 44.5 57t15.5 76q0 48 -31.5 78.5t-87.5 30.5q-45 0 -91.5 -12t-93.5 -34l-35 92q48 23 104 36t119 13q114 0 174 -54.5t60 -149.5q0 -65 -25.5 -113.5t-83.5 -97.5l-73 -62q-18 -16 -19 -45zM153 9q0 32 22 54.5
t56 22.5t56 -22.5t22 -54.5t-22 -54.5t-56 -22.5t-56 22.5t-22 54.5z" />
    <glyph glyph-name="at" unicode="@" horiz-adv-x="920" 
d="M460 55q60 0 121.5 11t108.5 30l26 -85q-52 -21 -118 -33.5t-138 -12.5q-91 0 -168.5 28.5t-134.5 81.5t-89.5 128.5t-32.5 169.5t32.5 169.5t89.5 128t134.5 81t168.5 28.5t168.5 -27.5t134.5 -79t89.5 -125t32.5 -165.5q0 -54 -14.5 -97.5t-39.5 -74t-59 -47t-72 -16.5
q-50 0 -81 13.5t-51 34.5q-22 -21 -57.5 -34t-70.5 -13q-51 0 -91.5 16.5t-69 46t-44 70.5t-15.5 91q0 49 15.5 90.5t44 71t69 46t91.5 16.5q15 0 33 -3.5t35 -9t30.5 -13t20.5 -15.5l5 31h111v-307q0 -21 9.5 -31.5t26.5 -10.5q24 0 42.5 38.5t18.5 106.5q0 70 -22.5 126.5
t-63.5 96.5t-98.5 62t-127.5 22q-69 0 -126.5 -23.5t-98.5 -66t-64 -100.5t-23 -127q0 -68 23.5 -126t65 -101t98.5 -67t125 -24zM450 241q50 0 79.5 28t29.5 73v62q0 45 -29.5 73t-79.5 28q-51 0 -82.5 -37t-31.5 -95t31.5 -95t82.5 -37z" />
    <glyph glyph-name="A" unicode="A" horiz-adv-x="664" 
d="M396 745l263 -745h-120l-54 159h-307l-53 -159h-120l262 745h129zM332 631q-7 -29 -16.5 -62.5t-17.5 -56.5l-88 -258h242l-87 258q-8 23 -17 56.5t-16 62.5z" />
    <glyph glyph-name="B" unicode="B" horiz-adv-x="656" 
d="M330 -8q-30 0 -65.5 1t-70.5 2.5t-66.5 4t-52.5 5.5v740h254q127 0 189 -55.5t62 -152.5q0 -121 -101 -159q63 -17 95 -61t32 -111q0 -100 -67.5 -157t-208.5 -57zM488 206q0 60 -35.5 91t-106.5 31h-153v-235q58 -6 137 -6q83 0 120.5 29.5t37.5 89.5zM334 423
q63 0 95.5 28.5t32.5 85.5t-32.5 85t-95.5 28h-141v-227h141z" />
    <glyph glyph-name="C" unicode="C" horiz-adv-x="697" 
d="M158 373q0 -64 19.5 -117.5t55 -92.5t85.5 -61t111 -22q57 0 108 10.5t93 31.5l32 -90q-47 -21 -108 -34t-125 -13q-87 0 -158.5 27.5t-123 78t-79.5 122t-28 160.5q0 88 28 160t79.5 122t123 77.5t158.5 27.5q58 0 115.5 -10.5t102.5 -28.5l-29 -91q-43 17 -91.5 26
t-97.5 9q-61 0 -111 -21.5t-85.5 -60.5t-55 -92.5t-19.5 -117.5z" />
    <glyph glyph-name="D" unicode="D" horiz-adv-x="744" 
d="M704 369q0 -93 -26.5 -164t-75.5 -118t-120 -71t-159 -24q-32 0 -66.5 1t-67.5 2.5t-63 4t-51 5.5v740h248q88 0 159 -25t120 -73t75.5 -118t26.5 -160zM586 369q0 144 -70 212.5t-193 68.5h-130v-557q26 -4 62 -5t68 -1q123 0 193 69t70 213z" />
    <glyph glyph-name="E" unicode="E" horiz-adv-x="596" 
d="M561 6q-22 -4 -50 -6.5t-59.5 -4t-65 -2.5t-65.5 -1q-31 0 -65.5 1t-67.5 2.5t-62.5 4t-50.5 5.5v740h461v-95h-343v-227h333v-95h-333v-236q35 -3 81 -4t88 -1q19 0 43.5 0.5t51.5 1.5t53.5 2.5t50.5 4.5v-90z" />
    <glyph glyph-name="F" unicode="F" horiz-adv-x="546" 
d="M193 427h308v-95h-308v-332h-118v745h436v-95h-318v-223z" />
    <glyph glyph-name="G" unicode="G" horiz-adv-x="771" 
d="M400 425q27 -5 60.5 -7.5t60.5 -2.5h195v-415h-110l-6 42q-29 -26 -75 -41.5t-97 -15.5q-86 0 -157.5 26.5t-122.5 77t-79.5 122.5t-28.5 162t28 162t80 122t125.5 76.5t164.5 26.5q56 0 113 -9t105 -25l-27 -93q-47 15 -96.5 23.5t-94.5 8.5q-135 0 -207.5 -76.5
t-72.5 -215.5q0 -69 19 -123t54 -92t85 -58t112 -20q54 0 98 16.5t72 44.5v179h-78q-32 0 -70 7t-67 20z" />
    <glyph glyph-name="H" unicode="H" horiz-adv-x="724" 
d="M649 0h-118v346h-338v-346h-118v745h118v-304h338v304h118v-745z" />
    <glyph glyph-name="I" unicode="I" horiz-adv-x="262" 
d="M190 0h-118v745h118v-745z" />
    <glyph glyph-name="J" unicode="J" horiz-adv-x="426" 
d="M153 80q42 0 66 26t24 76v563h118v-563q0 -97 -54 -147t-154 -50q-35 0 -74 9t-69 26l32 87q26 -13 55 -20t56 -7z" />
    <glyph glyph-name="K" unicode="K" horiz-adv-x="661" 
d="M193 394l293 351h140l-218 -265q-19 -23 -42 -46t-43 -40q19 -17 42 -42t43 -50l238 -302h-140l-313 394v-394h-118v745h118v-351z" />
    <glyph glyph-name="L" unicode="L" horiz-adv-x="546" 
d="M541 6q-22 -3 -50.5 -6t-59.5 -4.5t-63.5 -2.5t-62.5 -1q-31 0 -63.5 1t-63.5 2.5t-57.5 4t-45.5 5.5v740h118v-653q32 -3 73 -4t84 -1q21 0 45.5 0.5t50 1.5t50 3t45.5 4v-90z" />
    <glyph glyph-name="M" unicode="M" horiz-adv-x="930" 
d="M247 531q-14 20 -28.5 44.5t-25.5 47.5v-623h-118v745h152l238 -343l238 343h152v-745h-118v623q-11 -23 -25.5 -47.5t-28.5 -44.5l-218 -312z" />
    <glyph glyph-name="N" unicode="N" horiz-adv-x="724" 
d="M531 745h118v-745h-163l-242 499q-12 26 -26.5 59t-24.5 59v-617h-118v745h163l244 -499q13 -26 27 -59.5t22 -57.5v616z" />
    <glyph glyph-name="O" unicode="O" horiz-adv-x="884" 
d="M726 373q0 63 -21.5 116.5t-59 92.5t-90 61t-113.5 22q-62 0 -114 -22t-89.5 -61t-59 -92.5t-21.5 -116.5t21.5 -116.5t59 -92.5t89.5 -61t114 -22q61 0 113.5 22t90 61t59 92.5t21.5 116.5zM844 373q0 -88 -29.5 -159.5t-82.5 -122t-127 -78t-163 -27.5t-163 27.5
t-127 78t-82.5 122t-29.5 159.5t29.5 159.5t82.5 122t127 78t163 27.5t163 -27.5t127 -78t82.5 -122t29.5 -159.5z" />
    <glyph glyph-name="P" unicode="P" horiz-adv-x="620" 
d="M75 0v745h261q118 0 186 -55.5t68 -166.5t-68 -166t-186 -55h-143v-302h-118zM336 397q63 0 99.5 31t36.5 95t-36.5 95.5t-99.5 31.5h-143v-253h143z" />
    <glyph glyph-name="Q" unicode="Q" horiz-adv-x="884" 
d="M844 373q0 -81 -25 -147.5t-71 -117.5l119 -120l-79 -76l-126 127q-47 -26 -102 -39.5t-118 -13.5q-89 0 -163 27.5t-127 78t-82.5 122t-29.5 159.5t29.5 159.5t82.5 122t127 78t163 27.5t163 -27.5t127 -78t82.5 -122t29.5 -159.5zM726 373q0 63 -21.5 116.5t-59 92.5
t-90 61t-113.5 22q-62 0 -114 -22t-89.5 -61t-59 -92.5t-21.5 -116.5t21.5 -116.5t59 -92.5t89.5 -61t114 -22q40 0 76 9.5t67 26.5l-106 109l79 75l110 -112q28 37 43 83.5t15 100.5z" />
    <glyph glyph-name="R" unicode="R" horiz-adv-x="641" 
d="M75 0v745h269q117 0 186.5 -54.5t69.5 -162.5q0 -77 -35.5 -125.5t-98.5 -71.5l160 -331h-128l-149 312h-156v-312h-118zM344 407q66 0 102 31.5t36 89.5t-36 90t-102 32h-151v-243h151z" />
    <glyph glyph-name="S" unicode="S" horiz-adv-x="610" 
d="M288 80q74 0 111.5 33t37.5 90q0 85 -82 117l-146 56q-76 29 -115 75.5t-39 118.5q0 86 59.5 138t183.5 52q54 0 111 -8.5t107 -25.5l-27 -97q-47 17 -95.5 26.5t-92.5 9.5q-68 0 -98 -27t-30 -68q0 -38 19.5 -65t52.5 -40l150 -58q84 -32 122 -80.5t38 -123.5
q0 -104 -68 -161t-202 -57q-60 0 -123.5 16t-114.5 46l40 91q49 -26 102.5 -42t98.5 -16z" />
    <glyph glyph-name="T" unicode="T" horiz-adv-x="577" 
d="M22 755q27 -5 60.5 -7.5t60.5 -2.5h424v-95h-217v-650h-118v650h-90q-32 0 -70 7t-67 20z" />
    <glyph glyph-name="U" unicode="U" horiz-adv-x="716" 
d="M358 -15q-67 0 -121 19.5t-92.5 56t-59 89.5t-20.5 120v475h118v-475q0 -89 47 -139.5t128 -50.5t128 50.5t47 139.5v475h118v-475q0 -67 -21 -120t-59 -89.5t-92 -56t-121 -19.5z" />
    <glyph glyph-name="V" unicode="V" horiz-adv-x="664" 
d="M267 0l-262 745h120l173 -512q8 -23 17.5 -56.5t16.5 -62.5q7 29 16 62.5t17 56.5l174 512h120l-263 -745h-129z" />
    <glyph glyph-name="W" unicode="W" horiz-adv-x="904" 
d="M513 745l117 -490q7 -29 14.5 -67t12.5 -68q5 30 12 68t13 67l97 490h120l-173 -745h-138l-117 486q-5 23 -10.5 54t-8.5 59q-3 -28 -8.5 -59t-10.5 -54l-117 -486h-138l-173 745h120l97 -490q6 -29 13 -67t12 -68q5 30 12.5 68t14.5 67l117 490h122z" />
    <glyph glyph-name="X" unicode="X" horiz-adv-x="647" 
d="M383 384q13 -16 27.5 -36.5t23.5 -34.5l207 -313h-129l-143 216q-10 15 -22.5 35.5t-23.5 38.5q-10 -18 -23 -38.5t-23 -35.5l-143 -216h-129l206 313q9 14 23.5 34.5t27.5 36.5q-13 17 -28 38t-25 36l-189 287h129l128 -194q10 -15 23 -36t23 -38q10 17 23 38t23 36
l128 194h129l-190 -287q-10 -15 -25 -36t-28 -38z" />
    <glyph glyph-name="Y" unicode="Y" horiz-adv-x="617" 
d="M612 745l-245 -421v-324h-118v324l-244 421h124l137 -239q9 -16 21 -39.5t21 -44.5q9 21 21 44.5t21 39.5l137 239h125z" />
    <glyph glyph-name="Z" unicode="Z" horiz-adv-x="579" 
d="M45 755q27 -5 60.5 -7.5t60.5 -2.5h373v-95l-322 -471q-14 -20 -33 -44.5t-34 -41.5q37 -4 86 -5t98 -1q46 0 104 2t111 7v-90q-23 -4 -53.5 -6.5t-65.5 -4t-72.5 -2.5t-74.5 -1q-36 0 -72 1t-69 2.5t-60.5 4t-46.5 5.5v92l327 476q11 17 27 39t28 38h-252q-32 0 -70 7
t-67 20z" />
    <glyph glyph-name="bracketleft" unicode="[" horiz-adv-x="373" 
d="M236 -83h107v-93h-223v976h223v-93h-107v-790z" />
    <glyph glyph-name="backslash" unicode="\" horiz-adv-x="944" 
d="M533 745l69 -317h120l58 317h119l-69 -314h99v-95h-120l-73 -336h-138l-75 339h-103l-74 -339h-138l-74 336h-119v95h98l-68 314h119l57 -317h121l69 317h122zM667 120q2 15 5 33t6.5 36t6.5 35t6 31l15 84h-85l19 -84q6 -27 14 -66t13 -69zM277 120q5 30 13 69t14 66
l18 84h-85l16 -84q3 -14 6 -31t6.5 -35t6.5 -36t5 -33zM440 428h64l-13 58q-5 22 -10.5 53t-8.5 60q-3 -29 -8.5 -60t-10.5 -53z" />
    <glyph glyph-name="bracketright" unicode="]" horiz-adv-x="373" 
d="M137 707h-107v93h223v-976h-223v93h107v790z" />
    <glyph glyph-name="asciicircum" unicode="^" horiz-adv-x="462" 
d="M231 732q-8 -23 -18.5 -47.5t-18.5 -40.5l-51 -101h-118l141 258h130l141 -258h-118l-51 101q-8 17 -18.5 41t-18.5 47z" />
    <glyph glyph-name="underscore" unicode="_" horiz-adv-x="517" 
d="M502 -185h-487v95h487v-95z" />
    <glyph glyph-name="grave" unicode="`" horiz-adv-x="285" 
d="M243 553h-108l-93 258h138z" />
    <glyph glyph-name="a" unicode="a" horiz-adv-x="612" 
d="M307 466q-43 0 -90 -9t-95 -27l-30 93q48 17 106 26.5t109 9.5q116 0 178 -48.5t62 -146.5v-364h-108l-4 47q-26 -29 -68 -45.5t-95 -16.5q-107 0 -169.5 45t-62.5 139t62.5 139t169.5 45q38 0 79 -4t80 -12v27q0 48 -29.5 75t-94.5 27zM272 78q79 0 119 31.5t40 73.5v66
q-44 6 -84 8.5t-75 2.5q-58 0 -87 -23.5t-29 -67.5t29 -67.5t87 -23.5z" />
    <glyph glyph-name="b" unicode="b" horiz-adv-x="711" 
d="M380 -15q-59 0 -113 22.5t-83 59.5l-6 -67h-108v765h116v-288q12 18 33 33t47 26t55.5 17t58.5 6q70 0 125 -20.5t93 -58.5t58 -91t20 -117q0 -65 -20 -117.5t-58 -90.5t-93 -58.5t-125 -20.5zM370 78q41 0 75.5 13.5t60 39t40 61t14.5 80.5t-14.5 80.5t-40 61t-60 39
t-75.5 13.5q-39 0 -72.5 -13.5t-58 -36.5t-39 -54.5t-14.5 -68.5v-42q0 -37 14.5 -68.5t39 -55t58 -36.5t72.5 -13z" />
    <glyph glyph-name="c" unicode="c" horiz-adv-x="546" 
d="M344 559q40 0 81 -5t76 -15l-20 -92q-30 8 -66 13.5t-71 5.5q-44 0 -79.5 -14t-60.5 -39.5t-39 -61t-14 -79.5t14 -79.5t39 -61t60.5 -39.5t79.5 -14q40 0 78 6.5t70 19.5l24 -89q-37 -14 -80.5 -22t-91.5 -8q-71 0 -128 20t-97 57t-62 90.5t-22 119.5t22 119.5t62 90.5
t97 57t128 20z" />
    <glyph glyph-name="d" unicode="d" horiz-adv-x="711" 
d="M331 -15q-70 0 -125 20.5t-93 58.5t-58 90.5t-20 117.5q0 64 20 117t58 91t93 58.5t125 20.5q29 0 58.5 -6t55.5 -17t47 -26t33 -33v288h116v-765h-108l-6 67q-29 -37 -83 -59.5t-113 -22.5zM341 78q39 0 72.5 13t58 36.5t39 55t14.5 68.5v42q0 37 -14.5 68.5t-39 54.5
t-58 36.5t-72.5 13.5q-41 0 -75.5 -13.5t-60 -39t-40 -61t-14.5 -80.5t14.5 -80.5t40 -61t60 -39t75.5 -13.5z" />
    <glyph glyph-name="e" unicode="e" horiz-adv-x="638" 
d="M154 226q11 -78 60.5 -113t121.5 -35q48 0 93.5 14.5t86.5 40.5l44 -83q-42 -29 -102 -47t-122 -18q-66 0 -121.5 19t-95 55.5t-62 90t-22.5 122.5q0 66 20.5 119t58 90.5t89.5 57.5t116 20t116 -20t89.5 -57.5t58 -90.5t20.5 -119v-46h-449zM319 466q-67 0 -110.5 -37.5
t-54.5 -109.5h331q-2 30 -14 56.5t-33 47t-51 32t-68 11.5z" />
    <glyph glyph-name="f" unicode="f" horiz-adv-x="394" 
d="M22 553q22 -5 48.5 -7t49.5 -2v81q0 76 39 115.5t123 39.5q23 0 50 -4t47 -11l-20 -90q-15 5 -36.5 7.5t-40.5 2.5q-46 0 -46 -60v-81h112v-93h-112v-451h-116v451q-30 1 -60 7.5t-55 18.5z" />
    <glyph glyph-name="g" unicode="g" horiz-adv-x="711" 
d="M641 40q0 -58 -18.5 -105t-54.5 -80.5t-89 -52t-122 -18.5q-72 0 -137 14t-120 43l35 89q57 -27 114 -40t108 -13q81 0 124.5 42.5t43.5 120.5v38q-28 -40 -79.5 -61.5t-114.5 -21.5q-66 0 -120.5 20t-93.5 56.5t-60.5 88.5t-21.5 117q0 64 21.5 116.5t60.5 89t93.5 56.5
t120.5 20q31 0 61 -6t56 -17t46.5 -26.5t32.5 -33.5l5 68h109v-504zM341 88q37 0 70 13t58.5 35.5t40.5 53t15 66.5v42q0 36 -15.5 66.5t-41 53t-58.5 35.5t-69 13q-41 0 -75.5 -13t-60 -38t-40 -60t-14.5 -78q0 -44 14.5 -78.5t40 -59.5t60 -38t75.5 -13z" />
    <glyph glyph-name="h" unicode="h" horiz-adv-x="630" 
d="M186 491q18 29 56.5 48.5t84.5 19.5q118 0 178 -60t60 -166v-333h-116v333q0 59 -35.5 96t-96.5 37t-96 -37t-35 -96v-333h-116v765h116v-274z" />
    <glyph glyph-name="i" unicode="i" horiz-adv-x="250" 
d="M188 0h-116v544h116v-544zM52 690q0 32 22 54.5t56 22.5t56 -22.5t22 -54.5t-22 -54.5t-56 -22.5t-56 22.5t-22 54.5z" />
    <glyph glyph-name="j" unicode="j" horiz-adv-x="260" 
d="M188 -66q0 -73 -41 -111.5t-123 -38.5q-23 0 -48.5 4.5t-46.5 12.5l21 90q36 -12 74 -12q22 0 35 14t13 41v610h116v-610zM52 690q0 32 22 54.5t56 22.5t56 -22.5t22 -54.5t-22 -54.5t-56 -22.5t-56 22.5t-22 54.5z" />
    <glyph glyph-name="k" unicode="k" horiz-adv-x="549" 
d="M534 0h-136l-212 269v-269h-116v765h116v-496l203 275h130l-157 -216q-10 -14 -24 -29.5t-25 -26.5q11 -10 24.5 -24.5t24.5 -28.5z" />
    <glyph glyph-name="l" unicode="l" horiz-adv-x="260" 
d="M188 0h-116v765h116v-765z" />
    <glyph glyph-name="m" unicode="m" horiz-adv-x="904" 
d="M459 473q19 39 57 62.5t86 23.5q101 0 154.5 -51t53.5 -145v-363h-116v363q0 53 -25 83t-73 30t-73 -30t-25 -83v-363h-116v363q0 53 -25 83t-73 30t-73 -30t-25 -83v-363h-116v544h111l5 -49q16 27 49 45.5t67 18.5q66 0 104.5 -23.5t52.5 -62.5z" />
    <glyph glyph-name="n" unicode="n" horiz-adv-x="630" 
d="M186 491q18 29 56.5 48.5t84.5 19.5q118 0 178 -60t60 -166v-333h-116v333q0 59 -35.5 96t-96.5 37t-96 -37t-35 -96v-333h-116v544h111z" />
    <glyph glyph-name="o" unicode="o" horiz-adv-x="674" 
d="M523 272q0 42 -13 77.5t-37 61.5t-58.5 40.5t-77.5 14.5t-77.5 -14.5t-58.5 -40.5t-37 -61.5t-13 -77.5t13 -77.5t37 -61.5t58.5 -40.5t77.5 -14.5t77.5 14.5t58.5 40.5t37 61.5t13 77.5zM639 272q0 -65 -21.5 -117.5t-60.5 -90.5t-95 -58.5t-125 -20.5t-125 20.5
t-95 58.5t-60.5 90.5t-21.5 117.5q0 64 21.5 117t60.5 91t95 58.5t125 20.5t125 -20.5t95 -58.5t60.5 -91t21.5 -117z" />
    <glyph glyph-name="p" unicode="p" horiz-adv-x="711" 
d="M380 559q70 0 125 -20.5t93 -58.5t58 -91t20 -117q0 -65 -20 -117.5t-58 -90.5t-93 -58.5t-125 -20.5q-29 0 -58.5 6t-55.5 17t-47 26t-33 33v-278h-116v755h109l5 -67q29 37 83 59.5t113 22.5zM370 466q-39 0 -72.5 -13.5t-58 -36.5t-39 -54.5t-14.5 -68.5v-42
q0 -37 14.5 -68.5t39 -55t58 -36.5t72.5 -13q41 0 75.5 13.5t60 39t40 61t14.5 80.5t-14.5 80.5t-40 61t-60 39t-75.5 13.5z" />
    <glyph glyph-name="q" unicode="q" horiz-adv-x="711" 
d="M331 559q59 0 113 -22.5t83 -59.5l5 67h109v-755h-116v278q-12 -18 -33 -33t-47 -26t-55.5 -17t-58.5 -6q-70 0 -125 20.5t-93 58.5t-58 90.5t-20 117.5q0 64 20 117t58 91t93 58.5t125 20.5zM341 466q-41 0 -75.5 -13.5t-60 -39t-40 -61t-14.5 -80.5t14.5 -80.5t40 -61
t60 -39t75.5 -13.5q39 0 72.5 13t58 36.5t39 55t14.5 68.5v42q0 37 -14.5 68.5t-39 54.5t-58 36.5t-72.5 13.5z" />
    <glyph glyph-name="r" unicode="r" horiz-adv-x="418" 
d="M186 489q17 32 50.5 51t74.5 19q26 0 53 -2.5t49 -7.5l-20 -95q-20 5 -41 8.5t-41 3.5q-60 0 -92.5 -32.5t-32.5 -94.5v-339h-116v544h111z" />
    <glyph glyph-name="s" unicode="s" horiz-adv-x="483" 
d="M228 466q-31 0 -46.5 -14.5t-15.5 -36.5q0 -23 12 -38.5t30 -23.5l104 -46q63 -28 92 -67t29 -91q0 -75 -50 -119.5t-145 -44.5q-48 0 -99 13.5t-93 36.5l36 85q37 -20 77.5 -31t78.5 -11t58 19.5t20 51.5q0 55 -45 75l-104 46q-56 25 -86.5 59.5t-30.5 85.5
q0 31 10.5 57t32.5 45.5t55.5 30.5t79.5 11q41 0 87 -5.5t85 -16.5l-20 -92q-42 11 -80.5 16t-71.5 5z" />
    <glyph glyph-name="t" unicode="t" horiz-adv-x="369" 
d="M25 553q19 -4 41 -6t44 -3v191h116v-191h101v-93h-101v-331q0 -40 36 -40q11 0 26.5 4t29.5 9l26 -90q-16 -8 -37.5 -13t-44.5 -5q-72 0 -112 31.5t-40 103.5v332q-27 2 -53.5 8t-48.5 17z" />
    <glyph glyph-name="u" unicode="u" horiz-adv-x="630" 
d="M444 53q-18 -29 -56.5 -48.5t-84.5 -19.5q-118 0 -178 60t-60 166v333h116v-333q0 -59 35.5 -96t96.5 -37t96 37t35 96v333h116v-544h-111z" />
    <glyph glyph-name="v" unicode="v" horiz-adv-x="490" 
d="M245 99q5 27 13.5 60.5t16.5 59.5l100 325h110l-178 -544h-124l-178 544h110l100 -325q8 -26 16.5 -59.5t13.5 -60.5z" />
    <glyph glyph-name="w" unicode="w" horiz-adv-x="817" 
d="M209 205q6 -24 13.5 -55t12.5 -57q5 26 12.5 57.5t13.5 54.5l87 339h121l87 -339q7 -25 14 -55.5t12 -56.5q5 26 12.5 57.5t13.5 54.5l88 339h116l-164 -544h-132l-88 333q-5 20 -10.5 46.5t-9.5 49.5q-4 -23 -9.5 -49t-10.5 -47l-87 -333h-132l-164 544h116z" />
    <glyph glyph-name="x" unicode="x" horiz-adv-x="517" 
d="M317 283q13 -17 27.5 -37t25.5 -36l141 -210h-126l-90 134q-8 12 -18.5 28.5t-18.5 30.5q-8 -14 -18.5 -30.5t-18.5 -28.5l-90 -134h-126l141 210q11 16 25.5 36t27.5 37q-13 16 -27.5 36.5t-25.5 36.5l-126 188h126l75 -112q8 -12 18.5 -28.5t18.5 -30.5q8 14 18.5 30.5
t18.5 28.5l75 112h126l-126 -188q-11 -16 -25.5 -36.5t-27.5 -36.5z" />
    <glyph glyph-name="y" unicode="y" horiz-adv-x="526" 
d="M204 64l-199 480h122l104 -255q8 -20 17 -44t16 -44q6 21 15 44.5t17 43.5l105 255h120l-313 -755h-117z" />
    <glyph glyph-name="z" unicode="z" horiz-adv-x="469" 
d="M40 554q27 -5 60.5 -7.5t60.5 -2.5h273v-93l-227 -294q-11 -14 -27.5 -32.5t-32.5 -33.5q31 -3 66 -4.5t71 -1.5q71 0 160 9v-88q-20 -3 -45.5 -6t-54 -4.5t-57.5 -2.5t-56 -1q-26 0 -54 1t-55 3t-51 4t-41 5v90l230 298q10 12 24 29t26 29h-150q-32 0 -70 7t-67 20z" />
    <glyph glyph-name="braceleft" unicode="{" horiz-adv-x="401" 
d="M232 312q20 -9 31 -25.5t11 -42.5v-308q0 -19 17 -19h80v-93h-144q-33 0 -51 19t-18 52v323q0 43 -44 46l-34 2v92l34 2q44 3 44 46v323q0 33 18 52t51 19h144v-93h-80q-17 0 -17 -19v-308q0 -26 -11 -42.5t-31 -25.5z" />
    <glyph glyph-name="bar" unicode="|" horiz-adv-x="258" 
d="M184 -191h-110v1006h110v-1006z" />
    <glyph glyph-name="braceright" unicode="}" horiz-adv-x="401" 
d="M169 312q-20 9 -31 25.5t-11 42.5v308q0 19 -17 19h-80v93h144q33 0 51 -19t18 -52v-323q0 -43 44 -46l34 -2v-92l-34 -2q-44 -3 -44 -46v-323q0 -33 -18 -52t-51 -19h-144v93h80q17 0 17 19v308q0 26 11 42.5t31 25.5z" />
    <glyph glyph-name="asciitilde" unicode="~" horiz-adv-x="652" 
d="M368 414q20 -25 35.5 -37t37.5 -12q21 0 42 21.5t38 59.5l97 -49q-27 -63 -69.5 -95t-104.5 -32q-52 0 -92 23.5t-68 59.5q-20 25 -35.5 37t-37.5 12q-21 0 -42 -21.5t-38 -59.5l-97 49q27 63 69.5 95t104.5 32q52 0 92 -23.5t68 -59.5z" />
    <glyph glyph-name="uni20A9" unicode="&#x20a9;" 
d="M511 745l65 -317h110l54 317h119l-65 -314h95v-95h-115l-69 -336h-138l-69 339h-97l-68 -339h-138l-70 336h-114v95h95l-65 314h119l54 -317h110l65 317h122zM264 118l11.5 69t12.5 68l17 84h-76l14 -84q5 -29 11 -68t10 -69zM636 118q4 30 10 69t11 68l14 84h-76l17 -84
q6 -29 12.5 -68zM419 428h61l-11 58q-5 23 -10 54.5t-9 60.5q-4 -29 -9 -60.5t-10 -54.5z" />
    <glyph glyph-name="uni2010" unicode="&#x2010;" horiz-adv-x="496" 
d="M451 336h-406v95h406v-95z" />
    <glyph glyph-name="copyright" unicode="&#xa9;" 
d="M304 312q0 -83 42 -132t119 -49q35 0 70.5 7.5t65.5 21.5l25 -86q-33 -16 -74.5 -25t-86.5 -9q-63 0 -113.5 19.5t-86.5 55t-55.5 85.5t-19.5 112t19.5 112t55.5 85.5t86.5 54.5t113.5 19q40 0 79 -7.5t71 -21.5l-26 -86q-30 11 -62 17.5t-62 6.5q-77 0 -119 -48.5
t-42 -131.5zM796 312q0 71 -25 134t-70.5 110t-109 74.5t-141.5 27.5t-141.5 -27.5t-109 -74.5t-70.5 -110t-25 -134t25 -134t70.5 -110t109 -74.5t141.5 -27.5t141.5 27.5t109 74.5t70.5 110t25 134zM890 312q0 -93 -32 -172.5t-89.5 -137t-138.5 -90t-180 -32.5t-180 32.5
t-138.5 90t-89.5 137t-32 172.5t32 172.5t89.5 137t138.5 90t180 32.5t180 -32.5t138.5 -90t89.5 -137t32 -172.5z" />
    <glyph glyph-name="_99" 
 />
    <glyph glyph-name="_100" 
 />
    <glyph glyph-name="uni3000" unicode="&#x3000;" 
 />
    <glyph glyph-name="uni3000" unicode="&#x3164;" 
 />
    <glyph glyph-name="uni3001" unicode="&#x3001;" 
d="M317 11v-136l-272 133v96z" />
    <glyph glyph-name="uni3002" unicode="&#x3002;" 
d="M225 0q0 16 -11 27t-27 11t-27 -11t-11 -27t11 -27t27 -11t27 11t11 27zM304 0q0 -48 -32.5 -80t-84.5 -32t-84.5 32t-32.5 80t32.5 80t84.5 32t84.5 -32t32.5 -80z" />
    <glyph glyph-name="periodcentered" unicode="&#xb7;" horiz-adv-x="310" 
d="M72 373q0 35 23.5 59t59.5 24t59.5 -24t23.5 -59t-23.5 -59t-59.5 -24t-59.5 24t-23.5 59z" />
    <glyph glyph-name="periodcentered" unicode="&#x30fb;" horiz-adv-x="310" 
d="M72 373q0 35 23.5 59t59.5 24t59.5 -24t23.5 -59t-23.5 -59t-59.5 -24t-59.5 24t-23.5 59z" />
    <glyph glyph-name="twodotenleader" unicode="&#x2025;" 
d="M147 9q0 32 22 54.5t56 22.5t56 -22.5t22 -54.5t-22 -54.5t-56 -22.5t-56 22.5t-22 54.5zM597 9q0 32 22 54.5t56 22.5t56 -22.5t22 -54.5t-22 -54.5t-56 -22.5t-56 22.5t-22 54.5z" />
    <glyph glyph-name="ellipsis" unicode="&#x2026;" 
d="M372 373q0 32 22 54.5t56 22.5t56 -22.5t22 -54.5t-22 -54.5t-56 -22.5t-56 22.5t-22 54.5zM72 373q0 32 22 54.5t56 22.5t56 -22.5t22 -54.5t-22 -54.5t-56 -22.5t-56 22.5t-22 54.5zM672 373q0 32 22 54.5t56 22.5t56 -22.5t22 -54.5t-22 -54.5t-56 -22.5t-56 22.5
t-22 54.5z" />
    <glyph glyph-name="ellipsis" unicode="&#x22ef;" 
d="M372 373q0 32 22 54.5t56 22.5t56 -22.5t22 -54.5t-22 -54.5t-56 -22.5t-56 22.5t-22 54.5zM72 373q0 32 22 54.5t56 22.5t56 -22.5t22 -54.5t-22 -54.5t-56 -22.5t-56 22.5t-22 54.5zM672 373q0 32 22 54.5t56 22.5t56 -22.5t22 -54.5t-22 -54.5t-56 -22.5t-56 22.5
t-22 54.5z" />
    <glyph glyph-name="dieresis" unicode="&#xa8;" horiz-adv-x="520" 
d="M301 838q0 26 17.5 44t44.5 18t44.5 -18t17.5 -44t-17.5 -44t-44.5 -18t-44.5 18t-17.5 44zM96 838q0 26 17.5 44t44.5 18t44.5 -18t17.5 -44t-17.5 -44t-44.5 -18t-44.5 18t-17.5 44z" />
    <glyph glyph-name="uni3003" unicode="&#x3003;" 
d="M345 491h136l-133 -358h-106zM521 491h136l-133 -358h-106z" />
    <glyph glyph-name="uni00AD" unicode="&#xad;" horiz-adv-x="426" 
d="M371 336h-316v95h316v-95z" />
    <glyph glyph-name="uni00AD" unicode="&#x2013;" horiz-adv-x="426" 
d="M371 336h-316v95h316v-95z" />
    <glyph glyph-name="emdash" unicode="&#x2014;" 
d="M873 336h-846v95h846v-95z" />
    <glyph glyph-name="emdash" unicode="&#x2015;" 
d="M873 336h-846v95h846v-95z" />
    <glyph glyph-name="uni2016" unicode="&#x2016;" 
d="M420 -191h-102v1006h102v-1006zM582 -191h-102v1006h102v-1006z" />
    <glyph glyph-name="uniFF3C" unicode="&#xff3c;" 
d="M20 785h131l729 -855h-131z" />
    <glyph glyph-name="similar" unicode="&#x223c;" 
d="M492 414q20 -25 35.5 -37t37.5 -12q21 0 42 21.5t38 59.5l97 -49q-27 -63 -69.5 -95t-104.5 -32q-52 0 -92 23.5t-68 59.5q-20 25 -35.5 37t-37.5 12q-21 0 -42 -21.5t-38 -59.5l-97 49q27 63 69.5 95t104.5 32q52 0 92 -23.5t68 -59.5z" />
    <glyph glyph-name="similar" unicode="&#xff5e;" 
d="M492 414q20 -25 35.5 -37t37.5 -12q21 0 42 21.5t38 59.5l97 -49q-27 -63 -69.5 -95t-104.5 -32q-52 0 -92 23.5t-68 59.5q-20 25 -35.5 37t-37.5 12q-21 0 -42 -21.5t-38 -59.5l-97 49q27 63 69.5 95t104.5 32q52 0 92 -23.5t68 -59.5z" />
    <glyph glyph-name="quoteleft" unicode="&#x2018;" horiz-adv-x="256" 
d="M221 642q0 -33 -22 -55t-56 -22q-35 0 -55.5 22t-22.5 55q-1 12 -0.5 24t2.5 26q15 102 112 157l28 -38q-29 -20 -46 -42.5t-21 -43.5l-1 -6h4q34 0 56 -22t22 -55z" />
    <glyph glyph-name="quoteright" unicode="&#x2019;" horiz-adv-x="256" 
d="M35 745q0 33 22 55t56 22q35 0 55.5 -22t22.5 -55q1 -12 0.5 -24t-2.5 -26q-15 -102 -112 -157l-28 38q29 20 46 42.5t21 43.5l1 6h-4q-34 0 -56 22t-22 55z" />
    <glyph glyph-name="quotedblleft" unicode="&#x201c;" horiz-adv-x="412" 
d="M211 642q0 -33 -22 -55t-56 -22q-35 0 -55.5 22t-22.5 55q-1 12 -0.5 24t2.5 26q15 102 112 157l28 -38q-29 -20 -46 -42.5t-21 -43.5l-1 -6h4q34 0 56 -22t22 -55zM397 642q0 -33 -22 -55t-56 -22q-35 0 -55.5 22t-22.5 55q-1 12 -0.5 24t2.5 26q15 102 112 157l28 -38
q-29 -20 -46 -42.5t-21 -43.5l-1 -6h4q34 0 56 -22t22 -55z" />
    <glyph glyph-name="quotedblright" unicode="&#x201d;" horiz-adv-x="412" 
d="M211 745q0 33 22 55t56 22q35 0 55.5 -22t22.5 -55q1 -12 0.5 -24t-2.5 -26q-15 -102 -112 -157l-28 38q29 20 46 42.5t21 43.5l1 6h-4q-34 0 -56 22t-22 55zM25 745q0 33 22 55t56 22q35 0 55.5 -22t22.5 -55q1 -12 0.5 -24t-2.5 -26q-15 -102 -112 -157l-28 38
q29 20 46 42.5t21 43.5l1 6h-4q-34 0 -56 22t-22 55z" />
    <glyph glyph-name="uni3014" unicode="&#x3014;" horiz-adv-x="373" 
d="M236 -25l107 -51v-100l-223 100v776l223 100v-100l-107 -51v-674z" />
    <glyph glyph-name="uni3015" unicode="&#x3015;" horiz-adv-x="373" 
d="M137 649l-107 51v100l223 -100v-776l-223 -100v100l107 51v674z" />
    <glyph glyph-name="uni3008" unicode="&#x3008;" horiz-adv-x="509" 
d="M474 -176h-127l-272 488l272 488h127l-268 -488z" />
    <glyph glyph-name="uni3009" unicode="&#x3009;" horiz-adv-x="509" 
d="M303 312l-268 488h127l272 -488l-272 -488h-127z" />
    <glyph glyph-name="uni300A" unicode="&#x300a;" horiz-adv-x="706" 
d="M472 -176h-125l-272 488l272 488h125l-268 -488zM671 -176h-125l-272 488l272 488h125l-268 -488z" />
    <glyph glyph-name="uni300B" unicode="&#x300b;" horiz-adv-x="706" 
d="M502 312l-268 488h125l272 -488l-272 -488h-125zM303 312l-268 488h125l272 -488l-272 -488h-125z" />
    <glyph glyph-name="uni300C" unicode="&#x300c;" horiz-adv-x="423" 
d="M145 393v407h243v-95h-125v-312h-118z" />
    <glyph glyph-name="uni300D" unicode="&#x300d;" horiz-adv-x="423" 
d="M278 231v-407h-243v95h125v312h118z" />
    <glyph glyph-name="uni300E" unicode="&#x300e;" horiz-adv-x="569" 
d="M423 243h-308v557h419v-250h-111v-307zM305 645h110v60h-182v-367h72v307z" />
    <glyph glyph-name="uni300F" unicode="&#x300f;" horiz-adv-x="569" 
d="M146 381h308v-557h-419v250h111v307zM264 -21h-110v-60h182v367h-72v-307z" />
    <glyph glyph-name="uni3010" unicode="&#x3010;" horiz-adv-x="497" 
d="M120 800h347q-51 -30 -92.5 -79.5t-70 -113t-44 -138.5t-15.5 -157t15.5 -157t44 -138.5t70 -113t92.5 -79.5h-347v976z" />
    <glyph glyph-name="uni3011" unicode="&#x3011;" horiz-adv-x="497" 
d="M377 -176h-347q51 30 92.5 79.5t70 113t44 138.5t15.5 157t-15.5 157t-44 138.5t-70 113t-92.5 79.5h347v-976z" />
    <glyph glyph-name="plusminus" unicode="&#xb1;" horiz-adv-x="632" 
d="M45 504h211v198h118v-198h213v-95h-213v-207h-118v207h-211v95zM45 151h542v-95h-542v95z" />
    <glyph glyph-name="multiply" unicode="&#xd7;" horiz-adv-x="594" 
d="M188 347q9 9 20 19t19 17q-8 7 -19 17t-20 19l-126 127l73 73l126 -127q8 -8 18 -19t18 -20q8 9 18 20t18 19l126 127l73 -73l-126 -127q-9 -9 -20 -19t-19 -17q8 -7 19.5 -17.5t19.5 -18.5l126 -126l-73 -73l-126 126q-9 9 -18.5 19.5t-17.5 19.5q-8 -9 -17.5 -19.5
t-18.5 -19.5l-126 -126l-73 73z" />
    <glyph glyph-name="divide" unicode="&#xf7;" horiz-adv-x="632" 
d="M587 336h-542v95h542v-95zM233 575q0 35 23.5 59t59.5 24t59.5 -24t23.5 -59t-23.5 -59t-59.5 -24t-59.5 24t-23.5 59zM233 192q0 35 23.5 59t59.5 24t59.5 -24t23.5 -59t-23.5 -59t-59.5 -24t-59.5 24t-23.5 59z" />
    <glyph glyph-name="notequal" unicode="&#x2260;" horiz-adv-x="700" 
d="M253 43h-116l81 184h-158v95h203l54 123h-257v95h296l73 164h116l-73 -164h168v-95h-213l-54 -123h267v-95h-306z" />
    <glyph glyph-name="lessequal" unicode="&#x2264;" horiz-adv-x="795" 
d="M305 463q31 -7 62.5 -15.5t51.5 -16.5l301 -109v-103l-660 244l660 244v-103l-301 -109q-20 -8 -51.5 -16.5t-62.5 -15.5zM80 144h650v-95h-650v95z" />
    <glyph glyph-name="greaterequal" unicode="&#x2265;" horiz-adv-x="795" 
d="M490 463q-31 7 -62.5 15.5t-51.5 16.5l-301 109v103l660 -244l-660 -244v103l301 109q20 8 51.5 16.5t62.5 15.5zM715 49h-650v95h650v-95z" />
    <glyph glyph-name="infinity" unicode="&#x221e;" 
d="M393 312q-31 50 -67 81.5t-79 31.5q-49 0 -79.5 -32t-30.5 -81t30.5 -81t79.5 -32q43 0 79 31.5t67 81.5zM879 312q0 -44 -14.5 -81.5t-42 -65t-68 -43.5t-91.5 -16q-66 0 -121.5 35.5t-91.5 89.5q-36 -54 -91.5 -89.5t-121.5 -35.5q-51 0 -91.5 16t-68 43.5t-42 65
t-14.5 81.5q0 43 14.5 81t42 65.5t68 43.5t91.5 16q66 0 121.5 -35.5t91.5 -89.5q36 54 91.5 89.5t121.5 35.5q51 0 91.5 -16t68 -43.5t42 -65.5t14.5 -81zM507 312q31 -50 67 -81.5t79 -31.5q49 0 79.5 32t30.5 81t-30.5 81t-79.5 32q-43 0 -79 -31.5t-67 -81.5z" />
    <glyph glyph-name="therefore" unicode="&#x2234;" 
d="M147 100q0 32 22 54.5t56 22.5t56 -22.5t22 -54.5t-22 -54.5t-56 -22.5t-56 22.5t-22 54.5zM597 100q0 32 22 54.5t56 22.5t56 -22.5t22 -54.5t-22 -54.5t-56 -22.5t-56 22.5t-22 54.5zM372 524q0 32 22 54.5t56 22.5t56 -22.5t22 -54.5t-22 -54.5t-56 -22.5t-56 22.5
t-22 54.5z" />
    <glyph glyph-name="degree" unicode="&#xb0;" horiz-adv-x="320" 
d="M198 675q0 16 -11 27t-27 11t-27 -11t-11 -27t11 -27t27 -11t27 11t11 27zM277 675q0 -48 -32.5 -80t-84.5 -32t-84.5 32t-32.5 80t32.5 80t84.5 32t84.5 -32t32.5 -80z" />
    <glyph glyph-name="minute" unicode="&#x2032;" horiz-adv-x="285" 
d="M105 811h138l-93 -258h-108z" />
    <glyph glyph-name="second" unicode="&#x2033;" horiz-adv-x="427" 
d="M89 811h136l-93 -258h-106zM265 811h136l-93 -258h-106z" />
    <glyph glyph-name="uni2103" unicode="&#x2103;" horiz-adv-x="747" 
d="M180 675q0 16 -11 27t-27 11t-27 -11t-11 -27t11 -27t27 -11t27 11t11 27zM259 675q0 -48 -32.5 -80t-84.5 -32t-84.5 32t-32.5 80t32.5 80t84.5 32t84.5 -32t32.5 -80zM308 328q0 -56 16.5 -102t46 -78.5t70 -50t88.5 -17.5q79 0 146 35l37 -88q-39 -20 -86.5 -31
t-96.5 -11q-79 0 -141.5 23.5t-106.5 68t-67.5 108t-23.5 143.5t23.5 143.5t67.5 107.5t106.5 67.5t141.5 23.5q48 0 89 -8.5t79 -25.5l-33 -89q-35 16 -68 22t-67 6q-48 0 -88.5 -17.5t-70 -50t-46 -78t-16.5 -101.5z" />
    <glyph glyph-name="uni212B" unicode="&#x212b;" horiz-adv-x="664" 
d="M396 637l263 -637h-121l-64 159h-285l-63 -159h-121l262 637h129zM444 769q0 -48 -32.5 -80t-84.5 -32t-84.5 32t-32.5 80t32.5 80t84.5 32t84.5 -32t32.5 -80zM332 530q-5 -15 -10.5 -32t-12 -34t-12.5 -32.5t-10 -27.5l-60 -150h209l-60 150q-10 24 -22.5 60t-21.5 66z
M365 769q0 16 -11 27t-27 11t-27 -11t-11 -27t11 -27t27 -11t27 11t11 27z" />
    <glyph glyph-name="cent" unicode="&#xa2;" 
d="M464 -110h-116l23 114q-88 29 -136.5 98t-48.5 170q0 65 21 117.5t60 89.5t94.5 57.5t123.5 22.5l18 85h116l-19 -94q14 -2 27 -5t25 -6l-20 -92q-13 3 -26.5 6t-27.5 5l-79 -380q39 0 76 6.5t68 19.5l24 -89q-37 -14 -80.5 -22t-91.5 -8h-12zM302 272q0 -60 24 -103.5
t68 -67.5l75 363q-38 -4 -69 -19t-52.5 -40t-33.5 -59t-12 -74z" />
    <glyph glyph-name="cent" unicode="&#xffe0;" 
d="M464 -110h-116l23 114q-88 29 -136.5 98t-48.5 170q0 65 21 117.5t60 89.5t94.5 57.5t123.5 22.5l18 85h116l-19 -94q14 -2 27 -5t25 -6l-20 -92q-13 3 -26.5 6t-27.5 5l-79 -380q39 0 76 6.5t68 19.5l24 -89q-37 -14 -80.5 -22t-91.5 -8h-12zM302 272q0 -60 24 -103.5
t68 -67.5l75 363q-38 -4 -69 -19t-52.5 -40t-33.5 -59t-12 -74z" />
    <glyph glyph-name="sterling" unicode="&#xa3;" 
d="M675 328h-297v-75q0 -54 -21 -94t-59 -66q34 -3 81.5 -4.5t102.5 -1.5q26 0 57 0.5t64 1.5t65 3t59 4v-90q-26 -4 -58.5 -6.5t-69.5 -4t-75 -2.5t-74 -1q-35 0 -74.5 1t-77.5 2.5t-70.5 4t-54.5 5.5v92q43 26 65 64t22 92v75h-124v95h124v104q0 52 14.5 94.5t43.5 73.5
t72.5 48t102.5 17q53 0 108.5 -9t106.5 -26l-26 -94q-48 16 -97.5 25t-88.5 9q-118 0 -118 -138v-104h297v-95z" />
    <glyph glyph-name="sterling" unicode="&#xffe1;" 
d="M675 328h-297v-75q0 -54 -21 -94t-59 -66q34 -3 81.5 -4.5t102.5 -1.5q26 0 57 0.5t64 1.5t65 3t59 4v-90q-26 -4 -58.5 -6.5t-69.5 -4t-75 -2.5t-74 -1q-35 0 -74.5 1t-77.5 2.5t-70.5 4t-54.5 5.5v92q43 26 65 64t22 92v75h-124v95h124v104q0 52 14.5 94.5t43.5 73.5
t72.5 48t102.5 17q53 0 108.5 -9t106.5 -26l-26 -94q-48 16 -97.5 25t-88.5 9q-118 0 -118 -138v-104h297v-95z" />
    <glyph glyph-name="yen" unicode="&#xa5;" 
d="M698 152h-189v-152h-118v152h-189v95h189v65h-189v95h141l-196 338h124l137 -239q9 -16 21 -39.5t21 -44.5q9 21 21 44.5t21 39.5l137 239h125l-197 -338h141v-95h-189v-65h189v-95z" />
    <glyph glyph-name="yen" unicode="&#xffe5;" 
d="M698 152h-189v-152h-118v152h-189v95h189v65h-189v95h141l-196 338h124l137 -239q9 -16 21 -39.5t21 -44.5q9 21 21 44.5t21 39.5l137 239h125l-197 -338h141v-95h-189v-65h189v-95z" />
    <glyph glyph-name="male" unicode="&#x2642;" horiz-adv-x="626" 
d="M541 95q0 -44 -16.5 -81.5t-46.5 -64.5t-72 -42.5t-93 -15.5t-93 15.5t-72 42.5t-46.5 64.5t-16.5 81.5q0 75 45.5 128.5t123.5 69.5v287l-108 -114l-69 65l236 238l236 -238l-69 -65l-108 114v-287q78 -16 123.5 -69.5t45.5 -128.5zM203 95q0 -48 31 -79t79 -31t79 31
t31 79t-31 79t-79 31t-79 -31t-31 -79z" />
    <glyph glyph-name="female" unicode="&#x2640;" horiz-adv-x="626" 
d="M372 180v-275h-118v275h-229v94h229v83q-78 16 -123.5 70t-45.5 129q0 44 16.5 81.5t46.5 64.5t72 42.5t93 15.5t93 -15.5t72 -42.5t46.5 -64.5t16.5 -81.5q0 -38 -12 -70.5t-34 -58.5t-53 -44t-70 -26v-83h229v-94h-229zM203 556q0 -48 31 -79t79 -31t79 31t31 79
t-31 79t-79 31t-79 -31t-31 -79z" />
    <glyph glyph-name="angle" unicode="&#x2220;" horiz-adv-x="823" 
d="M570 643h136l-450 -548h502v-95h-713z" />
    <glyph glyph-name="perpendicular" unicode="&#x22a5;" horiz-adv-x="808" 
d="M45 0v95h300v548h118v-548h300v-95h-718z" />
    <glyph glyph-name="uni2312" unicode="&#x2312;" 
d="M450 237q59 0 106.5 -17t81.5 -47t52 -71t18 -89v-13h-116v13q0 27 -10 51t-28.5 41.5t-44.5 28t-59 10.5t-59 -10.5t-44.5 -28t-28.5 -41.5t-10 -51v-13h-116v13q0 48 18 89t52 71t81.5 47t106.5 17z" />
    <glyph glyph-name="partialdiff" unicode="&#x2202;" horiz-adv-x="555" 
d="M277 463q-21 0 -50 -5.5t-53 -15.5l-29 89q27 11 63 18t72 7q94 0 147 -53.5t53 -159.5q0 -68 -18 -119.5t-48.5 -86.5t-70 -53t-82.5 -18q-41 0 -75.5 10t-59 29.5t-38 49t-13.5 68.5q0 35 14 64.5t42.5 51t71 33.5t98.5 12h31t29 -2q-12 81 -84 81zM301 291
q-57 0 -83.5 -19t-26.5 -49q0 -31 21.5 -47.5t48.5 -16.5q37 0 64.5 28.5t35.5 101.5q-16 2 -31 2h-29z" />
    <glyph glyph-name="gradient" unicode="&#x2207;" 
d="M26 682h848l-424 -727zM216 570l252 -439l253 439h-505z" />
    <glyph glyph-name="equivalence" unicode="&#x2261;" 
d="M740 149h-580v95h580v-95zM740 337h-580v93h580v-93zM740 523h-580v95h580v-95z" />
    <glyph glyph-name="uni2252" unicode="&#x2252;" 
d="M740 227h-580v95h580v-95zM740 445h-580v95h580v-95zM195 663q0 35 23.5 59t59.5 24t59.5 -24t23.5 -59t-23.5 -59t-59.5 -24t-59.5 24t-23.5 59zM539 104q0 35 23.5 59t59.5 24t59.5 -24t23.5 -59t-23.5 -59t-59.5 -24t-59.5 24t-23.5 59z" />
    <glyph glyph-name="section" unicode="&#xa7;" horiz-adv-x="505" 
d="M343 60q27 -39 36.5 -68.5t9.5 -57.5q0 -68 -43 -109t-131 -41q-24 0 -50.5 5t-46.5 13l23 89q23 -8 40 -11t34 -3q26 0 42 16.5t16 40.5q0 27 -6.5 51t-23.5 47l-148 198q-26 34 -41 64t-15 62q0 60 33.5 94t90.5 34q-28 39 -37.5 68.5t-9.5 57.5q0 68 43 109t131 41
q24 0 50.5 -5t46.5 -13l-23 -89q-23 8 -40 11t-34 3q-26 0 -42 -16.5t-16 -40.5q0 -27 6.5 -51t23.5 -47l148 -198q26 -34 41 -63.5t15 -61.5q0 -60 -33.5 -94.5t-89.5 -34.5zM258 174q16 -21 49 -21q17 0 30 14.5t13 32.5q0 31 -21 60l-82 110q-17 21 -49 21
q-17 0 -30 -14.5t-13 -32.5q0 -31 21 -60z" />
    <glyph glyph-name="uni203B" unicode="&#x203b;" 
d="M413 420q8 -8 18 -19t18 -20q8 9 18 20t18 19l255 255l72 -72l-255 -255q-9 -9 -20 -19t-19 -17q8 -7 19 -17t20 -19l255 -254l-72 -72l-255 254q-9 9 -18.5 19.5t-17.5 19.5q-8 -9 -17.5 -19.5t-18.5 -19.5l-254 -254l-72 72l254 254q10 10 20.5 19.5t18.5 16.5
q-8 7 -19 16.5t-20 19.5l-254 255l72 72zM367 617q0 35 23.5 59t59.5 24t59.5 -24t23.5 -59t-23.5 -59t-59.5 -24t-59.5 24t-23.5 59zM60 312q0 35 23.5 59t59.5 24t59.5 -24t23.5 -59t-23.5 -59t-59.5 -24t-59.5 24t-23.5 59zM673 312q0 35 23.5 59t59.5 24t59.5 -24
t23.5 -59t-23.5 -59t-59.5 -24t-59.5 24t-23.5 59zM367 8q0 35 23.5 59t59.5 24t59.5 -24t23.5 -59t-23.5 -59t-59.5 -24t-59.5 24t-23.5 59z" />
    <glyph glyph-name="uni2606" unicode="&#x2606;" 
d="M876 430l-250 -205l112 -330l-288 205l-288 -205l112 330l-250 205h318l108 315l107 -315h319zM662 366h-163l-49 149l-51 -149h-162l127 -105l-56 -160l142 99l143 -99l-58 160z" />
    <glyph glyph-name="uni2605" unicode="&#x2605;" 
d="M876 430l-250 -205l112 -330l-288 205l-288 -205l112 330l-250 205h318l108 315l107 -315h319z" />
    <glyph glyph-name="circle" unicode="&#x25cb;" 
d="M736 312q0 61 -21.5 114t-59.5 91.5t-90.5 60.5t-114.5 22t-114.5 -22t-90.5 -60.5t-59.5 -91.5t-21.5 -114q0 -62 21.5 -114.5t59.5 -91t90.5 -60.5t114.5 -22t114.5 22t90.5 60.5t59.5 91t21.5 114.5zM845 312q0 -85 -29.5 -154.5t-82.5 -119.5t-125.5 -77.5
t-157.5 -27.5q-86 0 -158 27.5t-125 77.5t-82.5 119.5t-29.5 154.5t29.5 154.5t82.5 119.5t125 77.5t158 27.5q85 0 157.5 -27.5t125.5 -77.5t82.5 -119.5t29.5 -154.5z" />
    <glyph glyph-name="H18533" unicode="&#x25cf;" 
d="M845 312q0 -85 -29.5 -154.5t-82.5 -119.5t-125.5 -77.5t-157.5 -27.5q-86 0 -158 27.5t-125 77.5t-82.5 119.5t-29.5 154.5t29.5 154.5t82.5 119.5t125 77.5t158 27.5q85 0 157.5 -27.5t125.5 -77.5t82.5 -119.5t29.5 -154.5z" />
    <glyph glyph-name="uni25CE" unicode="&#x25ce;" 
d="M215 312q0 50 17.5 92.5t48.5 73.5t74 48.5t95 17.5t95 -17.5t74 -48.5t48.5 -73.5t17.5 -92.5t-17.5 -92.5t-48.5 -73.5t-74 -48.5t-95 -17.5t-95 17.5t-74 48.5t-48.5 73.5t-17.5 92.5zM755 312q0 67 -23 123t-63.5 97t-96.5 64t-122 23t-122 -23t-96.5 -64t-63.5 -97
t-23 -123t23 -123t63.5 -97t96.5 -64t122 -23t122 23t96.5 64t63.5 97t23 123zM591 312q0 32 -10 59.5t-29 47.5t-45 31.5t-57 11.5q-32 0 -57.5 -11.5t-44.5 -31.5t-29 -47.5t-10 -59.5t10 -59.5t29 -47.5t44.5 -31.5t57.5 -11.5q31 0 57 11.5t45 31.5t29 47.5t10 59.5z
M864 312q0 -88 -31.5 -161.5t-87 -126t-131 -81.5t-164.5 -29t-164.5 29t-131 81.5t-87 126t-31.5 161.5t31.5 161.5t87 126t131 81.5t164.5 29t164.5 -29t131 -81.5t87 -126t31.5 -161.5z" />
    <glyph glyph-name="uni25C7" unicode="&#x25c7;" 
d="M883 312l-433 -433l-433 433l433 434zM744 312l-294 295l-294 -295l294 -294z" />
    <glyph glyph-name="uni25C6" unicode="&#x25c6;" 
d="M883 312l-433 -433l-433 433l433 434z" />
    <glyph glyph-name="H22073" unicode="&#x25a1;" 
d="M821 -46h-742v718h742v-718zM712 45v536h-524v-536h524z" />
    <glyph glyph-name="filledbox" unicode="&#x25a0;" 
d="M818 -48h-736v722h736v-722z" />
    <glyph glyph-name="uni25B3" unicode="&#x25b3;" 
d="M869 -19h-838l419 697zM701 76l-251 420l-250 -420h501z" />
    <glyph glyph-name="triagup" unicode="&#x25b2;" 
d="M869 -19h-838l419 697z" />
    <glyph glyph-name="uni25BD" unicode="&#x25bd;" 
d="M450 -63l-419 697h838zM200 539l250 -420l251 420h-501z" />
    <glyph glyph-name="triagdn" unicode="&#x25bc;" 
d="M450 -63l-419 697h838z" />
    <glyph glyph-name="arrowright" unicode="&#x2192;" 
d="M2 266v92h769l-32 110l159 -156l-159 -156l32 110h-769z" />
    <glyph glyph-name="arrowleft" unicode="&#x2190;" 
d="M129 266l32 -110l-159 156l159 156l-32 -110h769v-92h-769z" />
    <glyph glyph-name="arrowup" unicode="&#x2191;" horiz-adv-x="580" 
d="M340 -183h-100v863l-106 -32l156 159l156 -159l-106 32v-863z" />
    <glyph glyph-name="arrowdown" unicode="&#x2193;" horiz-adv-x="580" 
d="M340 -56l106 32l-156 -159l-156 159l106 -32v863h100v-863z" />
    <glyph glyph-name="arrowboth" unicode="&#x2194;" 
d="M129 266l32 -110l-159 156l159 156l-32 -110h642l-32 110l159 -156l-159 -156l32 110h-642z" />
    <glyph glyph-name="uni3013" unicode="&#x3013;" 
d="M730 227h-560v95h560v-95zM730 445h-560v95h560v-95z" />
    <glyph glyph-name="guillemotleft" unicode="&#xab;" 
d="M251 373q21 -10 43 -22t37 -22l183 -117v-113l-439 274l439 274v-113l-183 -117q-15 -10 -37 -22t-43 -22zM557 373q21 -10 43 -22t37 -22l183 -117v-113l-439 274l439 274v-113l-183 -117q-15 -10 -37 -22t-43 -22z" />
    <glyph glyph-name="guillemotleft" unicode="&#x226a;" 
d="M251 373q21 -10 43 -22t37 -22l183 -117v-113l-439 274l439 274v-113l-183 -117q-15 -10 -37 -22t-43 -22zM557 373q21 -10 43 -22t37 -22l183 -117v-113l-439 274l439 274v-113l-183 -117q-15 -10 -37 -22t-43 -22z" />
    <glyph glyph-name="guillemotright" unicode="&#xbb;" 
d="M649 373q-21 10 -43 22t-37 22l-183 117v113l439 -274l-439 -274v113l183 117q15 10 37 22t43 22zM343 373q-21 10 -43 22t-37 22l-183 117v113l439 -274l-439 -274v113l183 117q15 10 37 22t43 22z" />
    <glyph glyph-name="guillemotright" unicode="&#x226b;" 
d="M649 373q-21 10 -43 22t-37 22l-183 117v113l439 -274l-439 -274v113l183 117q15 10 37 22t43 22zM343 373q-21 10 -43 22t-37 22l-183 117v113l439 -274l-439 -274v113l183 117q15 10 37 22t43 22z" />
    <glyph glyph-name="radical" unicode="&#x221a;" horiz-adv-x="542" 
d="M96 271q-20 0 -42 5.5t-39 16.5l14 74q12 -2 30.5 -2.5t35.5 -0.5h90q20 0 24 -17l30 -141q6 -29 13 -68t12 -72q4 33 10 72t13 68l138 629h112l-215 -885h-114l-83 321h-29z" />
    <glyph glyph-name="uni223D" unicode="&#x223d;" 
d="M408 342q23 36 63 58.5t100 22.5q39 0 70 -12.5t53.5 -33.5t34.5 -49.5t12 -60.5h-113q0 27 -16.5 44t-42.5 17q-27 0 -45 -12t-32 -35q-23 -36 -63 -58.5t-100 -22.5q-39 0 -70 12.5t-53.5 33.5t-34.5 49.5t-12 60.5h113q0 -27 16.5 -44t42.5 -17q27 0 45 12t32 35z" />
    <glyph glyph-name="proportional" unicode="&#x221d;" horiz-adv-x="757" 
d="M407 312q-31 50 -67 81.5t-79 31.5q-49 0 -79.5 -32t-30.5 -81t30.5 -81t79.5 -32q43 0 79 31.5t67 81.5zM692 106q-36 0 -69 9.5t-62.5 26t-54 39.5t-42.5 50q-36 -54 -91.5 -89.5t-121.5 -35.5q-51 0 -91.5 16t-68 43.5t-42 65t-14.5 81.5q0 43 14.5 81t42 65.5
t68 43.5t91.5 16q66 0 121.5 -35.5t91.5 -89.5q18 27 42.5 50t54 39.5t62.5 26t69 9.5v-93q-52 0 -97 -31.5t-74 -81.5q29 -50 74 -81.5t97 -31.5v-93z" />
    <glyph glyph-name="uni2235" unicode="&#x2235;" 
d="M147 524q0 32 22 54.5t56 22.5t56 -22.5t22 -54.5t-22 -54.5t-56 -22.5t-56 22.5t-22 54.5zM597 524q0 32 22 54.5t56 22.5t56 -22.5t22 -54.5t-22 -54.5t-56 -22.5t-56 22.5t-22 54.5zM372 100q0 32 22 54.5t56 22.5t56 -22.5t22 -54.5t-22 -54.5t-56 -22.5t-56 22.5
t-22 54.5z" />
    <glyph glyph-name="integral" unicode="&#x222b;" horiz-adv-x="496" 
d="M190 625q0 72 40 103.5t112 31.5q23 0 44.5 -5t37.5 -13l-26 -90q-14 5 -29.5 9t-26.5 4q-36 0 -36 -40v-706q0 -72 -40 -103.5t-112 -31.5q-23 0 -44.5 5t-37.5 13l26 90q14 -5 29.5 -9t26.5 -4q36 0 36 40v706z" />
    <glyph glyph-name="uni222C" unicode="&#x222c;" horiz-adv-x="746" 
d="M190 625q0 72 40 103.5t112 31.5q23 0 44.5 -5t37.5 -13l-26 -90q-14 5 -29.5 9t-26.5 4q-36 0 -36 -40v-706q0 -72 -40 -103.5t-112 -31.5q-23 0 -44.5 5t-37.5 13l26 90q14 -5 29.5 -9t26.5 -4q36 0 36 40v706zM440 625q0 72 40 103.5t112 31.5q23 0 44.5 -5t37.5 -13
l-26 -90q-14 5 -29.5 9t-26.5 4q-36 0 -36 -40v-706q0 -72 -40 -103.5t-112 -31.5q-23 0 -44.5 5t-37.5 13l26 90q14 -5 29.5 -9t26.5 -4q36 0 36 40v706z" />
    <glyph glyph-name="element" unicode="&#x2208;" horiz-adv-x="795" 
d="M715 330h-525q11 -60 55.5 -94t124.5 -34h350v-93h-350q-68 0 -123.5 19t-94.5 53.5t-60.5 83.5t-21.5 108t21.5 108t60.5 83.5t94.5 53.5t123.5 19h350v-93h-350q-78 0 -122.5 -33t-56.5 -90h524v-91z" />
    <glyph glyph-name="suchthat" unicode="&#x220b;" horiz-adv-x="795" 
d="M80 421h524q-13 57 -57 90t-122 33h-350v93h350q68 0 123.5 -19t94.5 -53.5t60.5 -83.5t21.5 -108t-21.5 -108t-60.5 -83.5t-94.5 -53.5t-123.5 -19h-350v93h350q80 0 124.5 34t55.5 94h-525v91z" />
    <glyph glyph-name="reflexsubset" unicode="&#x2286;" horiz-adv-x="795" 
d="M80 144h650v-95h-650v95zM188 465q0 -64 43.5 -101.5t123.5 -37.5h365v-93h-365q-68 0 -121 16.5t-89.5 47t-55.5 73t-19 95.5q0 52 19 95t55.5 73.5t89.5 47t121 16.5h365v-93h-365q-80 0 -123.5 -37.5t-43.5 -101.5z" />
    <glyph glyph-name="reflexsuperset" unicode="&#x2287;" horiz-adv-x="795" 
d="M715 49h-650v95h650v-95zM607 465q0 64 -43.5 101.5t-123.5 37.5h-365v93h365q68 0 121 -16.5t89.5 -47t55.5 -73.5t19 -95q0 -53 -19 -95.5t-55.5 -73t-89.5 -47t-121 -16.5h-365v93h365q80 0 123.5 37.5t43.5 101.5z" />
    <glyph glyph-name="propersubset" unicode="&#x2282;" horiz-adv-x="795" 
d="M188 373q0 -75 48.5 -122t138.5 -47h345v-95h-345q-68 0 -124.5 19t-96.5 53.5t-62 83.5t-22 108t22 108t62 83.5t96.5 53.5t124.5 19h345v-95h-345q-90 0 -138.5 -47t-48.5 -122z" />
    <glyph glyph-name="propersuperset" unicode="&#x2283;" horiz-adv-x="795" 
d="M607 373q0 75 -48.5 122t-138.5 47h-345v95h345q68 0 124.5 -19t96.5 -53.5t62 -83.5t22 -108t-22 -108t-62 -83.5t-96.5 -53.5t-124.5 -19h-345v95h345q90 0 138.5 47t48.5 122z" />
    <glyph glyph-name="union" unicode="&#x222a;" horiz-adv-x="746" 
d="M373 -15q-130 0 -204 71t-74 203v422h116v-422q0 -87 44 -134t118 -47t118 47t44 134v422h116v-422q0 -132 -74 -203t-204 -71z" />
    <glyph glyph-name="intersection" unicode="&#x2229;" horiz-adv-x="746" 
d="M373 696q130 0 204 -71t74 -203v-422h-116v422q0 87 -44 134t-118 47t-118 -47t-44 -134v-422h-116v422q0 132 74 203t204 71z" />
    <glyph glyph-name="logicaland" unicode="&#x2227;" horiz-adv-x="756" 
d="M442 681l239 -681h-118l-148 440q-5 13 -10 30t-10 34.5t-9.5 35t-7.5 31.5l-9 -31.5l-10 -35t-10.5 -34.5t-9.5 -30l-146 -440h-118l238 681h129z" />
    <glyph glyph-name="logicalor" unicode="&#x2228;" horiz-adv-x="756" 
d="M313 0l-238 681h118l146 -440q4 -13 9.5 -30t10.5 -34.5l10 -35l9 -31.5q3 14 7.5 31.5t9.5 35t10 34.5t10 30l148 440h118l-239 -681h-129z" />
    <glyph glyph-name="logicalnot" unicode="&#xac;" 
d="M749 359h-729v93h845v-276h-116v183z" />
    <glyph glyph-name="logicalnot" unicode="&#xffe2;" 
d="M749 359h-729v93h845v-276h-116v183z" />
    <glyph glyph-name="arrowdblright" unicode="&#x21d2;" 
d="M736 259l44 53l-44 53h-734v86h662l-64 77l70 59l228 -275l-228 -275l-70 59l64 77h-662v86h734z" />
    <glyph glyph-name="arrowdblboth" unicode="&#x21d4;" 
d="M230 587l70 -59l-64 -77h428l-64 77l70 59l228 -275l-228 -275l-70 59l64 77h-428l64 -77l-70 -59l-228 275zM735 366h-570l-45 -54l45 -54h570l45 54z" />
    <glyph glyph-name="universal" unicode="&#x2200;" horiz-adv-x="664" 
d="M268 0l-263 745h120l54 -159h306l54 159h120l-262 -745h-129zM299 233q8 -23 17 -56.5t16 -62.5q7 29 16.5 62.5t17.5 56.5l87 258h-242z" />
    <glyph glyph-name="existential" unicode="&#x2203;" horiz-adv-x="596" 
d="M35 739q22 4 50 6.5t59.5 4t65 2.5t65.5 1q31 0 65.5 -1t67.5 -2.5t62.5 -4t50.5 -5.5v-740h-461v95h343v227h-333v95h333v236q-35 3 -81 4t-88 1q-19 0 -43.5 -0.5t-51.5 -1.5t-53.5 -2.5t-50.5 -4.5v90z" />
    <glyph glyph-name="acute" unicode="&#xb4;" horiz-adv-x="325" 
d="M125 811h138l-93 -258h-108z" />
    <glyph glyph-name="tilde" unicode="&#x2dc;" 
d="M492 342q14 -23 32 -35t45 -12q26 0 42.5 17t16.5 44h113q0 -32 -12 -60.5t-34.5 -49.5t-53.5 -33.5t-70 -12.5q-60 0 -100 22.5t-63 58.5q-14 23 -32 35t-45 12q-26 0 -42.5 -17t-16.5 -44h-113q0 32 12 60.5t34.5 49.5t53.5 33.5t70 12.5q60 0 100 -22.5t63 -58.5z" />
    <glyph glyph-name="caron" unicode="&#x2c7;" horiz-adv-x="514" 
d="M297 744h-80l-154 142h125l42 -40q8 -7 15 -15t12 -13q5 5 12 13t15 15l42 40h125z" />
    <glyph glyph-name="breve" unicode="&#x2d8;" horiz-adv-x="514" 
d="M257 744q-78 0 -125 37t-47 105h110q0 -27 16 -42.5t46 -15.5t46 15.5t16 42.5h110q0 -68 -47 -105t-125 -37z" />
    <glyph glyph-name="hungarumlaut" unicode="&#x2dd;" horiz-adv-x="467" 
d="M109 811h136l-93 -258h-106zM285 811h136l-93 -258h-106z" />
    <glyph glyph-name="ring" unicode="&#x2da;" horiz-adv-x="420" 
d="M248 769q0 16 -11 27t-27 11t-27 -11t-11 -27t11 -27t27 -11t27 11t11 27zM327 769q0 -48 -32.5 -80t-84.5 -32t-84.5 32t-32.5 80t32.5 80t84.5 32t84.5 -32t32.5 -80z" />
    <glyph glyph-name="dotaccent" unicode="&#x2d9;" horiz-adv-x="376" 
d="M105 776q0 35 23.5 59t59.5 24t59.5 -24t23.5 -59t-23.5 -59t-59.5 -24t-59.5 24t-23.5 59z" />
    <glyph glyph-name="cedilla" unicode="&#xb8;" horiz-adv-x="325" 
d="M180 -42q7 1 11.5 1h10.5q36 0 58.5 -25t22.5 -64q0 -48 -33.5 -75.5t-87.5 -27.5q-28 0 -57.5 5t-52.5 14l16 62q20 -6 40 -9.5t41 -3.5q15 0 24.5 6.5t9.5 23.5q0 14 -9.5 21.5t-26.5 7.5q-21 0 -40.5 -1.5t-34.5 -3.5l44 129h85z" />
    <glyph glyph-name="ogonek" unicode="&#x2db;" horiz-adv-x="325" 
d="M193 -159q17 0 34.5 5t34.5 13l26 -65q-21 -12 -48.5 -19.5t-53.5 -7.5q-63 0 -97.5 26t-34.5 84q0 40 20 74.5t57 66.5h90q-33 -38 -50 -71t-17 -67q0 -17 11 -28t28 -11z" />
    <glyph glyph-name="exclamdown" unicode="&#xa1;" horiz-adv-x="274" 
d="M189 384q3 -36 5 -78.5t3.5 -86.5t2.5 -85.5t1 -75.5v-269h-128v269q0 34 0.5 75.5t2 85.5t4 86.5t5.5 78.5h104zM215 545q0 -32 -22 -54.5t-56 -22.5t-56 22.5t-22 54.5t22 54.5t56 22.5t56 -22.5t22 -54.5z" />
    <glyph glyph-name="questiondown" unicode="&#xbf;" horiz-adv-x="547" 
d="M262 384h106l6 -88q2 -32 -7 -55t-32 -43l-102 -87q-29 -26 -44.5 -57t-15.5 -76q0 -48 31.5 -78.5t87.5 -30.5q45 0 91.5 12t93.5 34l35 -92q-48 -23 -104 -36t-119 -13q-114 0 -174 54.5t-60 149.5q0 33 6 60.5t19 53t34 49t50 48.5l73 62q18 16 19 45zM394 545
q0 -32 -22 -54.5t-56 -22.5t-56 22.5t-22 54.5t22 54.5t56 22.5t56 -22.5t22 -54.5z" />
    <glyph glyph-name="uni02D0" unicode="&#x2d0;" horiz-adv-x="500" 
d="M172 100q0 32 22 54.5t56 22.5t56 -22.5t22 -54.5t-22 -54.5t-56 -22.5t-56 22.5t-22 54.5zM172 524q0 32 22 54.5t56 22.5t56 -22.5t22 -54.5t-22 -54.5t-56 -22.5t-56 22.5t-22 54.5z" />
    <glyph glyph-name="uni02D0" unicode="&#x2236;" horiz-adv-x="500" 
d="M172 100q0 32 22 54.5t56 22.5t56 -22.5t22 -54.5t-22 -54.5t-56 -22.5t-56 22.5t-22 54.5zM172 524q0 32 22 54.5t56 22.5t56 -22.5t22 -54.5t-22 -54.5t-56 -22.5t-56 22.5t-22 54.5z" />
    <glyph glyph-name="uni222E" unicode="&#x222e;" horiz-adv-x="714" 
d="M294 625q0 72 40 103.5t112 31.5q23 0 44.5 -5t37.5 -13l-26 -90q-14 5 -29.5 9t-26.5 4q-36 0 -36 -40v-99q61 -7 108 -29t79.5 -55t49.5 -76.5t17 -93.5q0 -51 -17 -94t-49.5 -76.5t-79.5 -55t-108 -28.5v-99q0 -72 -40 -103.5t-112 -31.5q-23 0 -44.5 5t-37.5 13
l26 90q14 -5 29.5 -9t26.5 -4q36 0 36 40v99q-61 7 -108 28.5t-79.5 55t-49.5 76.5t-17 94q0 50 17 93.5t49.5 76.5t79.5 55t108 29v99zM156 272q0 -61 36.5 -103.5t104.5 -55.5v318q-68 -14 -104.5 -56.5t-36.5 -102.5zM548 272q0 60 -36.5 102.5t-104.5 56.5v-318
q68 13 104.5 55.5t36.5 103.5z" />
    <glyph glyph-name="summation" unicode="&#x2211;" horiz-adv-x="650" 
d="M586 -202q-22 -4 -54 -6.5t-68 -4t-73.5 -2.5t-70.5 -1q-32 0 -72.5 1t-81 2.5t-76 4t-56.5 5.5v80l254 397l-243 391v80h516v-95h-369q11 -11 21 -24.5t18 -25.5l175 -290v-75l-180 -291q-8 -14 -21.5 -30.5t-26.5 -29.5q18 -2 40.5 -2.5t47 -1.5t50.5 -1h51
q23 0 51 0.5t57.5 1.5t58 2.5t52.5 4.5v-90z" />
    <glyph glyph-name="product" unicode="&#x220f;" horiz-adv-x="764" 
d="M689 -210h-118v860h-378v-860h-118v955h614v-955z" />
    <glyph glyph-name="currency" unicode="&#xa4;" horiz-adv-x="719" 
d="M674 554l-81 -82q26 -33 39.5 -74t13.5 -86q0 -46 -13.5 -86.5t-39.5 -74.5l81 -80l-72 -73l-87 86q-32 -19 -71 -29t-84 -10t-84 10t-72 29l-85 -86l-73 72l81 81q-26 34 -39.5 74.5t-13.5 86.5q0 45 13.5 86t39.5 74l-81 81l72 73l86 -86q33 19 72 29t84 10t84 -10
t71 -29l86 86zM190 312q0 -36 12 -67.5t34.5 -55t54 -37.5t69.5 -14t69.5 14t54 37.5t34.5 55t12 67.5t-12 67.5t-34.5 55t-54 37.5t-69.5 14t-69.5 -14t-54 -37.5t-34.5 -55t-12 -67.5z" />
    <glyph glyph-name="uni2109" unicode="&#x2109;" horiz-adv-x="736" 
d="M413 427h278v-95h-278v-332h-118v745h406v-95h-288v-223zM180 675q0 16 -11 27t-27 11t-27 -11t-11 -27t11 -27t27 -11t27 11t11 27zM259 675q0 -48 -32.5 -80t-84.5 -32t-84.5 32t-32.5 80t32.5 80t84.5 32t84.5 -32t32.5 -80z" />
    <glyph glyph-name="perthousand" unicode="&#x2030;" 
d="M197 -10h-100l308 765h100zM182 562q0 47 -7 73.5t-27 26.5t-26 -26.5t-6 -73.5t6 -73.5t26 -26.5t27 26.5t7 73.5zM286 562q0 -92 -34.5 -142.5t-103.5 -50.5t-103.5 50.5t-34.5 142.5t34.5 142.5t103.5 50.5t103.5 -50.5t34.5 -142.5zM783 183q0 47 -6 73.5t-26 26.5
t-27 -26.5t-7 -73.5t7 -73.5t27 -26.5t26 26.5t6 73.5zM889 183q0 -92 -34.5 -142.5t-103.5 -50.5t-103.5 50.5t-34.5 142.5t34.5 142.5t103.5 50.5t103.5 -50.5t34.5 -142.5zM489 183q0 47 -7 73.5t-27 26.5t-27 -26.5t-7 -73.5t7 -73.5t27 -26.5t27 26.5t7 73.5zM593 183
q0 -92 -34.5 -142.5t-103.5 -50.5t-103.5 50.5t-34.5 142.5t34.5 142.5t103.5 50.5t103.5 -50.5t34.5 -142.5z" />
    <glyph glyph-name="uni25C1" unicode="&#x25c1;" 
d="M758 -101l-672 413l672 412v-825zM659 69v485l-398 -242z" />
    <glyph glyph-name="uni25C0" unicode="&#x25c0;" 
d="M758 -101l-672 413l672 412v-825z" />
    <glyph glyph-name="uni25B7" unicode="&#x25b7;" 
d="M140 724l672 -412l-672 -413v825zM637 312l-398 242v-485z" />
    <glyph glyph-name="uni25B6" unicode="&#x25b6;" 
d="M140 724l672 -412l-672 -413v825z" />
    <glyph glyph-name="uni2664" unicode="&#x2664;" 
d="M742 417q47 -54 68.5 -104t21.5 -92q0 -45 -12.5 -78t-35.5 -57q-23 -23 -54.5 -35t-60.5 -12q-28 0 -52 8.5t-52 27.5q11 -65 55 -119q5 -6 8.5 -13t3.5 -15q0 -13 -9 -21.5t-31 -8.5h-284q-22 0 -31 8.5t-9 21.5q0 8 3.5 15t8.5 13q44 54 55 119q-28 -19 -52 -27.5
t-52 -8.5q-29 0 -60.5 12t-54.5 35q-23 24 -35.5 57t-12.5 78q0 42 21.5 92t68.5 104l292 340zM244 377q-36 -44 -52 -76t-16 -64q0 -26 9 -45.5t20 -30.5q13 -12 29 -17t29 -5q15 0 31 4t33 15q32 19 50 19q27 0 39.5 -15.5t12.5 -41.5q0 -27 -10 -63.5t-24 -63.5h110
q-14 27 -24 63.5t-10 63.5q0 26 12.5 41.5t39.5 15.5q18 0 50 -19q17 -11 33 -15t31 -4q13 0 29 5t29 17q11 11 20 30.5t9 45.5q0 32 -16 64t-52 76l-206 246z" />
    <glyph glyph-name="spade" unicode="&#x2660;" 
d="M742 417q47 -54 68.5 -104t21.5 -92q0 -45 -12.5 -78t-35.5 -57q-23 -23 -54.5 -35t-60.5 -12q-28 0 -52 8.5t-52 27.5q11 -65 55 -119q5 -6 8.5 -13t3.5 -15q0 -13 -9 -21.5t-31 -8.5h-284q-22 0 -31 8.5t-9 21.5q0 8 3.5 15t8.5 13q44 54 55 119q-28 -19 -52 -27.5
t-52 -8.5q-29 0 -60.5 12t-54.5 35q-23 24 -35.5 57t-12.5 78q0 42 21.5 92t68.5 104l292 340z" />
    <glyph glyph-name="uni2661" unicode="&#x2661;" 
d="M450 566q8 31 24 58t39 46.5t52.5 30.5t64.5 11q107 0 165 -62.5t58 -168.5q0 -36 -11 -72t-29 -71t-42 -68.5t-51 -63.5l-270 -304l-270 304q-27 30 -51 63.5t-42 68.5t-29 71t-11 72q0 106 58 168.5t165 62.5q35 0 64.5 -11t52.5 -30.5t39 -46.5t24 -58zM629 249
q58 68 84.5 123t26.5 109q0 63 -29 100.5t-79 37.5q-45 0 -77 -30.5t-49 -99.5q-14 -56 -56 -56t-56 56q-17 69 -49 99.5t-77 30.5q-50 0 -79 -37.5t-29 -100.5q0 -54 26.5 -109t84.5 -123l179 -207z" />
    <glyph glyph-name="heart" unicode="&#x2665;" 
d="M450 566q8 31 24 58t39 46.5t52.5 30.5t64.5 11q107 0 165 -62.5t58 -168.5q0 -36 -11 -72t-29 -71t-42 -68.5t-51 -63.5l-270 -304l-270 304q-27 30 -51 63.5t-42 68.5t-29 71t-11 72q0 106 58 168.5t165 62.5q35 0 64.5 -11t52.5 -30.5t39 -46.5t24 -58z" />
    <glyph glyph-name="uni2667" unicode="&#x2667;" 
d="M569 -102h-238q-39 0 -39 28q0 7 2 14t4 11q17 31 30.5 70.5t16.5 72.5q-29 -28 -64 -43.5t-75 -15.5q-38 0 -73 13.5t-61 39t-41.5 62t-15.5 81.5t14.5 80.5t40 59.5t60.5 37t76 13q30 0 54 -5.5t53 -19.5q-43 35 -63 75.5t-20 94.5q0 37 14 70.5t41.5 59t69 40.5
t95.5 15t95.5 -15t69 -40.5t41.5 -59t14 -70.5q0 -54 -20 -94.5t-63 -75.5q29 14 53 19.5t54 5.5q41 0 76 -13t60.5 -37t40 -59.5t14.5 -80.5t-15.5 -81.5t-42 -62t-61 -39t-72.5 -13.5q-40 0 -75 15.5t-64 43.5q3 -33 16.5 -72.5t30.5 -70.5q2 -4 4 -11t2 -14
q0 -28 -39 -28zM450 657q-48 0 -78.5 -32t-30.5 -80q0 -33 10 -62t27 -55q23 -34 23 -59q0 -23 -13 -39.5t-37 -16.5q-6 0 -17 3t-20 5q-25 6 -47.5 9t-49.5 3q-42 0 -66.5 -27t-24.5 -75q0 -26 7.5 -45.5t20.5 -33t29 -20t34 -6.5q29 0 51.5 10.5t52.5 33.5q8 6 19.5 11
t21.5 5q32 0 50.5 -17t18.5 -48q0 -13 -1.5 -30t-4.5 -34.5t-8 -34.5t-11 -31h88q-6 14 -11 31t-8 34.5t-4.5 34.5t-1.5 30q0 31 18.5 48t50.5 17q10 0 21.5 -5t19.5 -11q30 -23 52.5 -33.5t51.5 -10.5q18 0 34 6.5t29 20t20.5 33t7.5 45.5q0 48 -24.5 75t-66.5 27
q-27 0 -49.5 -3t-47.5 -9q-9 -2 -20 -5t-17 -3q-24 0 -37 16.5t-13 39.5q0 25 23 59q17 26 27 55t10 62q0 48 -30.5 80t-78.5 32z" />
    <glyph glyph-name="club" unicode="&#x2663;" 
d="M569 -102h-238q-39 0 -39 28q0 7 2 14t4 11q17 31 30.5 70.5t16.5 72.5q-29 -28 -64 -43.5t-75 -15.5q-38 0 -73 13.5t-61 39t-41.5 62t-15.5 81.5t14.5 80.5t40 59.5t60.5 37t76 13q30 0 54 -5.5t53 -19.5q-43 35 -63 75.5t-20 94.5q0 37 14 70.5t41.5 59t69 40.5
t95.5 15t95.5 -15t69 -40.5t41.5 -59t14 -70.5q0 -54 -20 -94.5t-63 -75.5q29 14 53 19.5t54 5.5q41 0 76 -13t60.5 -37t40 -59.5t14.5 -80.5t-15.5 -81.5t-42 -62t-61 -39t-72.5 -13.5q-40 0 -75 15.5t-64 43.5q3 -33 16.5 -72.5t30.5 -70.5q2 -4 4 -11t2 -14
q0 -28 -39 -28z" />
    <glyph glyph-name="uni2299" unicode="&#x2299;" 
d="M760 312q0 68 -24 125t-65.5 98.5t-98 64.5t-122.5 23t-122.5 -23t-98 -64.5t-65.5 -98.5t-24 -125t24 -125.5t65.5 -98.5t98 -64t122.5 -23t122.5 23t98 64t65.5 98.5t24 125.5zM864 312q0 -91 -32.5 -164.5t-89 -125.5t-132 -80t-160.5 -28q-86 0 -161 28t-131.5 80
t-89 125.5t-32.5 164.5t32.5 164.5t89 125.5t131.5 80t161 28q85 0 160.5 -28t132 -80t89 -125.5t32.5 -164.5zM653 312q0 -44 -16 -81t-43.5 -64t-64.5 -42t-79 -15t-79 15t-64.5 42t-43.5 64t-16 81t16 81t43.5 64t64.5 42t79 15t79 -15t64.5 -42t43.5 -64t16 -81z" />
    <glyph glyph-name="uni2299" unicode="&#x25c9;" 
d="M760 312q0 68 -24 125t-65.5 98.5t-98 64.5t-122.5 23t-122.5 -23t-98 -64.5t-65.5 -98.5t-24 -125t24 -125.5t65.5 -98.5t98 -64t122.5 -23t122.5 23t98 64t65.5 98.5t24 125.5zM864 312q0 -91 -32.5 -164.5t-89 -125.5t-132 -80t-160.5 -28q-86 0 -161 28t-131.5 80
t-89 125.5t-32.5 164.5t32.5 164.5t89 125.5t131.5 80t161 28q85 0 160.5 -28t132 -80t89 -125.5t32.5 -164.5zM653 312q0 -44 -16 -81t-43.5 -64t-64.5 -42t-79 -15t-79 15t-64.5 42t-43.5 64t-16 81t16 81t43.5 64t64.5 42t79 15t79 -15t64.5 -42t43.5 -64t16 -81z" />
    <glyph glyph-name="uni25C8" unicode="&#x25c8;" 
d="M888 312l-438 -438l-438 438l438 439zM767 312l-317 318l-317 -318l317 -317zM229 312l221 222l221 -222l-221 -221z" />
    <glyph glyph-name="uni25A3" unicode="&#x25a3;" 
d="M826 -51h-752v728h752v-728zM720 38v550h-540v-550h540zM258 120v386h384v-386h-384z" />
    <glyph glyph-name="uni25D0" unicode="&#x25d0;" 
d="M755 312q0 67 -23 123t-63.5 97t-96.5 64t-122 23v-614q66 0 122 23t96.5 64t63.5 97t23 123zM864 312q0 -88 -31.5 -161.5t-87 -126t-131 -81.5t-164.5 -29t-164.5 29t-131 81.5t-87 126t-31.5 161.5t31.5 161.5t87 126t131 81.5t164.5 29t164.5 -29t131 -81.5t87 -126
t31.5 -161.5z" />
    <glyph glyph-name="uni25D1" unicode="&#x25d1;" 
d="M450 619q-66 0 -122 -23t-96.5 -64t-63.5 -97t-23 -123t23 -123t63.5 -97t96.5 -64t122 -23v614zM864 312q0 -88 -31.5 -161.5t-87 -126t-131 -81.5t-164.5 -29t-164.5 29t-131 81.5t-87 126t-31.5 161.5t31.5 161.5t87 126t131 81.5t164.5 29t164.5 -29t131 -81.5
t87 -126t31.5 -161.5z" />
    <glyph glyph-name="shade" unicode="&#x2592;" 
d="M110 720q0 -20 -14 -33.5t-34 -13.5t-33.5 13.5t-13.5 33.5t13.5 34t33.5 14t34 -14t14 -34zM239 720q0 -20 -14 -33.5t-34 -13.5t-33.5 13.5t-13.5 33.5t13.5 34t33.5 14t34 -14t14 -34zM368 720q0 -20 -14 -33.5t-34 -13.5t-33.5 13.5t-13.5 33.5t13.5 34t33.5 14
t34 -14t14 -34zM497 720q0 -20 -14 -33.5t-34 -13.5t-33.5 13.5t-13.5 33.5t13.5 34t33.5 14t34 -14t14 -34zM626 720q0 -20 -14 -33.5t-34 -13.5t-33.5 13.5t-13.5 33.5t13.5 34t33.5 14t34 -14t14 -34zM755 720q0 -20 -14 -33.5t-34 -13.5t-33.5 13.5t-13.5 33.5t13.5 34
t33.5 14t34 -14t14 -34zM884 720q0 -20 -14 -33.5t-34 -13.5t-33.5 13.5t-13.5 33.5t13.5 34t33.5 14t34 -14t14 -34zM110 584q0 -20 -14 -33.5t-34 -13.5t-33.5 13.5t-13.5 33.5t13.5 34t33.5 14t34 -14t14 -34zM239 584q0 -20 -14 -33.5t-34 -13.5t-33.5 13.5t-13.5 33.5
t13.5 34t33.5 14t34 -14t14 -34zM368 584q0 -20 -14 -33.5t-34 -13.5t-33.5 13.5t-13.5 33.5t13.5 34t33.5 14t34 -14t14 -34zM497 584q0 -20 -14 -33.5t-34 -13.5t-33.5 13.5t-13.5 33.5t13.5 34t33.5 14t34 -14t14 -34zM626 584q0 -20 -14 -33.5t-34 -13.5t-33.5 13.5
t-13.5 33.5t13.5 34t33.5 14t34 -14t14 -34zM755 584q0 -20 -14 -33.5t-34 -13.5t-33.5 13.5t-13.5 33.5t13.5 34t33.5 14t34 -14t14 -34zM884 584q0 -20 -14 -33.5t-34 -13.5t-33.5 13.5t-13.5 33.5t13.5 34t33.5 14t34 -14t14 -34zM110 448q0 -20 -14 -33.5t-34 -13.5
t-33.5 13.5t-13.5 33.5t13.5 34t33.5 14t34 -14t14 -34zM239 448q0 -20 -14 -33.5t-34 -13.5t-33.5 13.5t-13.5 33.5t13.5 34t33.5 14t34 -14t14 -34zM368 448q0 -20 -14 -33.5t-34 -13.5t-33.5 13.5t-13.5 33.5t13.5 34t33.5 14t34 -14t14 -34zM497 448q0 -20 -14 -33.5
t-34 -13.5t-33.5 13.5t-13.5 33.5t13.5 34t33.5 14t34 -14t14 -34zM626 448q0 -20 -14 -33.5t-34 -13.5t-33.5 13.5t-13.5 33.5t13.5 34t33.5 14t34 -14t14 -34zM755 448q0 -20 -14 -33.5t-34 -13.5t-33.5 13.5t-13.5 33.5t13.5 34t33.5 14t34 -14t14 -34zM884 448
q0 -20 -14 -33.5t-34 -13.5t-33.5 13.5t-13.5 33.5t13.5 34t33.5 14t34 -14t14 -34zM110 312q0 -20 -14 -33.5t-34 -13.5t-33.5 13.5t-13.5 33.5t13.5 34t33.5 14t34 -14t14 -34zM239 312q0 -20 -14 -33.5t-34 -13.5t-33.5 13.5t-13.5 33.5t13.5 34t33.5 14t34 -14t14 -34z
M368 312q0 -20 -14 -33.5t-34 -13.5t-33.5 13.5t-13.5 33.5t13.5 34t33.5 14t34 -14t14 -34zM497 312q0 -20 -14 -33.5t-34 -13.5t-33.5 13.5t-13.5 33.5t13.5 34t33.5 14t34 -14t14 -34zM626 312q0 -20 -14 -33.5t-34 -13.5t-33.5 13.5t-13.5 33.5t13.5 34t33.5 14t34 -14
t14 -34zM755 312q0 -20 -14 -33.5t-34 -13.5t-33.5 13.5t-13.5 33.5t13.5 34t33.5 14t34 -14t14 -34zM884 312q0 -20 -14 -33.5t-34 -13.5t-33.5 13.5t-13.5 33.5t13.5 34t33.5 14t34 -14t14 -34zM110 175q0 -20 -14 -33.5t-34 -13.5t-33.5 13.5t-13.5 33.5t13.5 34t33.5 14
t34 -14t14 -34zM239 175q0 -20 -14 -33.5t-34 -13.5t-33.5 13.5t-13.5 33.5t13.5 34t33.5 14t34 -14t14 -34zM368 175q0 -20 -14 -33.5t-34 -13.5t-33.5 13.5t-13.5 33.5t13.5 34t33.5 14t34 -14t14 -34zM497 175q0 -20 -14 -33.5t-34 -13.5t-33.5 13.5t-13.5 33.5t13.5 34
t33.5 14t34 -14t14 -34zM626 175q0 -20 -14 -33.5t-34 -13.5t-33.5 13.5t-13.5 33.5t13.5 34t33.5 14t34 -14t14 -34zM755 175q0 -20 -14 -33.5t-34 -13.5t-33.5 13.5t-13.5 33.5t13.5 34t33.5 14t34 -14t14 -34zM884 175q0 -20 -14 -33.5t-34 -13.5t-33.5 13.5t-13.5 33.5
t13.5 34t33.5 14t34 -14t14 -34zM110 39q0 -20 -14 -33.5t-34 -13.5t-33.5 13.5t-13.5 33.5t13.5 34t33.5 14t34 -14t14 -34zM239 39q0 -20 -14 -33.5t-34 -13.5t-33.5 13.5t-13.5 33.5t13.5 34t33.5 14t34 -14t14 -34zM368 39q0 -20 -14 -33.5t-34 -13.5t-33.5 13.5
t-13.5 33.5t13.5 34t33.5 14t34 -14t14 -34zM497 39q0 -20 -14 -33.5t-34 -13.5t-33.5 13.5t-13.5 33.5t13.5 34t33.5 14t34 -14t14 -34zM626 39q0 -20 -14 -33.5t-34 -13.5t-33.5 13.5t-13.5 33.5t13.5 34t33.5 14t34 -14t14 -34zM755 39q0 -20 -14 -33.5t-34 -13.5
t-33.5 13.5t-13.5 33.5t13.5 34t33.5 14t34 -14t14 -34zM884 39q0 -20 -14 -33.5t-34 -13.5t-33.5 13.5t-13.5 33.5t13.5 34t33.5 14t34 -14t14 -34zM110 -97q0 -20 -14 -33.5t-34 -13.5t-33.5 13.5t-13.5 33.5t13.5 34t33.5 14t34 -14t14 -34zM239 -97q0 -20 -14 -33.5
t-34 -13.5t-33.5 13.5t-13.5 33.5t13.5 34t33.5 14t34 -14t14 -34zM368 -97q0 -20 -14 -33.5t-34 -13.5t-33.5 13.5t-13.5 33.5t13.5 34t33.5 14t34 -14t14 -34zM497 -97q0 -20 -14 -33.5t-34 -13.5t-33.5 13.5t-13.5 33.5t13.5 34t33.5 14t34 -14t14 -34zM626 -97
q0 -20 -14 -33.5t-34 -13.5t-33.5 13.5t-13.5 33.5t13.5 34t33.5 14t34 -14t14 -34zM755 -97q0 -20 -14 -33.5t-34 -13.5t-33.5 13.5t-13.5 33.5t13.5 34t33.5 14t34 -14t14 -34zM884 -97q0 -20 -14 -33.5t-34 -13.5t-33.5 13.5t-13.5 33.5t13.5 34t33.5 14t34 -14t14 -34z
" />
    <glyph glyph-name="uni25A4" unicode="&#x25a4;" 
d="M860 -96h-819v819h819v-819zM797 616v44h-693v-44h693zM797 508v44h-693v-44h693zM797 400v44h-693v-44h693zM797 291v45h-693v-45h693zM797 183v44h-693v-44h693zM797 75v44h-693v-44h693zM797 -33v44h-693v-44h693z" />
    <glyph glyph-name="uni25A5" unicode="&#x25a5;" 
d="M860 723v-819h-819v819h819zM148 660h-44v-693h44v693zM256 660h-44v-693h44v693zM364 660h-44v-693h44v693zM473 660h-45v-693h45v693zM581 660h-44v-693h44v693zM689 660h-44v-693h44v693zM797 660h-44v-693h44v693z" />
    <glyph glyph-name="uni25A8" unicode="&#x25a8;" 
d="M41 723h819v-819h-819v819zM213 660h-109v-109zM399 660h-98l-197 -198v-94zM579 660h-99l-376 -374v-96zM751 660h-89l-558 -563v-84zM229 -33l568 564v87l-654 -651h86zM420 -33l377 376v101l-481 -477h104zM610 -33l187 187v100l-286 -287h99zM797 -33v101l-99 -101
h99z" />
    <glyph glyph-name="uni25A7" unicode="&#x25a7;" 
d="M860 -96h-819v819h819v-819zM797 551v109h-109zM797 368v94l-197 198h-98zM797 190v96l-376 374h-99zM797 13v84l-558 563h-89zM758 -33l-654 651v-87l568 -564h86zM585 -33l-481 477v-101l377 -376h104zM390 -33l-286 287v-100l187 -187h99zM203 -33l-99 101v-101h99z
" />
    <glyph glyph-name="uni25A6" unicode="&#x25a6;" 
d="M860 -96h-819v819h819v-819zM424 287h53v53h-53v-53zM208 287h52v53h-52v-53zM533 287h52v53h-52v-53zM477 -37v52h-53v-52h53zM801 287v53h-52v-53h52zM477 664h-53v-52h53v52zM641 287h52v53h-52v-53zM100 287h52v53h-52v-53zM316 287h52v53h-52v-53zM424 179h53v52
h-53v-52zM424 504h53v52h-53v-52zM424 71h53v52h-53v-52zM424 396h53v52h-53v-52zM641 396h52v52h-52v-52zM801 664h-52v-52h52v52zM368 664h-52v-52h52v52zM801 396v52h-52v-52h52zM208 71h52v52h-52v-52zM316 71h52v52h-52v-52zM801 504v52h-52v-52h52zM100 504h52v52h-52
v-52zM801 71v52h-52v-52h52zM100 71h52v52h-52v-52zM100 396h52v52h-52v-52zM749 15v-52h52v52h-52zM533 -37h52v52h-52v-52zM100 179h52v52h-52v-52zM801 179v52h-52v-52h52zM533 396h52v52h-52v-52zM208 396h52v52h-52v-52zM208 179h52v52h-52v-52zM316 504h52v52h-52v-52
zM641 179h52v52h-52v-52zM152 664h-52v-52h52v52zM585 664h-52v-52h52v52zM208 -37h52v52h-52v-52zM533 71h52v52h-52v-52zM533 504h52v52h-52v-52zM260 664h-52v-52h52v52zM693 664h-52v-52h52v52zM316 179h52v52h-52v-52zM316 396h52v52h-52v-52zM533 179h52v52h-52v-52z
M152 -37v52h-52v-52h52zM641 504h52v52h-52v-52zM368 -37v52h-52v-52h52zM693 -37v52h-52v-52h52zM641 71h52v52h-52v-52zM208 504h52v52h-52v-52z" />
    <glyph glyph-name="uni25A9" unicode="&#x25a9;" 
d="M860 -96h-819v819h819v-819zM394 45l56 -55l56 55l-56 55zM668 317l56 -55l52 52l-55 55zM176 262l56 55l-53 52l-55 -55zM450 533l53 52l-53 53l-53 -53zM490 139l56 -55l49 49l-56 55zM355 84l56 56l-49 48l-56 -55zM267 172l55 55l-49 49l-55 -56zM578 227l56 -55
l48 48l-55 56zM629 534l52 52l-50 51l-52 -53zM539 444l53 53l-50 50l-53 -53zM272 534l50 50l-52 52l-50 -50zM361 445l50 49l-53 53l-50 -50zM271 356l50 49l-53 53l-49 -50zM587 43l54 -53l48 48l-53 54zM211 38l49 -48l53 53l-48 49zM629 356l52 52l-49 49l-53 -52z
M675 131l53 -54l48 48l-53 54zM172 77l54 54l-48 48l-54 -54zM130 496l52 -51l50 49l-52 52zM719 445l51 52l-49 49l-52 -52zM312 315l50 -48l49 49l-49 49zM401 405l49 -50l49 49l-49 50zM450 179l50 49l-49 49l-50 -50zM490 316l49 -49l49 48l-49 49zM142 406l-42 42v-84z
M540 622l43 42h-85zM801 364v84l-43 -42zM360 622l43 42h-85zM394 -37l-41 41l-41 -41h82zM589 -37l-41 41l-41 -41h82zM139 586l-39 40v-79zM801 547v79l-40 -40zM179 626l38 38h-75zM721 626l38 38h-75zM801 186v72l-36 -37zM207 -37l-36 36l-36 -36h72zM766 -37l-37 36
l-35 -36h72zM136 222l-36 36v-72zM133 38l-33 34v-67zM801 5v67l-33 -34z" />
    <glyph glyph-name="uni2668" unicode="&#x2668;" 
d="M450 -128q-102 0 -181 14t-133.5 41t-83 65.5t-28.5 87.5q0 70 56 116.5t162 65.5v-30q-64 -18 -96 -46.5t-32 -73.5q0 -24 17.5 -46t57 -38.5t103.5 -26.5t158 -10t158 10t103.5 26.5t57 38.5t17.5 46q0 45 -32 73.5t-96 46.5v30q106 -19 162 -65.5t56 -116.5
q0 -49 -28.5 -87.5t-83 -65.5t-133.5 -41t-181 -14zM383 402q-15 30 -24 57t-9 53q0 20 3.5 40t11.5 41q7 19 13.5 34t14.5 32q12 26 15.5 52t3.5 52q0 10 9.5 11t14.5 -8q9 -17 14 -37.5t7 -52.5q2 -23 -1 -46t-8 -44q-5 -17 -6.5 -33t-1.5 -30q0 -18 9.5 -51.5t26.5 -69.5
q15 -30 24 -57t9 -53q0 -20 -3.5 -40t-11.5 -41q-7 -19 -13.5 -34t-14.5 -32q-12 -26 -15.5 -52t-3.5 -52q0 -10 -9.5 -11t-14.5 8q-9 17 -14 37.5t-7 52.5q-2 23 1 46t8 44q5 17 6.5 33t1.5 30q0 18 -9.5 51.5t-26.5 69.5zM241 399q-14 27 -23 51.5t-11 47.5q-2 37 10 72
q6 18 11 31.5t11 30.5q16 46 12 93q-1 9 7.5 11t13.5 -6q8 -17 14.5 -34.5t9.5 -46.5q5 -45 -4 -81q-3 -16 -5 -30t0 -27q2 -17 12 -46t27 -60q14 -27 23 -51.5t11 -47.5q2 -37 -10 -73q-6 -17 -10.5 -31t-11.5 -30q-9 -23 -11.5 -47t-0.5 -46q1 -9 -7.5 -11t-13.5 6
q-8 17 -14.5 34.5t-9.5 45.5q-2 22 -1 42t5 39q8 34 5 58q-2 17 -12 46t-27 60zM531 405q-11 26 -18.5 51t-5.5 48q3 40 17 72q7 17 14 30.5t15 28.5q22 43 22 92q0 9 9 9.5t13 -7.5q7 -17 10.5 -35t3.5 -47q0 -21 -3.5 -41.5t-8.5 -38.5q-5 -15 -6.5 -28.5t-3.5 -27.5
q-2 -17 5.5 -47.5t21.5 -64.5q11 -27 18.5 -51.5t5.5 -47.5q-3 -40 -17 -72q-7 -17 -14 -30.5t-15 -28.5q-22 -43 -22 -92q0 -9 -9 -10t-13 8q-7 17 -10.5 35t-3.5 47q0 21 3.5 41.5t8.5 38.5q5 15 6.5 28.5t3.5 27.5q2 17 -5.5 47.5t-21.5 64.5z" />
    <glyph glyph-name="uni260F" unicode="&#x260f;" 
d="M807 -28h-714q-20 0 -29.5 11t-9.5 28v24q0 13 9.5 26.5t37.5 21.5q0 112 79 179q23 20 38.5 34.5t23.5 25.5q36 44 45 88.5t9 100.5q-20 -5 -31 -11t-19 -14q-6 -7 -6 -17.5t3 -21.5l7 -28q11 -42 -29 -58l-126 -50q-28 -11 -51 4.5t-23 57.5q0 56 11.5 94t31.5 66
q52 71 145 106.5t241 35.5t241 -35.5t145 -106.5q20 -28 31.5 -66t11.5 -94q0 -42 -23 -57.5t-51 -4.5l-126 50q-40 16 -29 58l7 28q3 11 3 21.5t-6 17.5q-8 8 -19 14t-31 11q0 -56 9 -100.5t45 -88.5q8 -11 23.5 -25.5t38.5 -34.5q79 -67 79 -179q28 -8 37.5 -21.5
t9.5 -26.5v-24q0 -17 -9.5 -28t-29.5 -11zM533 420h-166v95h-20q0 -65 -13.5 -117.5t-55.5 -103.5q-7 -8 -26 -27t-51 -49q-51 -48 -51 -148q-44 -10 -44 -33v-4q0 -17 16 -17h656q16 0 16 17v4q0 23 -44 33q0 100 -51 148q-32 30 -51 49t-26 27q-42 51 -55.5 103.5
t-13.5 117.5h-20v-95zM450 55q-35 0 -64 10.5t-50 30t-32.5 47.5t-11.5 62t11.5 62t32.5 47.5t50 30t64 10.5q34 0 63 -10.5t50 -30t33 -47.5t12 -62t-12 -62t-33 -47.5t-50 -30t-63 -10.5zM450 631q-116 0 -197 -23.5t-119 -65.5q-30 -33 -45.5 -69.5t-15.5 -81.5
q0 -38 37 -24l69 29q13 5 18 14.5t0 23.5l-3 10q-4 14 -4.5 26t4.5 23q5 12 21 27t38 23q47 19 116 19q19 0 41 -7t40 -7t40 7t41 7q69 0 116 -19q22 -8 38 -23t21 -27q5 -11 4.5 -23t-4.5 -26l-3 -10q-5 -14 0 -23.5t18 -14.5l69 -29q37 -14 37 24q0 45 -15.5 81.5
t-45.5 69.5q-38 42 -119 65.5t-197 23.5zM450 101q48 0 76.5 29.5t28.5 74.5t-28.5 74.5t-76.5 29.5t-76.5 -29.5t-28.5 -74.5t28.5 -74.5t76.5 -29.5zM450 507q-7 0 -16 1.5t-22 6.5v-58h76v58q-13 -5 -22 -6.5t-16 -1.5z" />
    <glyph glyph-name="uni260E" unicode="&#x260e;" 
d="M807 -28h-714q-20 0 -29.5 11t-9.5 28v24q0 13 9.5 26.5t37.5 21.5q0 112 79 179q23 20 38.5 34.5t23.5 25.5q36 44 45 88.5t9 100.5q-20 -5 -31 -11t-19 -14q-6 -7 -6 -17.5t3 -21.5l7 -28q11 -42 -29 -58l-126 -50q-28 -11 -51 4.5t-23 57.5q0 56 11.5 94t31.5 66
q52 71 145 106.5t241 35.5t241 -35.5t145 -106.5q20 -28 31.5 -66t11.5 -94q0 -42 -23 -57.5t-51 -4.5l-126 50q-40 16 -29 58l7 28q3 11 3 21.5t-6 17.5q-8 8 -19 14t-31 11q0 -56 9 -100.5t45 -88.5q8 -11 23.5 -25.5t38.5 -34.5q79 -67 79 -179q28 -8 37.5 -21.5
t9.5 -26.5v-24q0 -17 -9.5 -28t-29.5 -11zM450 55q34 0 63 10.5t50 30t33 47.5t12 62t-12 62t-33 47.5t-50 30t-63 10.5q-35 0 -64 -10.5t-50 -30t-32.5 -47.5t-11.5 -62t11.5 -62t32.5 -47.5t50 -30t64 -10.5zM450 507q-7 0 -16 1.5t-22 6.5v-58h76v58q-13 -5 -22 -6.5
t-16 -1.5z" />
    <glyph glyph-name="uni261C" unicode="&#x261c;" 
d="M880 185h-119v22h-40q-24 -15 -54 -26t-64.5 -18.5t-71 -11.5t-72.5 -4q-31 0 -58 1t-44 3q-32 4 -47 16t-15 27q0 18 9 27q-33 7 -33 38q0 17 8 26q-32 8 -32 38q0 38 57 44q-52 1 -104 3.5t-103 9.5q-37 5 -51 15t-14 31q0 20 16.5 31.5t48.5 13.5q54 2 123 3t139 1h92
q48 0 81 -0.5t52 -4.5q37 -7 67 -20t53 -34q25 -7 58 -7v33h118v-257zM762 238v138h-21q-12 0 -16 1q5 -20 -5 -20q-3 0 -7 2.5t-10 10.5q-9 12 -22.5 24t-30.5 21q-26 14 -61 21t-90 7q-11 0 -19 2t-15 1q-17 -2 -34.5 -6t-31.5 -14q-11 -8 -23 -20t-20 -31q-5 -13 -1 -21
t15 -8q8 0 12.5 4.5t11.5 17.5q3 6 11 16.5t16 17.5q6 5 12 6t8 -1q5 -3 -1 -9q-5 -5 -7 -8q16 -3 36 -1t37 14q10 7 15 -2q3 -5 -1 -10.5t-12 -10.5q19 -25 47.5 -41t65.5 -24q9 -2 19.5 -3.5t20.5 -3.5q6 -1 10.5 -2.5t4.5 -6.5q0 -10 -19 -10q-12 0 -32.5 3.5t-37.5 8.5
q-32 9 -58.5 26t-44.5 40q-25 -5 -63 5l-3 -4q16 -2 30 -6q28 -7 28 -32q0 -21 -8 -32q28 -7 28 -31q0 -20 -9 -30q13 -3 19.5 -11t6.5 -19q0 -16 -8 -26q69 1 128 20t101 45q6 4 11 2q3 -3 3 -10h14zM378 442q-73 2 -146.5 1t-131.5 -3q-16 -1 -23.5 -3.5t-7.5 -10.5
q0 -10 9.5 -12.5t21.5 -4.5q48 -5 107.5 -7.5t125.5 -3.5q7 14 19 25t26 19zM812 215v197h-24v-197h24zM460 263q0 13 -18 15q-28 2 -58 2t-56 -2q-19 -1 -19 -15q0 -13 19 -14q27 -2 57 -2.5t56 1.5q19 1 19 15zM475 197q0 14 -19 16q-28 2 -52.5 2.5t-48.5 -1.5
q-8 -1 -14 -4t-6 -11t6 -10.5t14 -4.5q47 -8 99 -6q9 0 15 4t6 15zM435 326q0 11 -17 16q-3 1 -6.5 1.5t-8.5 0.5q-9 -22 -34 -22q-11 0 -21 6t-13 17q-8 0 -17 -0.5t-16 -2.5q-9 -2 -13.5 -6t-4.5 -12q0 -15 18 -16q10 -1 26 -1.5t33 0t32.5 1.5t24.5 2q17 2 17 16z
M849 207l-5 -3v-4l7 4l7 -4v4l-5 3v6l5 3v4l-7 -4l-7 4v-4l5 -3v-6z" />
    <glyph glyph-name="uni261E" unicode="&#x261e;" 
d="M20 442h118v-33q33 0 58 7q23 21 53 34t67 20q19 4 52 4.5t81 0.5h92q70 0 139 -1t123 -3q32 -2 48.5 -13.5t16.5 -31.5q0 -21 -14 -31t-51 -15q-51 -7 -103 -9.5t-104 -3.5q57 -6 57 -44q0 -30 -32 -38q8 -9 8 -26q0 -31 -33 -38q9 -9 9 -27q0 -15 -15 -27t-47 -16
q-17 -2 -44 -3t-58 -1q-36 0 -72.5 4t-71 11.5t-64.5 18.5t-54 26h-40v-22h-119v257zM152 238q0 7 3 10q5 2 11 -2q42 -26 101 -45t128 -20q-8 10 -8 26q0 11 6.5 19t19.5 11q-9 10 -9 30q0 24 28 31q-8 11 -8 32q0 25 28 32q13 4 30 6l-3 4q-38 -10 -63 -5
q-18 -23 -44.5 -40t-58.5 -26q-17 -5 -37.5 -8.5t-32.5 -3.5q-19 0 -19 10q0 5 4.5 6.5t10.5 2.5q10 2 20.5 3.5t19.5 3.5q37 8 65.5 24t47.5 41q-8 5 -12 10.5t-1 10.5q5 9 15 2q17 -12 37 -14t36 1q-2 3 -7 8q-6 6 -1 9q2 2 8 1t12 -6q8 -7 16 -17.5t11 -16.5
q7 -13 11.5 -17.5t12.5 -4.5q11 0 15 8t-1 21q-8 19 -20 31t-23 20q-14 10 -31.5 14t-34.5 6q-7 1 -15 -1t-19 -2q-55 0 -90 -7t-61 -21q-17 -9 -30.5 -21t-22.5 -24q-6 -8 -10 -10.5t-7 -2.5q-10 0 -5 20q-4 -1 -16 -1h-21v-138h14zM522 442q14 -8 26 -19t19 -25
q66 1 125.5 3.5t107.5 7.5q12 2 21.5 4.5t9.5 12.5q0 8 -7.5 10.5t-23.5 3.5q-58 2 -131.5 3t-146.5 -1zM112 215v197h-24v-197h24zM440 263q0 -14 19 -15q26 -2 56 -1.5t57 2.5q19 1 19 14q0 14 -19 15q-26 2 -56 2t-58 -2q-18 -2 -18 -15zM425 197q0 -11 6 -15t15 -4
q52 -2 99 6q8 2 14 4.5t6 10.5t-6 11t-14 4q-24 2 -48.5 1.5t-52.5 -2.5q-19 -2 -19 -16zM465 326q0 -14 17 -16q9 -1 24.5 -2t32.5 -1.5t33 0t26 1.5q18 1 18 16q0 8 -4.5 12t-13.5 6q-14 3 -33 3q-3 -11 -13 -17t-21 -6q-25 0 -34 22q-5 0 -8.5 -0.5t-6.5 -1.5
q-17 -5 -17 -16zM51 213l5 3v4l-7 -4l-7 4v-4l5 -3v-6l-5 -3v-4l7 4l7 -4v4l-5 3v6z" />
    <glyph glyph-name="paragraph" unicode="&#xb6;" horiz-adv-x="623" 
d="M373 -211h-112v501q-48 0 -88 16.5t-68.5 46t-44 71.5t-15.5 93t16 93t46 72t73 46.5t98 16.5h270v-956h-112v861h-63v-861z" />
    <glyph glyph-name="dagger" unicode="&#x2020;" horiz-adv-x="520" 
d="M37 526q27 -5 60.5 -7.5t60.5 -2.5h43v226h118v-226h176v-95h-176v-629h-118v629h-44q-32 0 -70 7t-67 20z" />
    <glyph glyph-name="daggerdbl" unicode="&#x2021;" horiz-adv-x="520" 
d="M37 526q27 -5 60.5 -7.5t60.5 -2.5h43v226h118v-226h176v-95h-176v-233h176v-95h-176v-301h-118v301h-176v95h176v233h-44q-32 0 -70 7t-67 20z" />
    <glyph glyph-name="arrowupdn" unicode="&#x2195;" horiz-adv-x="580" 
d="M340 -56l106 32l-156 -159l-156 159l106 -32v736l-106 -32l156 159l156 -159l-106 32v-736z" />
    <glyph glyph-name="uni2197" unicode="&#x2197;" 
d="M86 -180l-73 65l747 844l-102 47l222 16l12 -223l-59 95z" />
    <glyph glyph-name="uni2199" unicode="&#x2199;" 
d="M814 804l73 -65l-747 -844l102 -47l-222 -16l-12 223l59 -95z" />
    <glyph glyph-name="uni2196" unicode="&#x2196;" 
d="M67 664l-59 -95l12 223l222 -16l-102 -47l747 -844l-73 -65z" />
    <glyph glyph-name="uni2198" unicode="&#x2198;" 
d="M833 -40l59 95l-12 -223l-222 16l102 47l-747 844l73 65z" />
    <glyph glyph-name="uni266D" unicode="&#x266d;" horiz-adv-x="630" 
d="M528 272q0 -89 -30.5 -155.5t-83 -111t-123.5 -67t-151 -22.5v777h104v-366q20 42 55.5 66.5t83.5 24.5q69 0 107 -39t38 -107zM417 240q0 91 -63 91q-37 0 -68 -32.5t-45 -86.5v-211q40 9 72.5 30.5t55.5 53t35.5 71t12.5 84.5z" />
    <glyph glyph-name="uni2669" unicode="&#x2669;" horiz-adv-x="480" 
d="M339 123q0 -29 -3 -53.5t-8 -39.5q-5 -18 -14 -35.5t-25 -34.5q-24 -26 -57 -41.5t-71 -15.5q-28 0 -46 17t-18 46q0 58 43 101q27 27 58 42.5t68 21.5v587h73v-595z" />
    <glyph glyph-name="musicalnote" unicode="&#x266a;" horiz-adv-x="670" 
d="M339 123q0 -29 -3 -53.5t-8 -39.5q-5 -18 -14 -35.5t-25 -34.5q-24 -26 -57 -41.5t-71 -15.5q-28 0 -46 17t-18 46q0 58 43 101q27 27 58 42.5t68 21.5v577q0 11 5.5 17.5t15.5 6.5q9 0 17 -6t14 -14q14 -20 36.5 -43.5t52.5 -46.5q94 -73 138 -132.5t44 -120.5
q0 -42 -12 -75t-33 -65q-20 -29 -46 -57t-52 -49q-23 -18 -36 -18q-8 0 -12.5 5t-4.5 13q0 13 21 37q40 43 63.5 90.5t23.5 93.5q0 23 -12.5 45t-34.5 40t-51.5 31.5t-63.5 20.5v-358z" />
    <glyph glyph-name="uni266C" unicode="&#x266c;" 
d="M767 215q0 -32 -3.5 -55.5t-7.5 -37.5q-5 -18 -14 -35.5t-25 -34.5q-24 -26 -57 -41.5t-71 -15.5q-28 0 -46 17t-18 46q0 58 43 101q27 27 58 42.5t68 21.5v180l-368 -74v-206q0 -32 -3 -55.5t-8 -37.5q-5 -18 -14 -35.5t-25 -34.5q-24 -26 -57 -41.5t-71 -15.5
q-28 0 -46 17t-18 46q0 58 43 101q27 27 58 42.5t68 21.5v496l514 101v-513zM694 528v58l-368 -73v-59z" />
    <glyph glyph-name="uni327F" unicode="&#x327f;" 
d="M400 490v-129l111 129h130l-148 -161l148 -193h-125l-91 120l-25 -30v-90h-98v354h98zM756 425q-14 49 -42 89.5t-67.5 70t-89.5 45.5t-107 16q-63 0 -118.5 -21t-98.5 -59t-70.5 -90t-34.5 -113h106v-100h-211q-1 5 -1.5 11t-0.5 11v25q0 96 33 174.5t90.5 135t136 87
t169.5 30.5q77 0 144.5 -22t121 -62.5t92 -98t56.5 -129.5h-108zM144 201q13 -49 41.5 -89.5t68 -70t89.5 -45.5t107 -16q63 0 118.5 21t98.5 59t70.5 89.5t34.5 113.5h-106v100h211q1 -5 1.5 -11t0.5 -11v-25q0 -96 -33 -174.5t-90.5 -135t-136 -87t-169.5 -30.5
q-77 0 -144.5 21.5t-121 62t-92 98.5t-56.5 130h108z" />
    <glyph glyph-name="uni321C" unicode="&#x321c;" 
d="M223 614q14 -2 32 -3.5t33 -1.5h395v-91h-175v-9q0 -20 6 -35t24 -26q29 -19 73 -30t104 -18l-17 -92q-75 5 -141.5 25t-106.5 49q-40 -29 -106 -49t-141 -25l-18 92q60 7 103.5 18.5t72.5 29.5q17 11 24 26t7 35v9h-93q-22 0 -49 5.5t-43 13.5zM665 726l63 56
q81 -84 121.5 -193t40.5 -234v-86q0 -125 -40.5 -234t-121.5 -193l-63 56q128 154 128 371v86q0 217 -128 371zM235 726q-128 -154 -128 -371v-86q0 -217 128 -371l-63 -56q-81 84 -121.5 193t-40.5 234v86q0 125 40.5 234t121.5 193l63 -56v0zM167 262h566v-91h-226v-176
h-114v176h-226v91z" />
    <glyph glyph-name="afii61352" unicode="&#x2116;" 
d="M329 745h110v-745h-155l-110 449q-8 34 -15.5 77t-13.5 81v-607h-110v745h155l112 -449q4 -16 7.5 -36t7 -41t6.5 -41.5t6 -38.5v606zM867 0h-390v95h390v-95zM757 356q0 65 -21.5 100.5t-63.5 35.5t-63.5 -35.5t-21.5 -100.5t21.5 -100.5t63.5 -35.5t63.5 35.5
t21.5 100.5zM871 356q0 -113 -51.5 -171t-147.5 -58t-147.5 58t-51.5 171t51.5 171t147.5 58t147.5 -58t51.5 -171z" />
    <glyph glyph-name="uni33C7" unicode="&#x33c7;" 
d="M143 373q0 -153 35 -223t89 -70q71 0 120 32l37 -89q-33 -18 -72.5 -28t-84.5 -10q-122 0 -182 95.5t-60 292.5q0 196 60 291.5t182 95.5q38 0 75 -7t67 -21l-31 -92q-23 12 -52.5 18.5t-58.5 6.5q-54 0 -89 -69.5t-35 -222.5zM761 61q0 35 16.5 56t44.5 21t44.5 -21
t16.5 -56t-16.5 -56t-44.5 -21t-44.5 21t-16.5 56zM662 272q0 97 -18 145.5t-57 48.5t-57 -48.5t-18 -145.5t18 -145.5t57 -48.5t57 48.5t18 145.5zM778 272q0 -287 -191 -287t-191 287t191 287t191 -287z" />
    <glyph glyph-name="trademark" unicode="&#x2122;" horiz-adv-x="848" 
d="M23 771q17 -4 37 -5t36 -1h241v-89h-104v-296h-106v296h-23q-21 0 -49 7t-46 18zM494 573q-9 14 -18 32.5t-15 36.5v-262h-104v385h114l109 -180l109 180h114v-385h-104v262q-6 -18 -15 -36.5t-18 -32.5l-86 -135z" />
    <glyph glyph-name="uni33C2" unicode="&#x33c2;" 
d="M164 466q-11 0 -26.5 -5t-34.5 -16l-34 87q28 15 57.5 21t52.5 6q65 0 95 -33.5t30 -102.5v-423h-96l-4 19q-8 -17 -23 -25.5t-34 -8.5q-62 0 -96 47t-34 137t34 137t96 47q13 0 28.5 -2.5t24.5 -7.5v80q0 21 -9.5 32t-26.5 11zM164 78q36 0 36 49v124q-14 9 -36 9
q-17 0 -30 -19t-13 -72t13 -72t30 -19zM633 508q8 23 27 37t48 14q40 0 65.5 -27.5t25.5 -94.5v-437h-100v431q0 35 -23 35t-23 -35v-431h-98v431q0 35 -23 35t-23 -35v-431h-100v544h95l5 -22q8 17 23.5 27t32.5 10q26 0 44 -13.5t24 -37.5zM806 51q0 32 11.5 49.5
t32.5 17.5t32.5 -17.5t11.5 -49.5t-11.5 -49.5t-32.5 -17.5t-32.5 17.5t-11.5 49.5zM311 51q0 32 11.5 49.5t32.5 17.5t32.5 -17.5t11.5 -49.5t-11.5 -49.5t-32.5 -17.5t-32.5 17.5t-11.5 49.5z" />
    <glyph glyph-name="uni33D8" unicode="&#x33d8;" 
d="M633 508q8 23 27 37t48 14q40 0 65.5 -27.5t25.5 -94.5v-437h-100v431q0 35 -23 35t-23 -35v-431h-98v431q0 35 -23 35t-23 -35v-431h-100v544h95l5 -22q8 17 23.5 27t32.5 10q26 0 44 -13.5t24 -37.5zM806 51q0 32 11.5 49.5t32.5 17.5t32.5 -17.5t11.5 -49.5
t-11.5 -49.5t-32.5 -17.5t-32.5 17.5t-11.5 49.5zM313 51q0 32 11.5 49.5t32.5 17.5t32.5 -17.5t11.5 -49.5t-11.5 -49.5t-32.5 -17.5t-32.5 17.5t-11.5 49.5zM199 -15q-25 0 -45.5 8t-31.5 22v-226h-104v755h99l5 -31q11 21 31.5 33.5t45.5 12.5q70 0 103.5 -73.5
t33.5 -213.5t-33.5 -213.5t-103.5 -73.5zM174 78q35 0 46.5 46.5t11.5 147.5t-11.5 147.5t-46.5 46.5q-27 0 -39.5 -40.5t-12.5 -112.5v-82q0 -72 12.5 -112.5t39.5 -40.5z" />
    <glyph glyph-name="uni2121" unicode="&#x2121;" 
d="M22 754q24 -5 51 -7t50 -2h274v-95h-133v-650h-116v650h-26q-26 0 -58.5 6t-58.5 20zM603 6q-29 -7 -66 -10.5t-75 -3.5q-18 0 -37.5 1t-39 2.5t-37 4t-30.5 5.5v540h260v-95h-146v-127h136v-95h-136v-137q14 -2 35.5 -3t41.5 -1q23 0 48.5 2.5t45.5 6.5v-90zM892 6
q-23 -6 -58.5 -10t-67.5 -4q-16 0 -34.5 1t-36 3t-33.5 4t-28 5v540h116v-454q23 -4 63 -4q18 0 40.5 2.5t38.5 6.5v-90z" />
    <glyph glyph-name="uniFF01" unicode="&#xff01;" 
d="M398 170q-3 36 -5 78.5t-3.5 86.5t-2.5 85.5t-1 75.5v269h128v-269q0 -34 -1 -75.5t-2.5 -85.5t-3.5 -86.5t-5 -78.5h-104zM372 9q0 32 22 54.5t56 22.5t56 -22.5t22 -54.5t-22 -54.5t-56 -22.5t-56 22.5t-22 54.5z" />
    <glyph glyph-name="uniFF02" unicode="&#xff02;" 
d="M430 553h-118v258h118v-258zM588 553h-118v258h118v-258z" />
    <glyph glyph-name="uniFF03" unicode="&#xff03;" 
d="M587 755h117l-30 -184h93v-95h-108l-33 -207h101v-95h-116l-29 -184h-118l29 184h-149l-29 -184h-118l29 184h-92v95h108l33 207h-101v95h116l30 184h117l-30 -184h150zM359 269h150l33 207h-150z" />
    <glyph glyph-name="uniFF04" unicode="&#xff04;" 
d="M393 -110v107q-54 4 -106.5 20t-94.5 42l36 91q42 -21 86 -36.5t82 -20.5v268l-14 5q-47 17 -81.5 36t-57 42.5t-33 52.5t-10.5 67q0 75 47.5 123.5t145.5 59.5v92h114v-93q38 -4 78 -12t76 -19l-26 -97q-33 11 -66 19.5t-65 13.5v-230l14 -5q97 -35 139.5 -84t42.5 -128
q0 -81 -48 -134.5t-145 -68.5v-111h-114zM582 204q0 45 -18 73.5t-51 40.5l-9 3v-223q78 22 78 106zM318 564q0 -40 17 -63.5t46 -34.5l15 -6v190q-41 -9 -59.5 -31.5t-18.5 -54.5z" />
    <glyph glyph-name="uniFF05" unicode="&#xff05;" 
d="M299 -10h-120l422 765h120zM307 562q0 45 -23 72.5t-64 27.5t-64 -27.5t-23 -72.5t23 -72.5t64 -27.5t64 27.5t23 72.5zM423 562q0 -44 -15 -79.5t-41.5 -61t-64 -39t-82.5 -13.5t-82.5 13.5t-64 39t-41.5 61t-15 79.5t15 79.5t41.5 61t64 39t82.5 13.5t82.5 -13.5
t64 -39t41.5 -61t15 -79.5zM767 183q0 45 -23 72.5t-64 27.5t-64 -27.5t-23 -72.5t23 -72.5t64 -27.5t64 27.5t23 72.5zM883 183q0 -44 -15 -79.5t-41.5 -61t-64 -39t-82.5 -13.5t-82.5 13.5t-64 39t-41.5 61t-15 79.5t15 79.5t41.5 61t64 39t82.5 13.5t82.5 -13.5t64 -39
t41.5 -61t15 -79.5z" />
    <glyph glyph-name="uniFF06" unicode="&#xff06;" 
d="M614 92q-53 -55 -108 -81t-122 -26q-109 0 -173.5 51.5t-64.5 148.5q0 60 32.5 108t100.5 90l44 27q-47 52 -69 93.5t-22 84.5q0 78 51.5 125t148.5 47t148.5 -47t51.5 -125q0 -48 -25.5 -84.5t-83.5 -72.5l-57 -35l146 -160l61 68h125l-121 -140l150 -164h-128zM384 80
q44 0 80 14.5t63 45.5l21 24l-165 180l-50 -31q-33 -20 -51 -51.5t-18 -76.5q0 -48 32 -76.5t88 -28.5zM350 588q0 -16 2 -30t8 -28.5t17 -31t29 -36.5l62 39q23 15 34.5 36t11.5 51t-22 53.5t-60 23.5t-60 -23.5t-22 -53.5z" />
    <glyph glyph-name="uniFF07" unicode="&#xff07;" 
d="M509 553h-118v258h118v-258z" />
    <glyph glyph-name="uniFF08" unicode="&#xff08;" 
d="M745 252q0 -112 31 -209.5t94 -171.5l-69 -57q-84 81 -129 193t-45 245v120q0 133 45 245t129 193l69 -57q-63 -74 -94 -171.5t-31 -209.5v-120z" />
    <glyph glyph-name="uniFF09" unicode="&#xff09;" 
d="M155 372q0 112 -31 209.5t-94 171.5l69 57q84 -81 129 -193t45 -245v-120q0 -133 -45 -245t-129 -193l-69 57q63 74 94 171.5t31 209.5v120z" />
    <glyph glyph-name="uniFF0A" unicode="&#xff0a;" 
d="M622 649l-54 -17q-18 -7 -40 -12q6 -7 12.5 -14.5t12.5 -15.5l35 -48l-82 -59l-33 46q-7 8 -12.5 17t-10.5 18q-5 -8 -10.5 -16.5t-11.5 -16.5l-34 -48l-82 59l34 46q11 16 26 33q-10 2 -19.5 4.5t-18.5 5.5l-56 18l31 96l54 -18q10 -4 19.5 -7t19.5 -8q-2 10 -2 20v20
v59h100v-57q0 -11 -0.5 -21.5t-1.5 -20.5q9 4 18 7.5t19 7.5l57 18z" />
    <glyph glyph-name="uniFF0B" unicode="&#xff0b;" 
d="M180 431h211v221h118v-221h213v-95h-213v-230h-118v230h-211v95z" />
    <glyph glyph-name="uniFF0C" unicode="&#xff0c;" 
d="M25 9q0 33 22 55t56 22q35 0 55.5 -22t22.5 -55q1 -12 0.5 -24t-2.5 -26q-15 -102 -112 -157l-28 38q29 20 46 42.5t21 43.5l1 6h-4q-34 0 -56 22t-22 55z" />
    <glyph glyph-name="uniFF0D" unicode="&#xff0d;" 
d="M653 336h-406v95h406v-95z" />
    <glyph glyph-name="uniFF0E" unicode="&#xff0e;" 
d="M25 9q0 32 22 54.5t56 22.5t56 -22.5t22 -54.5t-22 -54.5t-56 -22.5t-56 22.5t-22 54.5z" />
    <glyph glyph-name="uniFF0F" unicode="&#xff0f;" 
d="M375 -70h-116l266 855h116z" />
    <glyph glyph-name="uniFF10" unicode="&#xff10;" 
d="M714 373q0 -194 -68.5 -290.5t-195.5 -96.5t-195.5 96.5t-68.5 290.5t68.5 290.5t195.5 96.5t195.5 -96.5t68.5 -290.5zM304 373q0 -146 38.5 -219t107.5 -73t107.5 73t38.5 219t-38.5 219t-107.5 73t-107.5 -73t-38.5 -219z" />
    <glyph glyph-name="uniFF11" unicode="&#xff11;" 
d="M406 745h114v-745h-118v617l-114 -73l-56 85z" />
    <glyph glyph-name="uniFF12" unicode="&#xff12;" 
d="M429 665q-39 0 -88 -12t-96 -35l-36 91q48 24 107 37.5t113 13.5q61 0 108 -16.5t78 -46.5t47 -71.5t16 -91.5q0 -71 -35.5 -132.5t-107.5 -127.5l-194 -179h353v-95h-494v95l237 219q60 55 91.5 107.5t31.5 112.5q0 27 -9 51t-26 41.5t-41.5 28t-54.5 10.5z" />
    <glyph glyph-name="uniFF13" unicode="&#xff13;" 
d="M249 122q48 -20 96 -31t88 -11q74 0 114 33.5t40 93.5q0 27 -9.5 51t-29.5 41.5t-51 28t-74 10.5h-114v95h114q73 0 108 33t35 85q0 51 -32.5 82.5t-97.5 31.5q-41 0 -87.5 -8.5t-89.5 -25.5l-31 91q49 20 101.5 29t106.5 9q126 0 187 -55t61 -154q0 -57 -26 -99t-77 -64
q57 -18 90.5 -66.5t33.5 -114.5q0 -108 -67.5 -165t-204.5 -57q-54 0 -111.5 11.5t-104.5 35.5z" />
    <glyph glyph-name="uniFF14" unicode="&#xff14;" 
d="M165 236l369 509h118v-509h95v-95h-95v-141h-118v141h-369v95zM534 236v361q-10 -23 -24 -48t-30 -46l-141 -193q-14 -18 -32.5 -39.5t-32.5 -34.5h260z" />
    <glyph glyph-name="uniFF15" unicode="&#xff15;" 
d="M429 -15q-56 0 -117 11.5t-106 32.5l28 89q48 -19 98 -28.5t97 -9.5q71 0 114 39.5t43 107.5t-43 107.5t-114 39.5q-59 0 -110.5 -6t-92.5 -17l39 389h390v-95h-281l-19 -182q15 3 35.5 4.5t38.5 1.5q132 0 203.5 -64.5t71.5 -177.5t-71.5 -177.5t-203.5 -64.5z" />
    <glyph glyph-name="uniFF16" unicode="&#xff16;" 
d="M469 760q51 0 98 -9t85 -23l-27 -90q-35 13 -75 20t-81 7q-37 0 -67 -18t-51 -50.5t-33 -78t-12 -99.5q25 24 65 40t84 16q60 0 108 -17t81.5 -49t51 -77.5t17.5 -101.5q0 -54 -19.5 -99.5t-54 -77.5t-81.5 -50t-103 -18q-99 0 -166 55.5t-87 161.5q-4 19 -6.5 42.5
t-4.5 47.5t-2.5 47.5t-0.5 42.5q1 97 22.5 168.5t58.5 118t88 69t112 22.5zM315 230q0 -35 10.5 -62.5t29.5 -47t44.5 -30t55.5 -10.5t55.5 10.5t44.5 30t29.5 47t10.5 62.5t-10.5 62.5t-29.5 47t-44.5 30t-55.5 10.5t-55.5 -10.5t-44.5 -30t-29.5 -47t-10.5 -62.5z" />
    <glyph glyph-name="uniFF17" unicode="&#xff17;" 
d="M199 740h511v-94l-272 -646h-121l271 645h-389v95z" />
    <glyph glyph-name="uniFF18" unicode="&#xff18;" 
d="M450 -25q-57 0 -105.5 14.5t-84 43t-55 70.5t-19.5 97q0 66 38 117t100 71q-49 18 -83 63.5t-34 106.5q0 47 16 86t47 67t76.5 43.5t103.5 15.5t103.5 -15.5t76.5 -43.5t47 -67t16 -86q0 -61 -34 -106.5t-83 -63.5q62 -20 100 -71t38 -117q0 -55 -19.5 -97t-55 -70.5
t-84 -43t-105.5 -14.5zM450 338q-35 0 -62.5 -11t-46 -29.5t-28 -43t-9.5 -50.5t9.5 -50.5t28 -43t46 -29.5t62.5 -11t62.5 11t46 29.5t28 43t9.5 50.5t-9.5 50.5t-28 43t-46 29.5t-62.5 11zM450 433q58 0 91.5 34.5t33.5 86.5t-33.5 86.5t-91.5 34.5t-91.5 -34.5
t-33.5 -86.5t33.5 -86.5t91.5 -34.5z" />
    <glyph glyph-name="uniFF19" unicode="&#xff19;" 
d="M421 -15q-51 0 -95.5 9t-82.5 23l26 90q34 -13 74 -20t78 -7q37 0 69 16.5t55 48t36 77t13 104.5q-25 -24 -65 -40t-84 -16q-56 0 -103.5 17t-82 48.5t-53.5 77t-19 102.5q0 55 18 100.5t52 77.5t81.5 49.5t106.5 17.5q106 0 170.5 -56t82.5 -161q3 -19 6 -42.5t5 -47.5
t2.5 -47.5t0.5 -42.5q-2 -96 -22.5 -167.5t-58 -118t-90.5 -69.5t-120 -23zM585 515q0 35 -10.5 62.5t-29.5 47t-44.5 30t-55.5 10.5t-55.5 -10.5t-44.5 -30t-29.5 -47t-10.5 -62.5t10.5 -62.5t29.5 -47t44.5 -30t55.5 -10.5t55.5 10.5t44.5 30t29.5 47t10.5 62.5z" />
    <glyph glyph-name="uniFF1A" unicode="&#xff1a;" 
d="M372 184q0 32 22 54.5t56 22.5t56 -22.5t22 -54.5t-22 -54.5t-56 -22.5t-56 22.5t-22 54.5zM372 566q0 32 22 54.5t56 22.5t56 -22.5t22 -54.5t-22 -54.5t-56 -22.5t-56 22.5t-22 54.5z" />
    <glyph glyph-name="uniFF1B" unicode="&#xff1b;" 
d="M372 184q0 33 22 55t56 22q35 0 55.5 -22t22.5 -55q1 -12 0.5 -24t-2.5 -26q-15 -102 -112 -157l-28 38q29 20 46 42.5t21 43.5l1 6h-4q-34 0 -56 22t-22 55zM372 566q0 32 22 54.5t56 22.5t56 -22.5t22 -54.5t-22 -54.5t-56 -22.5t-56 22.5t-22 54.5z" />
    <glyph glyph-name="uniFF1C" unicode="&#xff1c;" 
d="M383 373q27 -8 52.5 -16.5t45.5 -16.5l299 -126v-115l-660 274l660 274v-115l-299 -126q-20 -8 -45.5 -16.5t-52.5 -16.5z" />
    <glyph glyph-name="uniFF1D" unicode="&#xff1d;" 
d="M668 227h-436v95h436v-95zM668 445h-436v95h436v-95z" />
    <glyph glyph-name="uniFF1E" unicode="&#xff1e;" 
d="M517 373q-27 8 -52.5 16.5t-45.5 16.5l-299 126v115l660 -274l-660 -274v115l299 126q20 8 45.5 16.5t52.5 16.5z" />
    <glyph glyph-name="uniFF1F" unicode="&#xff1f;" 
d="M471 170h-106l-6 88q-2 32 7 55t32 43l102 87q29 26 44.5 57t15.5 76q0 48 -31.5 78.5t-87.5 30.5q-45 0 -91.5 -12t-93.5 -34l-35 92q48 23 104 36t119 13q114 0 174 -54.5t60 -149.5q0 -65 -25.5 -113.5t-83.5 -97.5l-73 -62q-18 -16 -19 -45zM339 9q0 32 22 54.5
t56 22.5t56 -22.5t22 -54.5t-22 -54.5t-56 -22.5t-56 22.5t-22 54.5z" />
    <glyph glyph-name="uniFF20" unicode="&#xff20;" 
d="M450 55q60 0 121.5 11t108.5 30l26 -85q-52 -21 -118 -33.5t-138 -12.5q-91 0 -168.5 28.5t-134.5 81.5t-89.5 128.5t-32.5 169.5t32.5 169.5t89.5 128t134.5 81t168.5 28.5t168.5 -27.5t134.5 -79t89.5 -125t32.5 -165.5q0 -54 -14.5 -97.5t-39.5 -74t-59 -47t-72 -16.5
q-50 0 -81 13.5t-51 34.5q-22 -21 -57.5 -34t-70.5 -13q-51 0 -91.5 16.5t-69 46t-44 70.5t-15.5 91q0 49 15.5 90.5t44 71t69 46t91.5 16.5q15 0 33 -3.5t35 -9t30.5 -13t20.5 -15.5l5 31h111v-307q0 -21 9.5 -31.5t26.5 -10.5q24 0 42.5 38.5t18.5 106.5q0 70 -22.5 126.5
t-63.5 96.5t-98.5 62t-127.5 22q-69 0 -126.5 -23.5t-98.5 -66t-64 -100.5t-23 -127q0 -68 23.5 -126t65 -101t98.5 -67t125 -24zM440 241q50 0 79.5 28t29.5 73v62q0 45 -29.5 73t-79.5 28q-51 0 -82.5 -37t-31.5 -95t31.5 -95t82.5 -37z" />
    <glyph glyph-name="uniFF21" unicode="&#xff21;" 
d="M515 745l263 -745h-120l-54 159h-307l-53 -159h-120l262 745h129zM451 631q-7 -29 -16.5 -62.5t-17.5 -56.5l-88 -258h242l-87 258q-8 23 -17 56.5t-16 62.5z" />
    <glyph glyph-name="uniFF22" unicode="&#xff22;" 
d="M467 -8q-30 0 -65.5 1t-70.5 2.5t-66.5 4t-52.5 5.5v740h254q127 0 189 -55.5t62 -152.5q0 -121 -101 -159q63 -17 95 -61t32 -111q0 -100 -67.5 -157t-208.5 -57zM625 206q0 60 -35.5 91t-106.5 31h-153v-235q58 -6 137 -6q83 0 120.5 29.5t37.5 89.5zM471 423
q63 0 95.5 28.5t32.5 85.5t-32.5 85t-95.5 28h-141v-227h141z" />
    <glyph glyph-name="uniFF23" unicode="&#xff23;" 
d="M237 373q0 -64 19.5 -117.5t55 -92.5t85.5 -61t111 -22q57 0 108 10.5t93 31.5l32 -90q-47 -21 -108 -34t-125 -13q-87 0 -158.5 27.5t-123 78t-79.5 122t-28 160.5q0 88 28 160t79.5 122t123 77.5t158.5 27.5q58 0 115.5 -10.5t102.5 -28.5l-29 -91q-43 17 -91.5 26
t-97.5 9q-61 0 -111 -21.5t-85.5 -60.5t-55 -92.5t-19.5 -117.5z" />
    <glyph glyph-name="uniFF24" unicode="&#xff24;" 
d="M785 369q0 -93 -26.5 -164t-75.5 -118t-120 -71t-159 -24q-32 0 -66.5 1t-67.5 2.5t-63 4t-51 5.5v740h248q88 0 159 -25t120 -73t75.5 -118t26.5 -160zM667 369q0 144 -70 212.5t-193 68.5h-130v-557q26 -4 62 -5t68 -1q123 0 193 69t70 213z" />
    <glyph glyph-name="uniFF25" unicode="&#xff25;" 
d="M704 6q-22 -4 -50 -6.5t-59.5 -4t-65 -2.5t-65.5 -1q-31 0 -65.5 1t-67.5 2.5t-62.5 4t-50.5 5.5v740h461v-95h-343v-227h333v-95h-333v-236q35 -3 81 -4t88 -1q19 0 43.5 0.5t51.5 1.5t53.5 2.5t50.5 4.5v-90z" />
    <glyph glyph-name="uniFF26" unicode="&#xff26;" 
d="M356 427h308v-95h-308v-332h-118v745h436v-95h-318v-223z" />
    <glyph glyph-name="uniFF27" unicode="&#xff27;" 
d="M454 425q27 -5 60.5 -7.5t60.5 -2.5h195v-415h-110l-6 42q-29 -26 -75 -41.5t-97 -15.5q-86 0 -157.5 26.5t-122.5 77t-79.5 122.5t-28.5 162t28 162t80 122t125.5 76.5t164.5 26.5q56 0 113 -9t105 -25l-27 -93q-47 15 -96.5 23.5t-94.5 8.5q-135 0 -207.5 -76.5
t-72.5 -215.5q0 -69 19 -123t54 -92t85 -58t112 -20q54 0 98 16.5t72 44.5v179h-78q-32 0 -70 7t-67 20z" />
    <glyph glyph-name="uniFF28" unicode="&#xff28;" 
d="M737 0h-118v346h-338v-346h-118v745h118v-304h338v304h118v-745z" />
    <glyph glyph-name="uniFF29" unicode="&#xff29;" 
d="M509 0h-118v745h118v-745z" />
    <glyph glyph-name="uniFF2A" unicode="&#xff2a;" 
d="M362 80q42 0 66 26t24 76v563h118v-563q0 -97 -54 -147t-154 -50q-35 0 -74 9t-69 26l32 87q26 -13 55 -20t56 -7z" />
    <glyph glyph-name="uniFF2B" unicode="&#xff2b;" 
d="M313 394l293 351h140l-218 -265q-19 -23 -42 -46t-43 -40q19 -17 42 -42t43 -50l238 -302h-140l-313 394v-394h-118v745h118v-351z" />
    <glyph glyph-name="uniFF2C" unicode="&#xff2c;" 
d="M706 6q-22 -3 -50.5 -6t-59.5 -4.5t-63.5 -2.5t-62.5 -1q-31 0 -63.5 1t-63.5 2.5t-57.5 4t-45.5 5.5v740h118v-653q32 -3 73 -4t84 -1q21 0 45.5 0.5t50 1.5t50 3t45.5 4v-90z" />
    <glyph glyph-name="uniFF2D" unicode="&#xff2d;" 
d="M232 531q-14 20 -28.5 44.5t-25.5 47.5v-623h-118v745h152l238 -343l238 343h152v-745h-118v623q-11 -23 -25.5 -47.5t-28.5 -44.5l-218 -312z" />
    <glyph glyph-name="uniFF2E" unicode="&#xff2e;" 
d="M619 745h118v-745h-163l-242 499q-12 26 -26.5 59t-24.5 59v-617h-118v745h163l244 -499q13 -26 27 -59.5t22 -57.5v616z" />
    <glyph glyph-name="uniFF2F" unicode="&#xff2f;" 
d="M734 373q0 63 -21.5 116.5t-59 92.5t-90 61t-113.5 22q-62 0 -114 -22t-89.5 -61t-59 -92.5t-21.5 -116.5t21.5 -116.5t59 -92.5t89.5 -61t114 -22q61 0 113.5 22t90 61t59 92.5t21.5 116.5zM852 373q0 -88 -29.5 -159.5t-82.5 -122t-127 -78t-163 -27.5t-163 27.5
t-127 78t-82.5 122t-29.5 159.5t29.5 159.5t82.5 122t127 78t163 27.5t163 -27.5t127 -78t82.5 -122t29.5 -159.5z" />
    <glyph glyph-name="uniFF30" unicode="&#xff30;" 
d="M214 0v745h261q118 0 186 -55.5t68 -166.5t-68 -166t-186 -55h-143v-302h-118zM475 397q63 0 99.5 31t36.5 95t-36.5 95.5t-99.5 31.5h-143v-253h143z" />
    <glyph glyph-name="uniFF31" unicode="&#xff31;" 
d="M852 373q0 -81 -25 -147.5t-71 -117.5l119 -120l-79 -76l-126 127q-47 -26 -102 -39.5t-118 -13.5q-89 0 -163 27.5t-127 78t-82.5 122t-29.5 159.5t29.5 159.5t82.5 122t127 78t163 27.5t163 -27.5t127 -78t82.5 -122t29.5 -159.5zM734 373q0 63 -21.5 116.5t-59 92.5
t-90 61t-113.5 22q-62 0 -114 -22t-89.5 -61t-59 -92.5t-21.5 -116.5t21.5 -116.5t59 -92.5t89.5 -61t114 -22q40 0 76 9.5t67 26.5l-106 109l79 75l110 -112q28 37 43 83.5t15 100.5z" />
    <glyph glyph-name="uniFF32" unicode="&#xff32;" 
d="M200 0v745h269q117 0 186.5 -54.5t69.5 -162.5q0 -77 -35.5 -125.5t-98.5 -71.5l160 -331h-128l-149 312h-156v-312h-118zM469 407q66 0 102 31.5t36 89.5t-36 90t-102 32h-151v-243h151z" />
    <glyph glyph-name="uniFF33" unicode="&#xff33;" 
d="M432 80q74 0 111.5 33t37.5 90q0 85 -82 117l-146 56q-76 29 -115 75.5t-39 118.5q0 86 59.5 138t183.5 52q54 0 111 -8.5t107 -25.5l-27 -97q-47 17 -95.5 26.5t-92.5 9.5q-68 0 -98 -27t-30 -68q0 -38 19.5 -65t52.5 -40l150 -58q84 -32 122 -80.5t38 -123.5
q0 -104 -68 -161t-202 -57q-60 0 -123.5 16t-114.5 46l40 91q49 -26 102.5 -42t98.5 -16z" />
    <glyph glyph-name="uniFF34" unicode="&#xff34;" 
d="M182 755q27 -5 60.5 -7.5t60.5 -2.5h424v-95h-217v-650h-118v650h-90q-32 0 -70 7t-67 20z" />
    <glyph glyph-name="uniFF35" unicode="&#xff35;" 
d="M450 -15q-67 0 -121 19.5t-92.5 56t-59 89.5t-20.5 120v475h118v-475q0 -89 47 -139.5t128 -50.5t128 50.5t47 139.5v475h118v-475q0 -67 -21 -120t-59 -89.5t-92 -56t-121 -19.5z" />
    <glyph glyph-name="uniFF36" unicode="&#xff36;" 
d="M385 0l-262 745h120l173 -512q8 -23 17.5 -56.5t16.5 -62.5q7 29 16 62.5t17 56.5l174 512h120l-263 -745h-129z" />
    <glyph glyph-name="uniFF37" unicode="&#xff37;" 
d="M511 745l117 -490q7 -29 14.5 -67t12.5 -68q5 30 12 68t13 67l97 490h120l-173 -745h-138l-117 486q-5 23 -10.5 54t-8.5 59q-3 -28 -8.5 -59t-10.5 -54l-117 -486h-138l-173 745h120l97 -490q6 -29 13 -67t12 -68q5 30 12.5 68t14.5 67l117 490h122z" />
    <glyph glyph-name="uniFF38" unicode="&#xff38;" 
d="M510 384q13 -16 27.5 -36.5t23.5 -34.5l207 -313h-129l-143 216q-10 15 -22.5 35.5t-23.5 38.5q-10 -18 -23 -38.5t-23 -35.5l-143 -216h-129l206 313q9 14 23.5 34.5t27.5 36.5q-13 17 -28 38t-25 36l-189 287h129l128 -194q10 -15 23 -36t23 -38q10 17 23 38t23 36
l128 194h129l-190 -287q-10 -15 -25 -36t-28 -38z" />
    <glyph glyph-name="uniFF39" unicode="&#xff39;" 
d="M754 745l-245 -421v-324h-118v324l-244 421h124l137 -239q9 -16 21 -39.5t21 -44.5q9 21 21 44.5t21 39.5l137 239h125z" />
    <glyph glyph-name="uniFF3A" unicode="&#xff3a;" 
d="M208 755q27 -5 60.5 -7.5t60.5 -2.5h373v-95l-322 -471q-14 -20 -33 -44.5t-34 -41.5q37 -4 86 -5t98 -1q46 0 104 2t111 7v-90q-23 -4 -53.5 -6.5t-65.5 -4t-72.5 -2.5t-74.5 -1q-36 0 -72 1t-69 2.5t-60.5 4t-46.5 5.5v92l327 476q11 17 27 39t28 38h-252q-32 0 -70 7
t-67 20z" />
    <glyph glyph-name="uniFF3B" unicode="&#xff3b;" 
d="M763 -83h107v-93h-223v976h223v-93h-107v-790z" />
    <glyph glyph-name="uniFFE6" unicode="&#xffe6;" 
d="M511 745l65 -317h110l54 317h119l-65 -314h95v-95h-115l-69 -336h-138l-69 339h-97l-68 -339h-138l-70 336h-114v95h95l-65 314h119l54 -317h110l65 317h122zM264 118l11.5 69t12.5 68l17 84h-76l14 -84q5 -29 11 -68t10 -69zM636 118q4 30 10 69t11 68l14 84h-76l17 -84
q6 -29 12.5 -68zM419 428h61l-11 58q-5 23 -10 54.5t-9 60.5q-4 -29 -9 -60.5t-10 -54.5z" />
    <glyph glyph-name="uniFF3D" unicode="&#xff3d;" 
d="M137 707h-107v93h223v-976h-223v93h107v790z" />
    <glyph glyph-name="uniFF3E" unicode="&#xff3e;" 
d="M451 732q-8 -23 -18.5 -47.5t-18.5 -40.5l-51 -101h-118l141 258h130l141 -258h-118l-51 101q-8 17 -18.5 41t-18.5 47z" />
    <glyph glyph-name="uniFF3F" unicode="&#xff3f;" 
d="M693 -185h-487v95h487v-95z" />
    <glyph glyph-name="uniFF40" unicode="&#xff40;" 
d="M550 553h-108l-93 258h138z" />
    <glyph glyph-name="uniFF41" unicode="&#xff41;" 
d="M468 466q-43 0 -90 -9t-95 -27l-30 93q48 17 106 26.5t109 9.5q116 0 178 -48.5t62 -146.5v-364h-108l-4 47q-26 -29 -68 -45.5t-95 -16.5q-107 0 -169.5 45t-62.5 139t62.5 139t169.5 45q38 0 79 -4t80 -12v27q0 48 -29.5 75t-94.5 27zM433 78q79 0 119 31.5t40 73.5v66
q-44 6 -84 8.5t-75 2.5q-58 0 -87 -23.5t-29 -67.5t29 -67.5t87 -23.5z" />
    <glyph glyph-name="uniFF42" unicode="&#xff42;" 
d="M465 -15q-59 0 -113 22.5t-83 59.5l-6 -67h-108v765h116v-288q12 18 33 33t47 26t55.5 17t58.5 6q70 0 125 -20.5t93 -58.5t58 -91t20 -117q0 -65 -20 -117.5t-58 -90.5t-93 -58.5t-125 -20.5zM455 78q41 0 75.5 13.5t60 39t40 61t14.5 80.5t-14.5 80.5t-40 61t-60 39
t-75.5 13.5q-39 0 -72.5 -13.5t-58 -36.5t-39 -54.5t-14.5 -68.5v-42q0 -37 14.5 -68.5t39 -55t58 -36.5t72.5 -13z" />
    <glyph glyph-name="uniFF43" unicode="&#xff43;" 
d="M495 559q40 0 81 -5t76 -15l-20 -92q-30 8 -66 13.5t-71 5.5q-44 0 -79.5 -14t-60.5 -39.5t-39 -61t-14 -79.5t14 -79.5t39 -61t60.5 -39.5t79.5 -14q40 0 78 6.5t70 19.5l24 -89q-37 -14 -80.5 -22t-91.5 -8q-71 0 -128 20t-97 57t-62 90.5t-22 119.5t22 119.5t62 90.5
t97 57t128 20z" />
    <glyph glyph-name="uniFF44" unicode="&#xff44;" 
d="M435 -15q-70 0 -125 20.5t-93 58.5t-58 90.5t-20 117.5q0 64 20 117t58 91t93 58.5t125 20.5q29 0 58.5 -6t55.5 -17t47 -26t33 -33v288h116v-765h-108l-6 67q-29 -37 -83 -59.5t-113 -22.5zM445 78q39 0 72.5 13t58 36.5t39 55t14.5 68.5v42q0 37 -14.5 68.5t-39 54.5
t-58 36.5t-72.5 13.5q-41 0 -75.5 -13.5t-60 -39t-40 -61t-14.5 -80.5t14.5 -80.5t40 -61t60 -39t75.5 -13.5z" />
    <glyph glyph-name="uniFF45" unicode="&#xff45;" 
d="M285 226q11 -78 60.5 -113t121.5 -35q48 0 93.5 14.5t86.5 40.5l44 -83q-42 -29 -102 -47t-122 -18q-66 0 -121.5 19t-95 55.5t-62 90t-22.5 122.5q0 66 20.5 119t58 90.5t89.5 57.5t116 20t116 -20t89.5 -57.5t58 -90.5t20.5 -119v-46h-449zM450 466q-67 0 -110.5 -37.5
t-54.5 -109.5h331q-2 30 -14 56.5t-33 47t-51 32t-68 11.5z" />
    <glyph glyph-name="uniFF46" unicode="&#xff46;" 
d="M288 553q22 -5 48.5 -7t49.5 -2v81q0 76 39 115.5t123 39.5q23 0 50 -4t47 -11l-20 -90q-15 5 -36.5 7.5t-40.5 2.5q-46 0 -46 -60v-81h112v-93h-112v-451h-116v451q-30 1 -60 7.5t-55 18.5z" />
    <glyph glyph-name="uniFF47" unicode="&#xff47;" 
d="M745 40q0 -58 -18.5 -105t-54.5 -80.5t-89 -52t-122 -18.5q-72 0 -137 14t-120 43l35 89q57 -27 114 -40t108 -13q81 0 124.5 42.5t43.5 120.5v38q-28 -40 -79.5 -61.5t-114.5 -21.5q-66 0 -120.5 20t-93.5 56.5t-60.5 88.5t-21.5 117q0 64 21.5 116.5t60.5 89t93.5 56.5
t120.5 20q31 0 61 -6t56 -17t46.5 -26.5t32.5 -33.5l5 68h109v-504zM445 88q37 0 70 13t58.5 35.5t40.5 53t15 66.5v42q0 36 -15.5 66.5t-41 53t-58.5 35.5t-69 13q-41 0 -75.5 -13t-60 -38t-40 -60t-14.5 -78q0 -44 14.5 -78.5t40 -59.5t60 -38t75.5 -13z" />
    <glyph glyph-name="uniFF48" unicode="&#xff48;" 
d="M324 491q18 29 56.5 48.5t84.5 19.5q118 0 178 -60t60 -166v-333h-116v333q0 59 -35.5 96t-96.5 37t-96 -37t-35 -96v-333h-116v765h116v-274z" />
    <glyph glyph-name="uniFF49" unicode="&#xff49;" 
d="M508 0h-116v544h116v-544zM372 690q0 32 22 54.5t56 22.5t56 -22.5t22 -54.5t-22 -54.5t-56 -22.5t-56 22.5t-22 54.5z" />
    <glyph glyph-name="uniFF4A" unicode="&#xff4a;" 
d="M534 -66q0 -73 -41 -111.5t-123 -38.5q-23 0 -48.5 4.5t-46.5 12.5l21 90q36 -12 74 -12q22 0 35 14t13 41v610h116v-610zM398 690q0 32 22 54.5t56 22.5t56 -22.5t22 -54.5t-22 -54.5t-56 -22.5t-56 22.5t-22 54.5z" />
    <glyph glyph-name="uniFF4B" unicode="&#xff4b;" 
d="M715 0h-136l-212 269v-269h-116v765h116v-496l203 275h130l-157 -216q-10 -14 -24 -29.5t-25 -26.5q11 -10 24.5 -24.5t24.5 -28.5z" />
    <glyph glyph-name="uniFF4C" unicode="&#xff4c;" 
d="M508 0h-116v765h116v-765z" />
    <glyph glyph-name="uniFF4D" unicode="&#xff4d;" 
d="M469 473q19 39 57 62.5t86 23.5q101 0 154.5 -51t53.5 -145v-363h-116v363q0 53 -25 83t-73 30t-73 -30t-25 -83v-363h-116v363q0 53 -25 83t-73 30t-73 -30t-25 -83v-363h-116v544h111l5 -49q16 27 49 45.5t67 18.5q66 0 104.5 -23.5t52.5 -62.5z" />
    <glyph glyph-name="uniFF4E" unicode="&#xff4e;" 
d="M323 491q18 29 56.5 48.5t84.5 19.5q118 0 178 -60t60 -166v-333h-116v333q0 59 -35.5 96t-96.5 37t-96 -37t-35 -96v-333h-116v544h111z" />
    <glyph glyph-name="uniFF4F" unicode="&#xff4f;" 
d="M636 272q0 42 -13 77.5t-37 61.5t-58.5 40.5t-77.5 14.5t-77.5 -14.5t-58.5 -40.5t-37 -61.5t-13 -77.5t13 -77.5t37 -61.5t58.5 -40.5t77.5 -14.5t77.5 14.5t58.5 40.5t37 61.5t13 77.5zM752 272q0 -65 -21.5 -117.5t-60.5 -90.5t-95 -58.5t-125 -20.5t-125 20.5
t-95 58.5t-60.5 90.5t-21.5 117.5q0 64 21.5 117t60.5 91t95 58.5t125 20.5t125 -20.5t95 -58.5t60.5 -91t21.5 -117z" />
    <glyph glyph-name="uniFF50" unicode="&#xff50;" 
d="M465 559q70 0 125 -20.5t93 -58.5t58 -91t20 -117q0 -65 -20 -117.5t-58 -90.5t-93 -58.5t-125 -20.5q-29 0 -58.5 6t-55.5 17t-47 26t-33 33v-278h-116v755h109l5 -67q29 37 83 59.5t113 22.5zM455 466q-39 0 -72.5 -13.5t-58 -36.5t-39 -54.5t-14.5 -68.5v-42
q0 -37 14.5 -68.5t39 -55t58 -36.5t72.5 -13q41 0 75.5 13.5t60 39t40 61t14.5 80.5t-14.5 80.5t-40 61t-60 39t-75.5 13.5z" />
    <glyph glyph-name="uniFF51" unicode="&#xff51;" 
d="M435 559q59 0 113 -22.5t83 -59.5l5 67h109v-755h-116v278q-12 -18 -33 -33t-47 -26t-55.5 -17t-58.5 -6q-70 0 -125 20.5t-93 58.5t-58 90.5t-20 117.5q0 64 20 117t58 91t93 58.5t125 20.5zM445 466q-41 0 -75.5 -13.5t-60 -39t-40 -61t-14.5 -80.5t14.5 -80.5t40 -61
t60 -39t75.5 -13.5q39 0 72.5 13t58 36.5t39 55t14.5 68.5v42q0 37 -14.5 68.5t-39 54.5t-58 36.5t-72.5 13.5z" />
    <glyph glyph-name="uniFF52" unicode="&#xff52;" 
d="M432 489q17 32 50.5 51t74.5 19q26 0 53 -2.5t49 -7.5l-20 -95q-20 5 -41 8.5t-41 3.5q-60 0 -92.5 -32.5t-32.5 -94.5v-339h-116v544h111z" />
    <glyph glyph-name="uniFF53" unicode="&#xff53;" 
d="M435 466q-31 0 -46.5 -14.5t-15.5 -36.5q0 -23 12 -38.5t30 -23.5l104 -46q63 -28 92 -67t29 -91q0 -75 -50 -119.5t-145 -44.5q-48 0 -99 13.5t-93 36.5l36 85q37 -20 77.5 -31t78.5 -11t58 19.5t20 51.5q0 55 -45 75l-104 46q-56 25 -86.5 59.5t-30.5 85.5
q0 31 10.5 57t32.5 45.5t55.5 30.5t79.5 11q41 0 87 -5.5t85 -16.5l-20 -92q-42 11 -80.5 16t-71.5 5z" />
    <glyph glyph-name="uniFF54" unicode="&#xff54;" 
d="M304 553q19 -4 41 -6t44 -3v191h116v-191h101v-93h-101v-331q0 -40 36 -40q11 0 26.5 4t29.5 9l26 -90q-16 -8 -37.5 -13t-44.5 -5q-72 0 -112 31.5t-40 103.5v332q-27 2 -53.5 8t-48.5 17z" />
    <glyph glyph-name="uniFF55" unicode="&#xff55;" 
d="M577 53q-18 -29 -56.5 -48.5t-84.5 -19.5q-118 0 -178 60t-60 166v333h116v-333q0 -59 35.5 -96t96.5 -37t96 37t35 96v333h116v-544h-111z" />
    <glyph glyph-name="uniFF56" unicode="&#xff56;" 
d="M450 99q5 27 13.5 60.5t16.5 59.5l100 325h110l-178 -544h-124l-178 544h110l100 -325q8 -26 16.5 -59.5t13.5 -60.5z" />
    <glyph glyph-name="uniFF57" unicode="&#xff57;" 
d="M251 205q6 -24 13.5 -55t12.5 -57q5 26 12.5 57.5t13.5 54.5l87 339h121l87 -339q7 -25 14 -55.5t12 -56.5q5 26 12.5 57.5t13.5 54.5l88 339h116l-164 -544h-132l-88 333q-5 20 -10.5 46.5t-9.5 49.5q-4 -23 -9.5 -49t-10.5 -47l-87 -333h-132l-164 544h116z" />
    <glyph glyph-name="uniFF58" unicode="&#xff58;" 
d="M509 283q13 -17 27.5 -37t25.5 -36l141 -210h-126l-90 134q-8 12 -18.5 28.5t-18.5 30.5q-8 -14 -18.5 -30.5t-18.5 -28.5l-90 -134h-126l141 210q11 16 25.5 36t27.5 37q-13 16 -27.5 36.5t-25.5 36.5l-126 188h126l75 -112q8 -12 18.5 -28.5t18.5 -30.5q8 14 18.5 30.5
t18.5 28.5l75 112h126l-126 -188q-11 -16 -25.5 -36.5t-27.5 -36.5z" />
    <glyph glyph-name="uniFF59" unicode="&#xff59;" 
d="M405 64l-199 480h122l104 -255q8 -20 17 -44t16 -44q6 21 15 44.5t17 43.5l105 255h120l-313 -755h-117z" />
    <glyph glyph-name="uniFF5A" unicode="&#xff5a;" 
d="M248 554q27 -5 60.5 -7.5t60.5 -2.5h273v-93l-227 -294q-11 -14 -27.5 -32.5t-32.5 -33.5q31 -3 66 -4.5t71 -1.5q71 0 160 9v-88q-20 -3 -45.5 -6t-54 -4.5t-57.5 -2.5t-56 -1q-26 0 -54 1t-55 3t-51 4t-41 5v90l230 298q10 12 24 29t26 29h-150q-32 0 -70 7t-67 20z
" />
    <glyph glyph-name="uniFF5B" unicode="&#xff5b;" 
d="M731 312q20 -9 31 -25.5t11 -42.5v-308q0 -19 17 -19h80v-93h-144q-33 0 -51 19t-18 52v323q0 43 -44 46l-34 2v92l34 2q44 3 44 46v323q0 33 18 52t51 19h144v-93h-80q-17 0 -17 -19v-308q0 -26 -11 -42.5t-31 -25.5z" />
    <glyph glyph-name="uniFF5C" unicode="&#xff5c;" 
d="M505 -191h-110v1006h110v-1006z" />
    <glyph glyph-name="uniFF5D" unicode="&#xff5d;" 
d="M169 312q-20 9 -31 25.5t-11 42.5v308q0 19 -17 19h-80v93h144q33 0 51 -19t18 -52v-323q0 -43 44 -46l34 -2v-92l-34 -2q-44 -3 -44 -46v-323q0 -33 -18 -52t-51 -19h-144v93h80q17 0 17 19v308q0 26 11 42.5t31 25.5z" />
    <glyph glyph-name="uniFFE3" unicode="&#xffe3;" 
d="M870 734h-840v95h840v-95z" />
    <glyph glyph-name="uni3131" unicode="&#x3131;" 
d="M151 576q27 -5 60.5 -7.5t60.5 -2.5h467v-259q0 -26 -1 -57t-2.5 -63.5t-4 -64.5t-5.5 -58l-116 10q5 53 8 114t3 109v174h-350q-32 0 -70 7t-67 20z" />
    <glyph glyph-name="uni3132" unicode="&#x3132;" 
d="M423 373q0 -33 -2.5 -71.5t-7.5 -79t-12 -81t-16 -77.5l-114 21q8 34 14 71.5t10.5 74.5t7 72t2.5 65v105h-86q-32 0 -70 7t-67 20l17 78q27 -5 60.5 -7.5t60.5 -2.5h203v-195zM787 356q0 -30 -1.5 -65.5t-4 -74t-6.5 -77.5t-10 -75l-116 13q5 35 9 72t6.5 73t3.5 69
t1 60v122h-202v95h320v-212z" />
    <glyph glyph-name="uni3133" unicode="&#x3133;" 
d="M396 566v-497h-118v402h-205v95h323zM753 67q-38 37 -74 84.5t-58 90.5q-21 -43 -57 -91t-78 -87l-81 73q22 20 43 44t39 48.5t32.5 48t22.5 42.5q17 40 17 84v162h118v-162q0 -43 19 -84q21 -45 57 -92t77 -87z" />
    <glyph glyph-name="uni3134" unicode="&#x3134;" 
d="M749 105q-26 -3 -60 -6t-73 -5.5t-79.5 -3.5t-78.5 -1q-37 0 -76 1t-76.5 3t-71.5 4.5t-62 6.5v470h118v-383q44 -4 100.5 -5.5t111.5 -1.5q30 0 63.5 0.5t66 2t62.5 3.5t55 5v-90z" />
    <glyph glyph-name="uni3135" unicode="&#x3135;" 
d="M769 84q-42 34 -82 78.5t-66 87.5q-25 -43 -64.5 -88.5t-84.5 -80.5l-77 79q25 19 48 41.5t42 45.5t34 45t23 41q17 40 17 81v60h-145v95h408v-95h-145v-60q0 -40 19 -81q9 -19 24 -40.5t34 -44t41 -44.5t45 -41zM388 103q-25 -7 -64 -10.5t-80 -3.5q-38 0 -76.5 3.5
t-64.5 10.5v456h118v-372q14 -2 31.5 -2.5t37.5 -0.5q23 0 51.5 2.5t46.5 6.5v-90z" />
    <glyph glyph-name="uni3136" unicode="&#x3136;" 
d="M370 525h175v106h118v-106h177v-95h-470v95zM408 101q-31 -6 -71 -9t-82 -3t-82 3t-68 9v458h118v-373q14 -2 35.5 -2h41.5t51 2t57 5v-90zM789 243q0 -37 -13.5 -67.5t-38 -52t-58.5 -33.5t-74 -12q-41 0 -74.5 12t-58 33.5t-38 52t-13.5 67.5t13.5 67.5t38 52t58 33.5
t74.5 12q40 0 74 -12t58.5 -33.5t38 -52t13.5 -67.5zM537 243q0 -28 17.5 -49t50.5 -21t50.5 21t17.5 49t-17.5 49t-50.5 21t-50.5 -21t-17.5 -49z" />
    <glyph glyph-name="uni3137" unicode="&#x3137;" 
d="M749 99q-26 -3 -61.5 -6t-75 -5.5t-80 -3.5t-75.5 -1t-74.5 1t-78.5 3t-74.5 4.5t-63.5 6.5v378q-45 8 -80 23l17 78q27 -5 60.5 -7.5t60.5 -2.5h520v-95h-460v-287q40 -4 97.5 -5.5t112.5 -1.5q30 0 64.5 0.5t68.5 2t65.5 3.5t56.5 5v-90z" />
    <glyph glyph-name="uni3138" unicode="&#x3138;" 
d="M53 579q27 -5 60.5 -7.5t60.5 -2.5h226v-95h-168v-298q17 -2 40.5 -3t47.5 -1q14 0 31 1t34 3.5t32.5 5t26.5 5.5v382h349v-95h-233v-293q26 -2 54 -3t49 -1q31 0 67.5 2.5t70.5 7.5v-91q-33 -7 -76.5 -10.5t-89.5 -3.5q-49 0 -101.5 3.5t-89.5 10.5q-31 -9 -77.5 -14
t-97.5 -5q-42 0 -83.5 4t-69.5 11v386q-45 8 -80 23z" />
    <glyph glyph-name="uni3139" unicode="&#x3139;" 
d="M769 85q-23 -3 -57 -6t-73.5 -5t-82.5 -3.5t-83 -1.5q-45 0 -89.5 1t-85.5 3.5t-76 5t-61 5.5v290h460v110h-335q-32 0 -70 7t-67 20l17 78q27 -5 60.5 -7.5t60.5 -2.5h452v-300h-460v-108q40 -3 99.5 -5t120.5 -2q34 0 71.5 1t73.5 2.5t68.5 3.5t56.5 4v-90z" />
    <glyph glyph-name="uni313A" unicode="&#x313a;" 
d="M785 579v-505h-118v410h-198v95h316zM477 84q-34 -7 -83.5 -11t-95.5 -4q-23 0 -47.5 0.5t-49 2t-46.5 4t-40 5.5v293h204v110h-204v95h320v-300h-202v-111q23 -2 50 -3t54 -1q32 0 72 2.5t68 7.5v-90z" />
    <glyph glyph-name="uni313B" unicode="&#x313b;" 
d="M637 69q-44 0 -89.5 3t-80.5 10v497h341v-496q-32 -6 -79.5 -10t-91.5 -4zM437 84q-34 -7 -77.5 -11t-89.5 -4q-45 0 -91 3t-81 9v293h211v110h-211v95h325v-300h-207v-111q20 -2 43.5 -3t50.5 -1q29 0 64 2.5t63 7.5v-90zM581 164h109v320h-109v-320z" />
    <glyph glyph-name="uni313C" unicode="&#x313c;" 
d="M635 69q-44 0 -90.5 3t-81.5 10v497h114v-156h112v156h118v-496q-32 -6 -80 -10t-92 -4zM433 84q-34 -7 -76.5 -11t-88.5 -4q-45 0 -90.5 3t-80.5 9v293h208v110h-208v95h322v-300h-204v-111q20 -2 43 -3t50 -1q29 0 63 2.5t62 7.5v-90zM689 164v164h-112v-164h112z" />
    <glyph glyph-name="uni313D" unicode="&#x313d;" 
d="M772 68q-37 37 -69.5 81.5t-52.5 86.5q-21 -42 -53.5 -86.5t-70.5 -84.5l-84 73q21 23 41.5 48.5t38 50.5t30.5 48t21 42q8 20 11.5 42.5t3.5 45.5v164h118v-164q0 -23 4.5 -45.5t12.5 -42.5q19 -46 53.5 -94.5t74.5 -90.5zM440 84q-34 -7 -77 -11t-89 -4q-45 0 -90 3
t-80 9v293h206v110h-206v95h322v-300h-204v-111q20 -2 42.5 -3t49.5 -1q29 0 63.5 2.5t62.5 7.5v-90z" />
    <glyph glyph-name="uni313E" unicode="&#x313e;" 
d="M443 579h370v-95h-216v-110h206v-95h-206v-112q18 -2 43.5 -2.5t52.5 -0.5q13 0 30 0.5t35 1.5t36.5 3t33.5 4v-90q-35 -7 -82 -10.5t-88 -3.5q-47 0 -94 3t-85 10v402h-36v95zM443 84q-31 -8 -78 -11.5t-90 -3.5q-22 0 -46 1t-48 2.5t-45.5 4t-37.5 5.5v292h215v110
h-215v95h331v-300h-213v-111q17 -2 41.5 -3t53.5 -1q30 0 66.5 2.5t65.5 7.5v-90z" />
    <glyph glyph-name="uni313F" unicode="&#x313f;" 
d="M840 484h-47v-316q16 1 29 2t23 3v-90q-17 -3 -41.5 -6t-52 -4.5t-55 -2.5t-49.5 -1t-50 1t-55.5 2.5t-52 4t-39.5 5.5v90q10 -2 22 -2.5t26 -1.5v316h-43v95h385v-95zM429 84q-32 -8 -74 -11.5t-87 -3.5t-94 3t-82 10v292h207v110h-207v95h323v-300h-205v-111
q15 -2 40.5 -3t49.5 -1q15 0 32 0.5t34.5 2t34 3.5t28.5 4v-90zM680 164v320h-71v-320h71z" />
    <glyph glyph-name="uni3140" unicode="&#x3140;" 
d="M414 84q-68 -15 -156 -15q-43 0 -87 3t-79 10v292h188v110h-188v95h304v-300h-186v-111q13 -2 34 -3t45 -1q29 0 64 2.5t61 7.5v-90zM411 512h155v106h118v-106h150v-95h-423v95zM812 226q0 -36 -12.5 -67.5t-36.5 -54t-58.5 -35.5t-79.5 -13t-79.5 13t-58.5 35.5
t-36.5 54t-12.5 67.5t12.5 67.5t36.5 54t58.5 35.5t79.5 13t79.5 -13t58.5 -35.5t36.5 -54t12.5 -67.5zM554 226q0 -32 19 -53.5t52 -21.5t52 21.5t19 53.5t-19 53.5t-52 21.5t-52 -21.5t-19 -53.5z" />
    <glyph glyph-name="uni3141" unicode="&#x3141;" 
d="M451 78q-37 0 -77 1t-78 2.5t-73 4t-62 5.5v479h578v-478q-27 -3 -61.5 -5.5t-72.5 -4.5t-77.5 -3t-76.5 -1zM451 173q41 0 84 0.5t86 2.5v299h-342v-300q44 -2 87 -2h85z" />
    <glyph glyph-name="uni3142" unicode="&#x3142;" 
d="M740 87q-27 -3 -61.5 -5.5t-73 -4.5t-78 -3t-76.5 -1t-77 1t-78.5 2.5t-73.5 4t-62 5.5v488h118v-150h344v150h118v-487zM451 168q41 0 84 0.5t87 2.5v158h-344v-159q44 -2 87.5 -2h85.5z" />
    <glyph glyph-name="uni3143" unicode="&#x3143;" 
d="M265 71q-21 0 -44 1t-45 2.5t-41.5 3.5t-34.5 5v493h116v-152h96v152h112v-492q-29 -6 -72.5 -9.5t-86.5 -3.5zM641 71q-21 0 -44 1t-45 2.5t-41.5 3.5t-34.5 5v493h112v-152h96v152h116v-492q-29 -6 -72.5 -9.5t-86.5 -3.5zM312 166v163h-96v-163h96zM684 166v163h-96
v-163h96z" />
    <glyph glyph-name="uni3144" unicode="&#x3144;" 
d="M218 576v-152h102v152h116v-490q-31 -6 -78 -10t-88 -4q-20 0 -43 1t-45.5 2.5t-44 4t-37.5 5.5v491h118zM779 70q-37 37 -69 81.5t-55 86.5q-22 -42 -55 -87t-72 -84l-84 74q22 21 42.5 46t38 50t31.5 48.5t22 43.5t11.5 42.5t3.5 45.5v159h118v-159q0 -23 4 -45.5
t13 -42.5q21 -46 55 -93.5t76 -89.5zM320 167v162h-102v-162h102z" />
    <glyph glyph-name="uni3145" unicode="&#x3145;" 
d="M450 284q-23 -29 -56 -59t-72.5 -58.5t-83.5 -53.5t-88 -42l-52 96q39 17 77 38t70 43t58 44t41 40q26 32 36 57t10 53v137h120v-137q0 -28 10 -53t36 -57q15 -18 41 -40t58 -44t70 -43t77 -38l-52 -96q-44 17 -88 42t-83.5 53.5t-73 58.5t-55.5 59z" />
    <glyph glyph-name="uni3146" unicode="&#x3146;" 
d="M450 56q-24 16 -48 38t-46.5 46.5t-42.5 50.5t-35 51q-13 -23 -31 -47.5t-38.5 -47.5t-42.5 -44t-43 -37l-75 80q21 18 42.5 39t40 43t34 43.5t25.5 40.5q15 29 21.5 55.5t6.5 53.5v160h120v-160q0 -27 5.5 -53t18.5 -55t37 -61.5t51 -58.5q27 26 51 58.5t37 61.5
t18.5 55t5.5 53v160h120v-160q0 -27 6.5 -53.5t21.5 -55.5q10 -19 25.5 -40.5t34 -43t40 -42.5t42.5 -39l-72 -81q-21 16 -43.5 37t-43.5 44t-39.5 47.5t-31.5 47.5q-15 -25 -35 -51t-42.5 -50.5t-46.5 -46.5t-48 -38z" />
    <glyph glyph-name="uni3147" unicode="&#x3147;" 
d="M727 326q0 -57 -19.5 -104.5t-55.5 -82t-87 -54t-115 -19.5t-115 19.5t-87 54t-55.5 82t-19.5 104.5t19.5 104.5t55.5 82t87 54t115 19.5t115 -19.5t87 -54t55.5 -82t19.5 -104.5zM291 326q0 -35 11.5 -65.5t32.5 -52.5t50 -34.5t65 -12.5t65 12.5t50 34.5t32.5 52.5
t11.5 65.5t-11.5 65.5t-32.5 52.5t-50 34.5t-65 12.5t-65 -12.5t-50 -34.5t-32.5 -52.5t-11.5 -65.5z" />
    <glyph glyph-name="uni3148" unicode="&#x3148;" 
d="M143 577q27 -5 60.5 -7.5t60.5 -2.5h493v-95h-247v-65q0 -32 8.5 -57.5t34.5 -53.5q32 -35 98.5 -73t147.5 -66l-42 -96q-43 13 -87.5 33.5t-85 44.5t-75.5 51t-59 53q-24 -26 -58.5 -53t-75 -51t-84.5 -44.5t-87 -33.5l-44 96q81 28 147.5 66t98.5 73q26 28 34.5 53.5
t8.5 57.5v65h-127q-32 0 -70 7t-67 20z" />
    <glyph glyph-name="uni3149" unicode="&#x3149;" 
d="M467 569h351v-95h-138v-81q0 -26 5.5 -49.5t20.5 -50.5q10 -18 25.5 -38t34.5 -39.5t40.5 -37.5t43.5 -34l-69 -88q-46 29 -88.5 71.5t-72.5 85.5q-31 -45 -76.5 -90.5t-93.5 -76.5q-48 31 -93.5 76.5t-76.5 90.5q-29 -43 -69.5 -85t-85.5 -72l-75 87q45 32 83.5 72
t60.5 78q14 25 20 49.5t6 50.5v81h-18q-32 0 -70 7t-67 20l17 78q27 -5 60.5 -7.5t60.5 -2.5h230v-95h-93v-81q0 -26 4.5 -49.5t16.5 -50.5q11 -26 36 -57.5t53 -55.5q28 23 53 55t36 58q12 27 16.5 50.5t4.5 49.5v81h-93v95z" />
    <glyph glyph-name="uni314A" unicode="&#x314a;" 
d="M509 528h269v-95h-268v-56q0 -29 11 -52.5t37 -46.5q19 -17 46.5 -34.5t60.5 -33t69 -29t71 -23.5l-34 -97q-43 10 -89 28t-89 40t-80.5 47t-62.5 51q-26 -26 -62.5 -51t-79 -47t-87.5 -40t-88 -28l-38 97q35 10 71 23.5t69 29t60.5 33t46.5 34.5q26 23 37 46.5t11 52.5
v56h-148q-32 0 -70 7t-67 20l17 78q27 -5 60.5 -7.5t60.5 -2.5h148v133h118v-133z" />
    <glyph glyph-name="uni314B" unicode="&#x314b;" 
d="M146 346h480v127h-345q-32 0 -70 7t-67 20l17 78q27 -5 60.5 -7.5t60.5 -2.5h462v-273q0 -26 -1 -57t-2.5 -63.5t-4 -64.5t-5.5 -58l-116 10q5 44 7.5 94t3.5 95h-480v95z" />
    <glyph glyph-name="uni314C" unicode="&#x314c;" 
d="M759 85q-26 -3 -62 -6t-76 -5.5t-81.5 -3.5t-77.5 -1t-76 1t-80 3t-76 4.5t-64 6.5v404q-45 8 -80 23l17 78q23 -5 50.5 -7t53.5 -3h537v-95h-460v-110h451v-95h-451v-108q20 -2 45.5 -3.5t54 -2t58 -1t57.5 -0.5q31 0 66.5 0.5t70 2t66.5 3.5t57 5v-90z" />
    <glyph glyph-name="uni314D" unicode="&#x314d;" 
d="M119 577q27 -5 60.5 -7.5t60.5 -2.5h546v-95h-120v-295q32 2 61.5 3.5t53.5 3.5v-90q-33 -4 -74 -7t-85.5 -5t-88.5 -3t-83 -1t-83 1t-88.5 3t-85.5 5t-74 7v90q23 -2 53 -3.5t62 -3.5v295q-32 1 -68 7.5t-64 19.5zM450 173h46t52 1v298h-196v-298q26 -1 51 -1h47z" />
    <glyph glyph-name="uni314E" unicode="&#x314e;" 
d="M690 207q0 -43 -15.5 -80.5t-45.5 -65t-75 -43.5t-104 -16t-104 16t-75 43.5t-45.5 65t-15.5 80.5t15.5 80t45.5 65t75 44t104 16t104 -16t75 -44t45.5 -65t15.5 -80zM94 543q27 -5 60.5 -7.5t60.5 -2.5h176v138h118v-138h300v-95h-595q-32 0 -70 7t-67 20zM328 207
q0 -46 32 -78t90 -32t90 32t32 78t-32 78t-90 32t-90 -32t-32 -78z" />
    <glyph glyph-name="uni314F" unicode="&#x314f;" 
d="M492 435h172v-95h-172v-432h-118v865h118v-338z" />
    <glyph glyph-name="uni3150" unicode="&#x3150;" 
d="M502 340h-105v-423h-115v853h115v-335h105v338h116v-865h-116v432z" />
    <glyph glyph-name="uni3151" unicode="&#x3151;" 
d="M492 570h172v-95h-172v-193h172v-95h-172v-279h-118v865h118v-203z" />
    <glyph glyph-name="uni3152" unicode="&#x3152;" 
d="M502 187h-105v-270h-115v853h115v-200h105v203h116v-865h-116v279zM397 282h105v193h-105v-193z" />
    <glyph glyph-name="uni3153" unicode="&#x3153;" 
d="M215 435h203v338h118v-865h-118v432h-203v95z" />
    <glyph glyph-name="uni3154" unicode="&#x3154;" 
d="M172 435h204v335h115v-853h-115v423h-204v95zM551 773h116v-865h-116v865z" />
    <glyph glyph-name="uni3155" unicode="&#x3155;" 
d="M220 570h203v203h118v-865h-118v279h-203v95h203v193h-203v95z" />
    <glyph glyph-name="uni3156" unicode="&#x3156;" 
d="M177 570h204v200h115v-853h-115v270h-204v95h204v193h-204v95zM556 773h116v-865h-116v865z" />
    <glyph glyph-name="uni3157" unicode="&#x3157;" 
d="M450 56q-52 0 -109 1t-111 2.5t-102.5 4t-82.5 5.5v90q31 -2 73 -3.5t88.5 -2.5t94 -1.5t90.5 -0.5v340h118v-340q43 0 90.5 1t93.5 2t88 3t74 4v-90q-35 -3 -83 -6t-102 -5t-111 -3t-109 -1z" />
    <glyph glyph-name="uni3158" unicode="&#x3158;" 
d="M785 436h114v-95h-114v-433h-118v865h118v-337zM336 56q-85 0 -165 3.5t-138 8.5v90q51 -3 117 -4.5t131 -2.5v340h118v-340q62 2 125 4t113 7v-90q-57 -8 -136.5 -12t-164.5 -4z" />
    <glyph glyph-name="uni3159" unicode="&#x3159;" 
d="M723 340h-60v-423h-115v853h115v-335h60v338h116v-865h-116v432zM285 57q-69 0 -135 3t-113 9v90q41 -3 90 -5t100 -2v339h118v-339q48 2 95 4.5t88 6.5v-90q-47 -7 -111 -11.5t-132 -4.5z" />
    <glyph glyph-name="uni315A" unicode="&#x315a;" 
d="M810 -92h-118v865h118v-865zM350 56q-88 0 -168 3.5t-137 8.5v90q51 -3 118 -4.5t135 -2.5v340h118v-340q67 2 132.5 4t113.5 7v-90q-27 -4 -62.5 -7t-76 -5t-84.5 -3t-89 -1z" />
    <glyph glyph-name="uni315B" unicode="&#x315b;" 
d="M450 56q-52 0 -109 1t-111 2.5t-102.5 4t-82.5 5.5v90q38 -2 89 -3.5t107 -3.5v339h118v-340h182v340h118v-338q56 1 107 3t89 5v-90q-35 -3 -83 -6t-102 -5t-111 -3t-109 -1z" />
    <glyph glyph-name="uni315C" unicode="&#x315c;" 
d="M45 306h810v-95h-346v-328h-118v328h-346v95z" />
    <glyph glyph-name="uni315D" unicode="&#x315d;" 
d="M810 -92h-118v171h-182v95h182v599h118v-865zM50 347h600v-95h-232v-354h-118v354h-250v95z" />
    <glyph glyph-name="uni315E" unicode="&#x315e;" 
d="M688 -83h-115v136h-129v95h129v622h115v-853zM723 773h116v-865h-116v865zM43 346h500v-95h-182v-353h-118v353h-200v95z" />
    <glyph glyph-name="uni315F" unicode="&#x315f;" 
d="M810 -92h-118v865h118v-865zM50 306h612v-95h-231v-313h-118v313h-263v95z" />
    <glyph glyph-name="uni3160" unicode="&#x3160;" 
d="M45 306h810v-95h-184v-328h-118v328h-206v-328h-118v328h-184v95z" />
    <glyph glyph-name="uni3161" unicode="&#x3161;" 
d="M450 76q-52 0 -109 1t-111 2.5t-102.5 4t-82.5 5.5v90q37 -2 89 -3.5t107.5 -2.5t110 -1.5t98.5 -0.5q45 0 99.5 0.5t110 2t106.5 3t89 4.5v-90q-35 -3 -83 -6t-102 -5t-111 -3t-109 -1z" />
    <glyph glyph-name="uni3162" unicode="&#x3162;" 
d="M810 -92h-118v865h118v-865zM358 76q-87 0 -169 3t-139 10v90q30 -2 68.5 -3.5t79.5 -2.5t82.5 -1.5t77.5 -0.5t76.5 0.5t81 1.5t78.5 3t68 5v-90q-57 -8 -136.5 -11.5t-167.5 -3.5z" />
    <glyph glyph-name="uni3163" unicode="&#x3163;" 
d="M509 -92h-118v865h118v-865z" />
    <glyph glyph-name="uni3165" unicode="&#x3165;" 
d="M565 186q26 -2 54 -3t49 -1q31 0 67 2.5t70 7.5v-91q-33 -7 -76 -10.5t-89 -3.5q-49 0 -101.5 3.5t-89.5 10.5q-31 -9 -78.5 -14t-98.5 -5q-42 0 -83.5 4t-69.5 11v479h116v-395q17 -2 40.5 -3t47.5 -1q14 0 31.5 1t35 3.5t33 5t26.5 5.5v384h116v-390z" />
    <glyph glyph-name="uni3166" unicode="&#x3166;" 
d="M561 186q26 -2 52 -3t51 -1q31 0 67.5 2.5t70.5 7.5v-91q-33 -7 -76.5 -10.5t-89.5 -3.5q-49 0 -101.5 3.5t-89.5 10.5q-31 -9 -78 -14t-98 -5q-42 0 -83.5 4t-69.5 11v479h116v-395q17 -2 40.5 -3t47.5 -1q14 0 31.5 1t34.5 3.5t32.5 5t26.5 5.5v289h-40v95h389v-95
h-233v-295z" />
    <glyph glyph-name="uni3167" unicode="&#x3167;" 
d="M223 188q15 -2 31 -3t36 -1q24 0 52 1.5t50 5.5v-90q-29 -6 -68.5 -9t-75.5 -3q-34 0 -74 3t-67 9v475h116v-388zM763 84q-42 38 -78 84.5t-61 89.5q-25 -44 -62 -90.5t-82 -86.5l-79 79q24 22 46.5 46.5t41.5 49t33.5 47.5t22.5 41q17 40 17 89v143h118v-143
q0 -25 3.5 -47t13.5 -42q10 -21 25.5 -44t34.5 -47t40 -47t43 -44z" />
    <glyph glyph-name="uni3168" unicode="&#x3168;" 
d="M630 596l219 -496q-19 -3 -46.5 -5t-58.5 -3.5t-61 -2t-53 -0.5t-53 0.5t-61 2t-58.5 3.5t-46.5 5zM229 188q15 -2 31 -3t36 -1q24 0 52 1.5t50 5.5v-90q-29 -6 -68.5 -9t-75.5 -3q-34 0 -74 3t-67 9v475h116v-388zM630 184h32t38 1l-70 175l-72 -175q20 -1 38.5 -1h33.5
z" />
    <glyph glyph-name="uni3169" unicode="&#x3169;" 
d="M542 579v-505h-114v410h-110v95h224zM336 84q-26 -8 -65.5 -11.5t-73.5 -3.5q-35 0 -75 2.5t-68 9.5v293h126v110h-126v95h240v-300h-124v-111q15 -2 30.5 -3t35.5 -1q24 0 50 2.5t50 7.5v-90zM806 68q-23 35 -44.5 81t-35.5 89q-14 -43 -36 -89t-47 -84l-85 52
q17 27 32.5 55.5t28.5 56t22 53t14 45.5q11 42 11 93v159h114v-159q0 -25 3.5 -49t9.5 -44q14 -46 39.5 -102t54.5 -105z" />
    <glyph glyph-name="uni316A" unicode="&#x316a;" 
d="M448 84q-34 -7 -79 -11t-91 -4q-45 0 -92.5 3t-82.5 9v293h215v110h-215v95h331v-300h-213v-111q20 -2 45 -3t52 -1q29 0 65.5 2.5t64.5 7.5v-90zM448 579h360v-95h-206v-317q36 -3 90 -3q28 0 63 2t61 7v-90q-17 -3 -37 -6t-41.5 -4.5t-43 -2.5t-39.5 -1q-41 0 -88.5 3
t-82.5 10v402h-36v95z" />
    <glyph glyph-name="uni316B" unicode="&#x316b;" 
d="M439 69q-29 0 -62.5 2.5t-60.5 10.5v497h103v-156h45v156h103v-496q-25 -7 -62 -10.5t-66 -3.5zM290 84q-26 -8 -59.5 -11.5t-64.5 -3.5q-30 0 -65 2.5t-63 9.5v293h127v110h-127v95h238v-300h-125v-111q15 -2 28.5 -3t28.5 -1q18 0 40 2.5t42 7.5v-90zM810 68
q-23 37 -42.5 82.5t-32.5 87.5q-12 -42 -32.5 -87.5t-44.5 -85.5l-86 49q37 61 60.5 117t32.5 96q5 20 8 44t3 49v159h112v-159q0 -25 4 -49t9 -44q13 -46 36 -99.5t54 -110.5zM464 164v164h-45v-164h45z" />
    <glyph glyph-name="uni316C" unicode="&#x316c;" 
d="M433 84q-34 -7 -74.5 -11t-86.5 -4q-45 0 -87.5 3t-77.5 9v293h196v110h-196v95h312v-300h-194v-111q20 -2 40 -3t47 -1q29 0 61 2.5t60 7.5v-90zM648 594l204 -514q-19 -3 -43.5 -5t-52 -3.5t-55.5 -2t-53 -0.5t-53 0.5t-55.5 2t-52 3.5t-43.5 5zM708 164l-60 175
l-62 -175h122z" />
    <glyph glyph-name="uni316D" unicode="&#x316d;" 
d="M420 84q-68 -15 -156 -15q-43 0 -87 3t-79 10v292h188v110h-188v95h304v-300h-186v-111q13 -2 34 -3t45 -1q29 0 64 2.5t61 7.5v-90zM427 579h403v-95h-403v95zM821 251q0 -82 -50.5 -132t-139.5 -50t-139.5 50t-50.5 132t50.5 132t139.5 50t139.5 -50t50.5 -132z
M557 251q0 -39 20.5 -63t53.5 -24t53.5 24t20.5 63t-20.5 63t-53.5 24t-53.5 -24t-20.5 -63z" />
    <glyph glyph-name="uni316E" unicode="&#x316e;" 
d="M265 76q-21 0 -44 1t-45 2.5t-41.5 3.5t-34.5 5v483h324v-482q-29 -6 -72.5 -9.5t-86.5 -3.5zM642 76q-21 0 -44.5 1t-45.5 2.5t-41.5 3.5t-34.5 5v483h112v-147h98v147h116v-482q-29 -6 -73 -9.5t-87 -3.5zM312 171v305h-96v-305h96zM686 171v158h-98v-158h98z" />
    <glyph glyph-name="uni316F" unicode="&#x316f;" 
d="M272 76q-21 0 -45.5 1t-47.5 2.5t-43.5 3.5t-35.5 5v483h336v-482q-15 -3 -34.5 -5.5t-41 -4t-44.5 -2.5t-44 -1zM781 75q-38 37 -71.5 84.5t-54.5 90.5q-21 -43 -54.5 -91t-74.5 -87l-82 73q21 21 41.5 46t37.5 50t30.5 49t21.5 43q8 20 13 43t5 46v149h118v-149
q0 -23 4.5 -46t13.5 -43q20 -45 55.5 -94.5t74.5 -91.5zM320 171v305h-104v-305h104z" />
    <glyph glyph-name="uni3170" unicode="&#x3170;" 
d="M269 76q-21 0 -45 1t-46.5 2.5t-42.5 3.5t-35 5v483h330v-482q-29 -6 -73.5 -9.5t-87.5 -3.5zM644 586l204 -499q-19 -3 -45 -5t-54.5 -3.5t-56 -2t-48.5 -0.5t-48.5 0.5t-56 2t-54.5 3.5t-45 5zM314 171v305h-98v-305h98zM644 171h28t32 1l-60 168l-62 -168
q17 -1 32.5 -1h29.5z" />
    <glyph glyph-name="uni3171" unicode="&#x3171;" 
d="M451 258q-37 0 -77 1t-78 2.5t-73 4t-62 5.5v368h578v-367q-27 -3 -61.5 -5.5t-72.5 -4.5t-77.5 -3t-76.5 -1zM451 353q41 0 84 0.5t86 2.5v188h-342v-189q44 -2 87 -2h85zM594 65q0 -27 -10 -51t-28.5 -42t-45 -28.5t-60.5 -10.5t-60.5 10.5t-45 28.5t-28.5 42t-10 51
t10 51t28.5 42t45 28.5t60.5 10.5t60.5 -10.5t45 -28.5t28.5 -42t10 -51zM497 65q0 20 -13.5 33.5t-33.5 13.5t-33.5 -13.5t-13.5 -33.5t13.5 -33.5t33.5 -13.5t33.5 13.5t13.5 33.5z" />
    <glyph glyph-name="uni3172" unicode="&#x3172;" 
d="M284 71q-21 0 -45.5 1t-47.5 2.5t-43.5 3.5t-35.5 5v493h118v-152h104v152h116v-492q-15 -3 -34.5 -5.5t-41.5 -4t-45.5 -2.5t-44.5 -1zM794 576v-500h-118v405h-192v95h310zM334 166v163h-104v-163h104z" />
    <glyph glyph-name="uni3173" unicode="&#x3173;" 
d="M276 71q-21 0 -45 1t-47 2.5t-43 3.5t-35 5v493h118v-152h102v152h114v-492q-15 -3 -34.5 -5.5t-41 -4t-44.5 -2.5t-44 -1zM454 576h340v-95h-186v-312q18 -2 41 -2.5t44 -0.5q24 0 53.5 2t55.5 7v-90q-33 -7 -73.5 -10.5t-77.5 -3.5q-42 0 -84 3t-77 10v397h-36v95z
M326 166v163h-102v-163h102z" />
    <glyph glyph-name="uni3174" unicode="&#x3174;" 
d="M165 576v-152h46v152h106v-490q-27 -7 -61 -10.5t-67 -3.5t-70.5 3.5t-61.5 9.5v491h108zM581 70q-26 37 -47.5 80.5t-36.5 85.5q-14 -42 -35 -86t-47 -83l-88 54q15 23 30.5 50.5t28.5 55.5t23 54.5t16 47.5q5 21 9 46.5t4 51.5v149h112v-149q0 -26 3.5 -52t9.5 -46
q6 -21 17.5 -47.5t25 -53.5t28.5 -53.5t30 -47.5zM844 576v-501h-114v406h-120v95h234zM211 167v162h-46v-162h46z" />
    <glyph glyph-name="uni3175" unicode="&#x3175;" 
d="M145 576v-152h46v152h106v-490q-27 -7 -61 -10.5t-67 -3.5t-70.5 3.5t-61.5 9.5v491h108zM604 576h255v-95h-102v-313q11 -2 23.5 -2h25.5q15 0 32 2t29 5v-90q-21 -6 -52 -9t-60 -3t-58 3t-52 9v398h-41v95zM549 70q-24 37 -44 79.5t-34 84.5q-14 -42 -34 -85t-44 -82
l-88 53q16 24 31 51.5t27.5 55.5t22 54t14.5 48q5 21 8.5 46.5t3.5 51.5v149h112v-149q0 -26 3.5 -52t8.5 -46q6 -22 16.5 -48t23 -53.5t27 -54t29.5 -48.5zM191 167v162h-46v-162h46z" />
    <glyph glyph-name="uni3176" unicode="&#x3176;" 
d="M213 576v-152h102v152h116v-490q-31 -6 -78 -10t-88 -4q-20 0 -43 1t-45.5 2.5t-44 4t-37.5 5.5v491h118zM467 576h359v-95h-120v-84q0 -25 3.5 -45t12.5 -39q20 -41 52 -81.5t75 -82.5l-76 -79q-35 31 -67.5 73t-55.5 80q-11 -19 -25 -39.5t-30 -41t-34 -40t-36 -35.5
l-81 78q45 42 79.5 88t49.5 80q8 19 11.5 39t3.5 45v84h-121v95zM315 167v162h-102v-162h102z" />
    <glyph glyph-name="uni3177" unicode="&#x3177;" 
d="M276 71q-21 0 -44.5 1t-46 2.5t-42.5 3.5t-35 5v493h118v-152h98v152h114v-492q-29 -6 -74 -9.5t-88 -3.5zM452 576h344v-95h-190v-103h180v-95h-180v-114q18 -2 36.5 -2.5t45.5 -0.5q26 0 59 2t64 7v-90q-73 -14 -158 -14q-47 0 -87 3t-78 10v397h-36v95zM324 166v163
h-98v-163h98z" />
    <glyph glyph-name="uni3178" unicode="&#x3178;" 
d="M740 267q-27 -3 -61.5 -5.5t-73 -4.5t-78 -3t-76.5 -1t-77 1t-78.5 2.5t-73.5 4t-62 5.5v378h118v-95h344v95h118v-377zM594 65q0 -27 -10 -51t-28.5 -42t-45 -28.5t-60.5 -10.5t-60.5 10.5t-45 28.5t-28.5 42t-10 51t10 51t28.5 42t45 28.5t60.5 10.5t60.5 -10.5
t45 -28.5t28.5 -42t10 -51zM451 348q41 0 84 0.5t87 2.5v103h-344v-104q44 -2 87.5 -2h85.5zM497 65q0 20 -13.5 33.5t-33.5 13.5t-33.5 -13.5t-13.5 -33.5t13.5 -33.5t33.5 -13.5t33.5 13.5t13.5 33.5z" />
    <glyph glyph-name="uni3179" unicode="&#x3179;" 
d="M265 251q-21 0 -44 1t-45 2.5t-41.5 3.5t-34.5 5v383h116v-97h96v97h112v-382q-29 -6 -72.5 -9.5t-86.5 -3.5zM641 251q-21 0 -44 1t-45 2.5t-41.5 3.5t-34.5 5v383h112v-97h96v97h116v-382q-29 -6 -72.5 -9.5t-86.5 -3.5zM594 65q0 -27 -10 -51t-28.5 -42t-45 -28.5
t-60.5 -10.5t-60.5 10.5t-45 28.5t-28.5 42t-10 51t10 51t28.5 42t45 28.5t60.5 10.5t60.5 -10.5t45 -28.5t28.5 -42t10 -51zM312 346v108h-96v-108h96zM684 346v108h-96v-108h96zM497 65q0 20 -13.5 33.5t-33.5 13.5t-33.5 -13.5t-13.5 -33.5t13.5 -33.5t33.5 -13.5
t33.5 13.5t13.5 33.5z" />
    <glyph glyph-name="uni317A" unicode="&#x317a;" 
d="M783 581v-506h-118v411h-213v95h331zM459 69q-21 18 -42.5 41t-41 47t-36 48.5t-28.5 47.5q-24 -45 -64.5 -96t-87.5 -91l-78 80q24 21 47 45.5t42.5 50t35 50t24.5 44.5q8 20 13 41t5 45v159h120v-159q0 -47 18 -86q21 -46 61 -97.5t86 -92.5z" />
    <glyph glyph-name="uni317B" unicode="&#x317b;" 
d="M423 69q-19 18 -38.5 41t-37.5 47.5t-33 49t-26 46.5q-11 -22 -26 -46.5t-33 -49t-38.5 -48t-41.5 -43.5l-81 76q22 21 43 46.5t40 51t33.5 50.5t23.5 46q17 40 17 89v156h120v-156q0 -49 17 -89q21 -48 58.5 -99.5t79.5 -93.5zM849 84q-31 -7 -75.5 -10.5t-89.5 -3.5
q-42 0 -86 3.5t-75 10.5v497h118v-413q18 -2 43 -2.5t48 -0.5q13 0 29 0.5t31.5 2t30.5 3t26 3.5v-90z" />
    <glyph glyph-name="uni317C" unicode="&#x317c;" 
d="M472 581h349v-95h-190v-318q18 -2 36.5 -2.5t45.5 -0.5q28 0 58 2t58 7v-90q-15 -3 -34.5 -6t-40 -4.5t-40.5 -2.5t-38 -1q-40 0 -85 3t-78 10v403h-41v95zM418 69q-19 18 -38.5 41t-37.5 47.5t-33 49t-26 46.5q-11 -22 -26 -46.5t-33 -49t-38.5 -48t-41.5 -43.5l-81 76
q22 21 43 46.5t40 51t33.5 50.5t23.5 46q17 40 17 89v156h120v-156q0 -49 17 -89q21 -48 58.5 -99.5t79.5 -93.5z" />
    <glyph glyph-name="uni317D" unicode="&#x317d;" 
d="M661 71q-21 0 -45 1t-46.5 2.5t-42.5 3.5t-35 5v498h118v-154h96v154h118v-497q-15 -3 -34 -5.5t-40.5 -4t-44.5 -2.5t-44 -1zM402 69q-18 19 -36.5 41.5t-35.5 46.5t-31.5 48t-24.5 46q-21 -45 -57.5 -95t-76.5 -90l-81 75q22 21 43 46.5t39 51.5t32 51t22 45t12 42.5
t4 46.5v157h120v-157q0 -24 4 -46.5t12 -42.5q9 -22 23.5 -47t32 -50.5t37 -50t39.5 -45.5zM706 166v166h-96v-166h96z" />
    <glyph glyph-name="uni317E" unicode="&#x317e;" 
d="M442 581h379v-95h-137v-75q0 -29 6 -55t22 -54q20 -36 57.5 -76t82.5 -75l-69 -85q-21 15 -43.5 35t-43.5 41.5t-39.5 44.5t-32.5 45q-31 -48 -78 -95t-96 -81q-47 34 -94 84.5t-78 101.5q-28 -47 -69.5 -95t-85.5 -81l-75 83q22 18 43 38.5t39.5 41.5t33.5 42.5t26 40.5
q16 29 22 54.5t6 54.5v160h120v-160q0 -29 5.5 -54t18.5 -54t36.5 -62t51.5 -59q30 26 53.5 55t36.5 56q14 29 19 54t5 54v75h-122v95z" />
    <glyph glyph-name="uni317F" unicode="&#x317f;" 
d="M450 589l303 -500q-23 -3 -60.5 -5t-80.5 -3.5t-86 -2t-76 -0.5t-76 0.5t-86 2t-81 3.5t-60 5zM450 173h61.5t68.5 1l-130 227l-132 -227q35 -1 69.5 -1h62.5z" />
    <glyph glyph-name="uni3180" unicode="&#x3180;" 
d="M431 326q0 -57 -12 -105t-36.5 -82.5t-61 -53.5t-85.5 -19t-85.5 19t-61 53.5t-36.5 82.5t-12 105t12 104.5t36.5 82t61 54t85.5 19.5t85.5 -19.5t61 -54t36.5 -82t12 -104.5zM159 326q0 -76 19 -120.5t59 -44.5t59 44.5t19 120.5t-19 120.5t-59 44.5t-59 -44.5
t-19 -120.5zM469 326q0 57 12 104.5t36.5 82t61 54t85.5 19.5t85.5 -19.5t61 -54t36.5 -82t12 -104.5t-12 -105t-36.5 -82.5t-61 -53.5t-85.5 -19t-85.5 19t-61 53.5t-36.5 82.5t-12 105zM741 326q0 76 -19 120.5t-59 44.5t-59 -44.5t-19 -120.5t19 -120.5t59 -44.5t59 44.5
t19 120.5z" />
    <glyph glyph-name="uni3181" unicode="&#x3181;" 
d="M727 311q0 -55 -19.5 -101.5t-55.5 -80.5t-87.5 -53.5t-114.5 -19.5t-114.5 19.5t-87.5 53.5t-55.5 80.5t-19.5 101.5q0 48 15 90t43.5 75t68.5 55t91 30v109h118v-109q51 -8 91 -30t68.5 -55t43.5 -75t15 -90zM291 311q0 -34 11.5 -63.5t32.5 -51t50 -33.5t65 -12t65 12
t50 33.5t32.5 51t11.5 63.5t-11.5 63.5t-32.5 51t-50 33.5t-65 12t-65 -12t-50 -33.5t-32.5 -51t-11.5 -63.5z" />
    <glyph glyph-name="uni3182" unicode="&#x3182;" 
d="M462 296q0 -54 -12.5 -97.5t-37 -75t-62 -48.5t-87.5 -17t-87.5 17t-62 48.5t-37 75t-12.5 97.5q0 91 34.5 151.5t105.5 78.5v104h118v-104q70 -18 105 -78.5t35 -151.5zM781 60q-38 42 -71 94t-54 100q-22 -48 -56.5 -100t-76.5 -97l-83 71q22 25 43 52.5t39 55t32 54
t23 49.5q8 20 12.5 44.5t4.5 48.5v164h118v-164q0 -24 4.5 -48.5t12.5 -44.5q22 -52 57.5 -107t76.5 -103zM182 296q0 -72 21.5 -107.5t59.5 -35.5t59.5 35.5t21.5 107.5t-21.5 107.5t-59.5 35.5t-59.5 -35.5t-21.5 -107.5z" />
    <glyph glyph-name="uni3183" unicode="&#x3183;" 
d="M464 296q0 -54 -12.5 -97.5t-37 -75t-62 -48.5t-87.5 -17t-87.5 17t-62 48.5t-37 75t-12.5 97.5q0 91 34.5 151.5t105.5 78.5v104h118v-104q70 -18 105 -78.5t35 -151.5zM652 616l210 -542q-19 -3 -45 -5t-54.5 -3.5t-57.5 -2t-53 -0.5t-53 0.5t-57.5 2t-54.5 3.5t-45 5z
M184 296q0 -72 21.5 -107.5t59.5 -35.5t59.5 35.5t21.5 107.5t-21.5 107.5t-59.5 35.5t-59.5 -35.5t-21.5 -107.5zM652 158h32.5t35.5 1l-68 204l-70 -204q19 -1 36.5 -1h33.5z" />
    <glyph glyph-name="uni3184" unicode="&#x3184;" 
d="M119 647q27 -5 60.5 -7.5t60.5 -2.5h546v-95h-120v-185q32 2 61.5 3.5t53.5 3.5v-90q-33 -4 -74 -7t-85.5 -5t-88.5 -3t-83 -1t-83 1t-88.5 3t-85.5 5t-74 7v90q23 -2 53 -3.5t62 -3.5v185q-32 1 -68 7.5t-64 19.5zM594 65q0 -27 -10 -51t-28.5 -42t-45 -28.5
t-60.5 -10.5t-60.5 10.5t-45 28.5t-28.5 42t-10 51t10 51t28.5 42t45 28.5t60.5 10.5t60.5 -10.5t45 -28.5t28.5 -42t10 -51zM450 353h46t52 1v188h-196v-188q26 -1 51 -1h47zM497 65q0 20 -13.5 33.5t-33.5 13.5t-33.5 -13.5t-13.5 -33.5t13.5 -33.5t33.5 -13.5t33.5 13.5
t13.5 33.5z" />
    <glyph glyph-name="uni3185" unicode="&#x3185;" 
d="M428 207q0 -43 -11 -80.5t-34 -65t-58 -43.5t-83 -16t-83 16t-58 43.5t-34 65t-11 80.5t11 80t34 65t58 44t83 16t83 -16t58 -44t34 -65t11 -80zM471 207q0 43 11 80t34 65t58 44t83 16t83 -16t58 -44t34 -65t11 -80t-11 -80.5t-34 -65t-58 -43.5t-83 -16t-83 16
t-58 43.5t-34 65t-11 80.5zM34 542q26 -5 55.5 -7t55.5 -2h42v138h118v-138h128v-95h-289q-31 0 -65.5 6.5t-61.5 19.5zM712 533h155v-95h-401v95h128v138h118v-138zM174 207q0 -54 18.5 -82t50.5 -28t50.5 28t18.5 82t-18.5 82t-50.5 28t-50.5 -28t-18.5 -82zM725 207
q0 54 -18.5 82t-50.5 28t-50.5 -28t-18.5 -82t18.5 -82t50.5 -28t50.5 28t18.5 82z" />
    <glyph glyph-name="uni3186" unicode="&#x3186;" 
d="M685 235q0 -46 -16 -84.5t-46.5 -67t-74 -44.5t-98.5 -16t-98.5 16t-74 44.5t-46.5 67t-16 84.5t16 84.5t46.5 67t74 44.5t98.5 16t98.5 -16t74 -44.5t46.5 -67t16 -84.5zM111 599q27 -5 60.5 -7.5t60.5 -2.5h557v-95h-558q-32 0 -70 7t-67 20zM333 235q0 -51 33 -84
t84 -33t84 33t33 84t-33 84t-84 33t-84 -33t-33 -84z" />
    <glyph glyph-name="uni3187" unicode="&#x3187;" 
d="M336 56q-85 0 -165 3.5t-138 8.5v90q27 -2 59 -3t67 -2v338h118v-340h126v340h118v-336q32 2 61 3.5t55 3.5v-90q-57 -8 -136.5 -12t-164.5 -4zM785 570h114v-95h-114v-193h114v-95h-114v-279h-118v865h118v-203z" />
    <glyph glyph-name="uni3188" unicode="&#x3188;" 
d="M725 187h-64v-270h-113v853h113v-200h64v203h114v-865h-114v279zM285 57q-69 0 -135 3t-113 9v90q20 -2 43.5 -3t49.5 -2v337h116v-339h90v339h116v-334q20 2 39 3t37 3v-90q-47 -7 -111 -11.5t-132 -4.5zM661 282h64v193h-64v-193z" />
    <glyph glyph-name="uni3189" unicode="&#x3189;" 
d="M350 56q-88 0 -168 3.5t-137 8.5v90q29 -2 63.5 -3t72.5 -2v338h118v-340h125v340h118v-337q34 2 64.5 4t55.5 4v-90q-27 -4 -62.5 -7t-76 -5t-84.5 -3t-89 -1zM810 -92h-118v865h118v-865z" />
    <glyph glyph-name="uni318A" unicode="&#x318a;" 
d="M50 362h600v-95h-147v-369h-116v369h-106v-369h-118v369h-113v95zM810 -92h-118v82h-127v91h127v49h-127v91h127v552h118v-865z" />
    <glyph glyph-name="uni318B" unicode="&#x318b;" 
d="M43 361h500v-95h-104v-368h-114v368h-74v-368h-116v368h-92v95zM688 -83h-115v73h-93v91h93v49h-93v91h93v549h115v-853zM723 773h116v-865h-116v865z" />
    <glyph glyph-name="uni318C" unicode="&#x318c;" 
d="M50 306h612v-95h-111v-313h-118v313h-136v-313h-118v313h-129v95zM810 -92h-118v865h118v-865z" />
    <glyph glyph-name="uni318D" unicode="&#x318d;" 
d="M367 373q0 35 23.5 59t59.5 24t59.5 -24t23.5 -59t-23.5 -59t-59.5 -24t-59.5 24t-23.5 59z" />
    <glyph glyph-name="uni318E" unicode="&#x318e;" 
d="M629 -92h-118v865h118v-865zM226 373q0 35 23.5 59t59.5 24t59.5 -24t23.5 -59t-23.5 -59t-59.5 -24t-59.5 24t-23.5 59z" />
    <glyph glyph-name="uni2170" unicode="&#x2170;" 
d="M508 0h-116v544h116v-544zM372 690q0 32 22 54.5t56 22.5t56 -22.5t22 -54.5t-22 -54.5t-56 -22.5t-56 22.5t-22 54.5z" />
    <glyph glyph-name="uni2171" unicode="&#x2171;" 
d="M372 0h-116v544h116v-544zM236 690q0 32 22 54.5t56 22.5t56 -22.5t22 -54.5t-22 -54.5t-56 -22.5t-56 22.5t-22 54.5zM645 0h-116v544h116v-544zM509 690q0 32 22 54.5t56 22.5t56 -22.5t22 -54.5t-22 -54.5t-56 -22.5t-56 22.5t-22 54.5z" />
    <glyph glyph-name="uni2172" unicode="&#x2172;" 
d="M507 0h-114v544h114v-544zM372 690q0 32 22 54.5t56 22.5t56 -22.5t22 -54.5t-22 -54.5t-56 -22.5t-56 22.5t-22 54.5zM715 0h-114v544h114v-544zM580 690q0 32 22 54.5t56 22.5t56 -22.5t22 -54.5t-22 -54.5t-56 -22.5t-56 22.5t-22 54.5zM299 0h-114v544h114v-544z
M164 690q0 32 22 54.5t56 22.5t56 -22.5t22 -54.5t-22 -54.5t-56 -22.5t-56 22.5t-22 54.5z" />
    <glyph glyph-name="uni2173" unicode="&#x2173;" 
d="M307 0h-116v544h116v-544zM171 690q0 32 22 54.5t56 22.5t56 -22.5t22 -54.5t-22 -54.5t-56 -22.5t-56 22.5t-22 54.5zM565 99q5 29 12.5 61t15.5 59l91 325h110l-166 -544h-126l-166 544h110l91 -325q8 -27 15.5 -59t12.5 -61z" />
    <glyph glyph-name="uni2174" unicode="&#x2174;" 
d="M450 99q5 27 13.5 60.5t16.5 59.5l100 325h110l-178 -544h-124l-178 544h110l100 -325q8 -26 16.5 -59.5t13.5 -60.5z" />
    <glyph glyph-name="uni2175" unicode="&#x2175;" 
d="M621 544h116v-544h-116v544zM757 690q0 -32 -22 -54.5t-56 -22.5t-56 22.5t-22 54.5t22 54.5t56 22.5t56 -22.5t22 -54.5zM363 99q5 29 12.5 61t15.5 59l91 325h110l-166 -544h-126l-166 544h110l91 -325q8 -27 15.5 -59t12.5 -61z" />
    <glyph glyph-name="uni2176" unicode="&#x2176;" 
d="M508 547h114v-544h-114v544zM643 693q0 -32 -22 -54.5t-56 -22.5t-56 22.5t-22 54.5t22 54.5t56 22.5t56 -22.5t22 -54.5zM285 99q4 29 10.5 63t11.5 60l69 325h111l-138 -544h-128l-138 544h111l69 -325q5 -26 11.5 -60t10.5 -63zM686 547h114v-544h-114v544zM821 693
q0 -32 -22 -54.5t-56 -22.5t-56 22.5t-22 54.5t22 54.5t56 22.5t56 -22.5t22 -54.5z" />
    <glyph glyph-name="uni2177" unicode="&#x2177;" 
d="M406 547h112v-544h-112v544zM533 693q0 -32 -19.5 -54.5t-51.5 -22.5t-51.5 22.5t-19.5 54.5t19.5 54.5t51.5 22.5t51.5 -22.5t19.5 -54.5zM215 99q3 29 7 63t8 60l48 325h108l-107 -544h-128l-107 544h108l48 -325q4 -26 8 -60t7 -63zM568 547h110v-544h-110v544z
M728 547h112v-544h-112v544zM693 693q0 -32 -19 -54.5t-51 -22.5t-51 22.5t-19 54.5t19 54.5t51 22.5t51 -22.5t19 -54.5zM855 693q0 -32 -19.5 -54.5t-51.5 -22.5t-51.5 22.5t-19.5 54.5t19.5 54.5t51.5 22.5t51.5 -22.5t19.5 -54.5z" />
    <glyph glyph-name="uni2178" unicode="&#x2178;" 
d="M283 0h-116v544h116v-544zM147 690q0 32 22 54.5t56 22.5t56 -22.5t22 -54.5t-22 -54.5t-56 -22.5t-56 22.5t-22 54.5zM624 283q13 -17 27.5 -37t25.5 -36l141 -210h-126l-90 134q-8 12 -18.5 28.5t-18.5 30.5q-8 -14 -18.5 -30.5t-18.5 -28.5l-90 -134h-126l141 210
q11 16 25.5 36t27.5 37q-13 16 -27.5 36.5t-25.5 36.5l-126 188h126l75 -112q8 -12 18.5 -28.5t18.5 -30.5q8 14 18.5 30.5t18.5 28.5l75 112h126l-126 -188q-11 -16 -25.5 -36.5t-27.5 -36.5z" />
    <glyph glyph-name="uni2179" unicode="&#x2179;" 
d="M509 283q13 -17 27.5 -37t25.5 -36l141 -210h-126l-90 134q-8 12 -18.5 28.5t-18.5 30.5q-8 -14 -18.5 -30.5t-18.5 -28.5l-90 -134h-126l141 210q11 16 25.5 36t27.5 37q-13 16 -27.5 36.5t-25.5 36.5l-126 188h126l75 -112q8 -12 18.5 -28.5t18.5 -30.5q8 14 18.5 30.5
t18.5 28.5l75 112h126l-126 -188q-11 -16 -25.5 -36.5t-27.5 -36.5z" />
    <glyph glyph-name="uni2160" unicode="&#x2160;" 
d="M509 0h-118v745h118v-745z" />
    <glyph glyph-name="uni2161" unicode="&#x2161;" 
d="M648 0h-118v745h118v-745zM370 0h-118v745h118v-745z" />
    <glyph glyph-name="uni2162" unicode="&#x2162;" 
d="M508 0h-116v745h116v-745zM728 0h-116v745h116v-745zM289 0h-116v745h116v-745z" />
    <glyph glyph-name="uni2163" unicode="&#x2163;" 
d="M501 0l-205 745h120l124 -482q8 -29 15.5 -70t12.5 -79q5 38 12.5 79t15.5 70l124 482h120l-206 -745h-133zM260 0h-118v745h118v-745z" />
    <glyph glyph-name="uni2164" unicode="&#x2164;" 
d="M385 0l-262 745h120l173 -512q8 -23 17.5 -56.5t16.5 -62.5q7 29 16 62.5t17 56.5l174 512h120l-263 -745h-129z" />
    <glyph glyph-name="uni2165" unicode="&#x2165;" 
d="M294 0l-206 745h120l124 -482q8 -29 15.5 -70t12.5 -79q5 38 12.5 79t15.5 70l124 482h120l-205 -745h-133zM668 745h118v-745h-118v745z" />
    <glyph glyph-name="uni2166" unicode="&#x2166;" 
d="M224 0l-150 745h119l79 -472q6 -34 12 -78t11 -86q5 42 11 86t12 78l79 472h119l-149 -745h-143zM538 745h116v-745h-116v745zM707 745h116v-745h-116v745z" />
    <glyph glyph-name="uni2167" unicode="&#x2167;" 
d="M164 0l-117 745h112l60 -472q4 -31 8.5 -77t7.5 -87q3 41 7.5 87t8.5 77l60 472h112l-116 -745h-143zM443 745h107v-745h-107v745zM595 745h104v-745h-104v745zM744 745h107v-745h-107v745z" />
    <glyph glyph-name="uni2168" unicode="&#x2168;" 
d="M288 745h129l100 -172q10 -17 23.5 -41.5t22.5 -41.5q9 17 22.5 41.5t23.5 41.5l100 172h129l-167 -286q-11 -18 -23 -37.5t-24 -36.5q12 -16 24 -35.5t21 -35.5l184 -314h-129l-115 197q-10 17 -23.5 41.5t-22.5 41.5q-9 -17 -22.5 -41.5t-23.5 -41.5l-115 -197h-129
l183 314q8 14 20.5 34.5t24.5 36.5q-12 17 -24.5 37t-22.5 37zM233 0h-118v745h118v-745z" />
    <glyph glyph-name="uni2169" unicode="&#x2169;" 
d="M510 384q13 -16 27.5 -36.5t23.5 -34.5l207 -313h-129l-143 216q-10 15 -22.5 35.5t-23.5 38.5q-10 -18 -23 -38.5t-23 -35.5l-143 -216h-129l206 313q9 14 23.5 34.5t27.5 36.5q-13 17 -28 38t-25 36l-189 287h129l128 -194q10 -15 23 -36t23 -38q10 17 23 38t23 36
l128 194h129l-190 -287q-10 -15 -25 -36t-28 -38z" />
    <glyph glyph-name="Alpha" unicode="&#x391;" horiz-adv-x="664" 
d="M396 745l263 -745h-120l-54 159h-307l-53 -159h-120l262 745h129zM332 631q-7 -29 -16.5 -62.5t-17.5 -56.5l-88 -258h242l-87 258q-8 23 -17 56.5t-16 62.5z" />
    <glyph glyph-name="Beta" unicode="&#x392;" horiz-adv-x="656" 
d="M330 -8q-30 0 -65.5 1t-70.5 2.5t-66.5 4t-52.5 5.5v740h254q127 0 189 -55.5t62 -152.5q0 -121 -101 -159q63 -17 95 -61t32 -111q0 -100 -67.5 -157t-208.5 -57zM488 206q0 60 -35.5 91t-106.5 31h-153v-235q58 -6 137 -6q83 0 120.5 29.5t37.5 89.5zM334 423
q63 0 95.5 28.5t32.5 85.5t-32.5 85t-95.5 28h-141v-227h141z" />
    <glyph glyph-name="Gamma" unicode="&#x393;" horiz-adv-x="526" 
d="M193 0h-118v745h436v-95h-318v-650z" />
    <glyph glyph-name="uni0394" unicode="&#x394;" horiz-adv-x="664" 
d="M327 -8q-37 0 -82 1t-89 2.5t-84 4t-67 5.5l262 740h129l263 -739q-27 -3 -68.5 -5.5t-87.5 -4.5t-92.5 -3t-83.5 -1zM155 90q43 -2 86.5 -2.5t85.5 -0.5q43 0 89 1t92 3l-143 421q-8 24 -17 57t-16 62q-7 -29 -16.5 -62t-17.5 -57z" />
    <glyph glyph-name="Epsilon" unicode="&#x395;" horiz-adv-x="596" 
d="M561 6q-22 -4 -50 -6.5t-59.5 -4t-65 -2.5t-65.5 -1q-31 0 -65.5 1t-67.5 2.5t-62.5 4t-50.5 5.5v740h461v-95h-343v-227h333v-95h-333v-236q35 -3 81 -4t88 -1q19 0 43.5 0.5t51.5 1.5t53.5 2.5t50.5 4.5v-90z" />
    <glyph glyph-name="Zeta" unicode="&#x396;" horiz-adv-x="579" 
d="M45 755q27 -5 60.5 -7.5t60.5 -2.5h373v-95l-322 -471q-14 -20 -33 -44.5t-34 -41.5q37 -4 86 -5t98 -1q46 0 104 2t111 7v-90q-23 -4 -53.5 -6.5t-65.5 -4t-72.5 -2.5t-74.5 -1q-36 0 -72 1t-69 2.5t-60.5 4t-46.5 5.5v92l327 476q11 17 27 39t28 38h-252q-32 0 -70 7
t-67 20z" />
    <glyph glyph-name="Eta" unicode="&#x397;" horiz-adv-x="724" 
d="M649 0h-118v346h-338v-346h-118v745h118v-304h338v304h118v-745z" />
    <glyph glyph-name="Theta" unicode="&#x398;" horiz-adv-x="884" 
d="M726 373q0 63 -21.5 116.5t-59 92.5t-90 61t-113.5 22q-62 0 -114 -22t-89.5 -61t-59 -92.5t-21.5 -116.5t21.5 -116.5t59 -92.5t89.5 -61t114 -22q61 0 113.5 22t90 61t59 92.5t21.5 116.5zM844 373q0 -88 -29.5 -159.5t-82.5 -122t-127 -78t-163 -27.5t-163 27.5
t-127 78t-82.5 122t-29.5 159.5t29.5 159.5t82.5 122t127 78t163 27.5t163 -27.5t127 -78t82.5 -122t29.5 -159.5zM656 336h-428v95h428v-95z" />
    <glyph glyph-name="Iota" unicode="&#x399;" horiz-adv-x="262" 
d="M190 0h-118v745h118v-745z" />
    <glyph glyph-name="Kappa" unicode="&#x39a;" horiz-adv-x="661" 
d="M193 394l293 351h140l-218 -265q-19 -23 -42 -46t-43 -40q19 -17 42 -42t43 -50l238 -302h-140l-313 394v-394h-118v745h118v-351z" />
    <glyph glyph-name="Lambda" unicode="&#x39b;" horiz-adv-x="664" 
d="M396 745l263 -745h-120l-174 512q-8 23 -17 56.5t-16 62.5q-7 -29 -16.5 -62.5t-17.5 -56.5l-173 -512h-120l262 745h129z" />
    <glyph glyph-name="Mu" unicode="&#x39c;" horiz-adv-x="930" 
d="M247 531q-14 20 -28.5 44.5t-25.5 47.5v-623h-118v745h152l238 -343l238 343h152v-745h-118v623q-11 -23 -25.5 -47.5t-28.5 -44.5l-218 -312z" />
    <glyph glyph-name="Nu" unicode="&#x39d;" horiz-adv-x="724" 
d="M531 745h118v-745h-163l-242 499q-12 26 -26.5 59t-24.5 59v-617h-118v745h163l244 -499q13 -26 27 -59.5t22 -57.5v616z" />
    <glyph glyph-name="Xi" unicode="&#x39e;" horiz-adv-x="662" 
d="M113 423h432v-95h-432v95zM70 750q27 -5 60.5 -7.5t60.5 -2.5h409v-95h-410q-32 0 -70 7t-67 20zM328 -3q-37 0 -77 1t-78 2.5t-73 4t-62 5.5v90q33 -2 70 -3.5t74.5 -2.5t74.5 -1.5t71 -0.5t71.5 0.5t75.5 1.5t75 3t70 4v-90q-27 -3 -62 -5.5t-74 -4.5t-79 -3t-77 -1z
" />
    <glyph glyph-name="Omicron" unicode="&#x39f;" horiz-adv-x="884" 
d="M726 373q0 63 -21.5 116.5t-59 92.5t-90 61t-113.5 22q-62 0 -114 -22t-89.5 -61t-59 -92.5t-21.5 -116.5t21.5 -116.5t59 -92.5t89.5 -61t114 -22q61 0 113.5 22t90 61t59 92.5t21.5 116.5zM844 373q0 -88 -29.5 -159.5t-82.5 -122t-127 -78t-163 -27.5t-163 27.5
t-127 78t-82.5 122t-29.5 159.5t29.5 159.5t82.5 122t127 78t163 27.5t163 -27.5t127 -78t82.5 -122t29.5 -159.5z" />
    <glyph glyph-name="Pi" unicode="&#x3a0;" horiz-adv-x="724" 
d="M649 0h-118v650h-338v-650h-118v745h574v-745z" />
    <glyph glyph-name="Rho" unicode="&#x3a1;" horiz-adv-x="620" 
d="M75 0v745h261q118 0 186 -55.5t68 -166.5t-68 -166t-186 -55h-143v-302h-118zM336 397q63 0 99.5 31t36.5 95t-36.5 95.5t-99.5 31.5h-143v-253h143z" />
    <glyph glyph-name="Sigma" unicode="&#x3a3;" horiz-adv-x="581" 
d="M546 6q-22 -4 -51 -6.5t-62 -4t-67 -2.5t-66 -1q-31 0 -68.5 1t-74.5 2.5t-69.5 4t-53.5 5.5v80l213 292l-202 288v80h476v-95h-329q10 -11 21.5 -24.5t19.5 -25.5l132 -187v-75l-137 -186q-10 -14 -24.5 -30.5t-25.5 -29.5q35 -3 81 -4t88 -1q19 0 43.5 0.5t51.5 1.5
t53.5 2.5t50.5 4.5v-90z" />
    <glyph glyph-name="Tau" unicode="&#x3a4;" horiz-adv-x="577" 
d="M22 755q27 -5 60.5 -7.5t60.5 -2.5h424v-95h-217v-650h-118v650h-90q-32 0 -70 7t-67 20z" />
    <glyph glyph-name="Upsilon" unicode="&#x3a5;" horiz-adv-x="617" 
d="M612 745l-245 -421v-324h-118v324l-244 421h124l137 -239q9 -16 21 -39.5t21 -44.5q9 21 21 44.5t21 39.5l137 239h125z" />
    <glyph glyph-name="Phi" unicode="&#x3a6;" horiz-adv-x="756" 
d="M35 372q0 120 75 191.5t209 83.5v98h118v-98q134 -12 209 -83.5t75 -191.5t-75 -191.5t-209 -83.5v-97h-118v97q-134 12 -209 83.5t-75 191.5zM603 372q0 73 -42.5 120.5t-126.5 58.5v-358q84 11 126.5 58t42.5 121zM153 372q0 -74 42 -121t127 -58v358
q-85 -11 -127 -58.5t-42 -120.5z" />
    <glyph glyph-name="Chi" unicode="&#x3a7;" horiz-adv-x="647" 
d="M383 384q13 -16 27.5 -36.5t23.5 -34.5l207 -313h-129l-143 216q-10 15 -22.5 35.5t-23.5 38.5q-10 -18 -23 -38.5t-23 -35.5l-143 -216h-129l206 313q9 14 23.5 34.5t27.5 36.5q-13 17 -28 38t-25 36l-189 287h129l128 -194q10 -15 23 -36t23 -38q10 17 23 38t23 36
l128 194h129l-190 -287q-10 -15 -25 -36t-28 -38z" />
    <glyph glyph-name="Psi" unicode="&#x3a8;" horiz-adv-x="784" 
d="M450 260q69 14 107.5 64t38.5 131v290h118v-290q0 -128 -69.5 -203t-194.5 -89v-163h-116v163q-125 14 -194.5 89t-69.5 203v290h118v-290q0 -81 38 -131t108 -64v485h116v-485z" />
    <glyph glyph-name="uni03A9" unicode="&#x3a9;" horiz-adv-x="858" 
d="M429 760q88 0 159.5 -27.5t122.5 -76.5t79 -117t28 -149q0 -47 -13 -91t-35.5 -82.5t-52 -69.5t-62.5 -52h144v-95h-309v79q100 54 155 134.5t55 176.5q0 60 -20.5 110.5t-56.5 87t-86 57t-108 20.5q-59 0 -108.5 -20.5t-85.5 -57t-56.5 -87t-20.5 -110.5
q0 -96 55 -176.5t155 -134.5v-79h-309v95h144q-33 21 -62.5 52t-52 69.5t-35.5 82.5t-13 91q0 81 28 149t79 117t122.5 76.5t159.5 27.5z" />
    <glyph glyph-name="alpha" unicode="&#x3b1;" horiz-adv-x="849" 
d="M337 -15q-69 0 -125 21t-95 58.5t-60.5 90.5t-21.5 117t21.5 117t60.5 90.5t95 58.5t125 21q89 0 155.5 -42t108.5 -108l50 135h117l-107 -286l43 -139q13 -41 44 -41q34 0 69 18l27 -88q-23 -11 -50 -17t-62 -6q-49 0 -83.5 22t-50.5 75l-8 26q-42 -57 -105 -90
t-148 -33zM337 466q-42 0 -76.5 -14.5t-58.5 -40.5t-37.5 -61.5t-13.5 -77.5t13.5 -77.5t37.5 -61.5t58.5 -41t76.5 -15q63 0 118 43t90 136q-31 103 -87.5 156.5t-120.5 53.5z" />
    <glyph glyph-name="beta" unicode="&#x3b2;" horiz-adv-x="656" 
d="M75 -211v756q0 48 16 88t47.5 68t79 43.5t109.5 15.5t109.5 -15.5t79.5 -44t48 -68.5t16 -88q0 -61 -26 -103.5t-75 -62.5q28 -9 51 -25.5t40 -39.5t26.5 -50.5t9.5 -58.5q0 -47 -17.5 -87.5t-50 -69.5t-79.5 -45.5t-106 -16.5q-38 0 -80 10.5t-80 31.5v-238h-118z
M242 328v95h92q64 0 96 32t32 89q0 54 -35.5 87.5t-99.5 33.5t-99 -33t-35 -87v-422q38 -23 78.5 -33t82.5 -10q60 0 97 34.5t37 89.5q0 57 -35 90.5t-107 33.5h-104z" />
    <glyph glyph-name="gamma" unicode="&#x3b3;" horiz-adv-x="624" 
d="M22 553q25 -5 55 -7t55 -2h31q17 0 26 -7t14 -21l106 -293q8 -23 18 -55t18 -61q7 29 18 61t19 55l115 321h122l-216 -543v-202h-116v202l-179 450h-4q-19 0 -48 7t-51 19z" />
    <glyph glyph-name="delta" unicode="&#x3b4;" horiz-adv-x="638" 
d="M142 624q0 31 10.5 56t34 43t62 27.5t94.5 9.5q51 0 105 -8.5t102 -22.5l-24 -94q-45 14 -92 23t-91 9q-50 0 -67.5 -11t-17.5 -32q0 -11 4.5 -21.5t16.5 -22t32 -23.5t50 -27q63 -31 108.5 -61.5t75.5 -64t44 -72.5t14 -87q0 -62 -22 -110t-60.5 -81.5t-90 -51
t-111.5 -17.5t-111.5 17.5t-90 51t-60.5 81.5t-22 110q0 44 14.5 83.5t40 72.5t60.5 59t75 43q-83 55 -83 121zM151 245q0 -38 12.5 -69t34.5 -53t53 -33.5t68 -11.5t68 11.5t53 33.5t34.5 53t12.5 69q0 29 -6 54t-24 49t-51.5 49t-88.5 55q-82 -38 -124 -92t-42 -115z" />
    <glyph glyph-name="epsilon" unicode="&#x3b5;" horiz-adv-x="503" 
d="M468 32q-47 -24 -102.5 -35.5t-109.5 -11.5q-113 0 -164.5 46t-51.5 129q0 44 28 80.5t78 47.5q-40 12 -62.5 43t-22.5 67q0 79 46 120t146 41q54 0 104.5 -9.5t99.5 -28.5l-31 -91q-43 17 -87.5 25.5t-85.5 8.5q-39 0 -57.5 -18.5t-18.5 -47.5t19.5 -47t64.5 -18h115
v-95h-115q-57 0 -81 -22t-24 -56q0 -38 22 -59t73 -21q40 0 87.5 11t95.5 31z" />
    <glyph glyph-name="zeta" unicode="&#x3b6;" horiz-adv-x="502" 
d="M27 754q25 -5 55 -7t55 -2h311v-80q-57 -45 -101.5 -81.5t-79.5 -70.5q-112 -111 -112 -191q0 -22 7 -40.5t23.5 -36t43 -35t66.5 -36.5q51 -24 87.5 -47t59.5 -48.5t34 -55.5t11 -69q0 -81 -52 -125.5t-160 -44.5q-51 0 -96 10.5t-84 30.5l31 88q39 -17 79.5 -26.5
t69.5 -9.5q45 0 70.5 21t25.5 56q0 20 -5 36.5t-16.5 31t-31 28t-48.5 27.5q-56 26 -99 52t-72.5 55t-44.5 62.5t-15 74.5q0 51 25 100.5t72 94.5q38 37 82 71.5t89 64.5h-171q-32 0 -65.5 6.5t-60.5 19.5z" />
    <glyph glyph-name="eta" unicode="&#x3b7;" horiz-adv-x="630" 
d="M186 491q18 29 56.5 48.5t84.5 19.5q118 0 178 -60t60 -166v-544h-116v544q0 59 -35.5 96t-96.5 37t-96 -37t-35 -96v-333h-116v544h111z" />
    <glyph glyph-name="theta" unicode="&#x3b8;" horiz-adv-x="858" 
d="M818 373q0 -87 -27.5 -158.5t-78 -122t-122.5 -78.5t-161 -28t-161 28t-122.5 78.5t-78 122t-27.5 158.5t27.5 158.5t78 122t122.5 78.5t161 28t161 -28t122.5 -78.5t78 -122t27.5 -158.5zM429 81q59 0 106.5 19t82 52.5t55 80.5t25.5 104h-539q5 -57 26 -104t55.5 -80.5
t82 -52.5t106.5 -19zM429 665q-56 0 -102 -17t-80 -48t-56 -74.5t-29 -95.5h534q-8 52 -29.5 95.5t-56 74.5t-80 48t-101.5 17z" />
    <glyph glyph-name="iota" unicode="&#x3b9;" horiz-adv-x="331" 
d="M188 120q0 -40 36 -40q11 0 26.5 4t29.5 9l26 -90q-16 -8 -37.5 -13t-44.5 -5q-72 0 -112 31.5t-40 103.5v424h116v-424z" />
    <glyph glyph-name="kappa" unicode="&#x3ba;" horiz-adv-x="549" 
d="M312 272q11 -10 25 -24.5t25 -28.5l172 -219h-136l-212 269v-269h-116v544h116v-275l163 247q9 14 21 21t34 7h120v-93h-87l-81 -123q-10 -14 -21 -29t-23 -27z" />
    <glyph glyph-name="lambda" unicode="&#x3bb;" horiz-adv-x="647" 
d="M306 311q-6 16 -14 38.5t-13 40.5q-5 -18 -13 -40.5t-14 -38.5l-120 -311h-127l209 547l-41 105h-9q-21 0 -49.5 7t-49.5 19l17 76q24 -5 54 -7t56 -2h26q14 0 26 -7t17 -21l243 -601q8 -21 19.5 -29.5t24.5 -8.5q14 0 26 4.5t26 13.5l37 -86q-20 -11 -44.5 -18t-53.5 -7
q-51 0 -86 20.5t-55 73.5z" />
    <glyph glyph-name="uni03BC" unicode="&#x3bc;" horiz-adv-x="635" 
d="M186 -211h-116v755h116v-333q0 -59 35.5 -96t96.5 -37t96 37t35 96v333h116v-544h-111l-5 53q-17 -31 -54 -49.5t-82 -18.5q-79 0 -127 42v-238z" />
    <glyph glyph-name="nu" unicode="&#x3bd;" horiz-adv-x="568" 
d="M293 219q8 -26 16.5 -59.5t13.5 -60.5q5 27 13.5 60.5t16.5 59.5l100 325h110l-178 -544h-124l-148 451h-9q-19 0 -48 7t-51 19l17 76q25 -5 55 -7t55 -2h29q17 0 26 -7t14 -21z" />
    <glyph glyph-name="xi" unicode="&#x3be;" horiz-adv-x="502" 
d="M27 754q25 -5 55 -7t55 -2h309v-80q-59 -7 -99 -17t-64 -22.5t-34.5 -27t-10.5 -30.5q0 -26 33.5 -40t115.5 -14h15v-93h-15q-66 0 -110.5 -8.5t-72.5 -23.5t-40 -35.5t-12 -45.5q0 -17 7.5 -33t24.5 -32t44 -33t67 -36q51 -24 87.5 -47t59.5 -48.5t34 -55.5t11 -69
q0 -81 -52 -125.5t-160 -44.5q-51 0 -96 10.5t-84 30.5l31 88q39 -17 79.5 -26.5t69.5 -9.5q45 0 70.5 21t25.5 56q0 20 -5 36.5t-16.5 31t-31 28t-48.5 27.5q-112 53 -173 106.5t-61 124.5q0 70 48.5 113.5t146.5 48.5q-56 8 -82.5 34t-26.5 64q0 27 23.5 50.5t77.5 33.5
h-87q-32 0 -65.5 6.5t-60.5 19.5z" />
    <glyph glyph-name="omicron" unicode="&#x3bf;" horiz-adv-x="674" 
d="M523 272q0 42 -13 77.5t-37 61.5t-58.5 40.5t-77.5 14.5t-77.5 -14.5t-58.5 -40.5t-37 -61.5t-13 -77.5t13 -77.5t37 -61.5t58.5 -40.5t77.5 -14.5t77.5 14.5t58.5 40.5t37 61.5t13 77.5zM639 272q0 -65 -21.5 -117.5t-60.5 -90.5t-95 -58.5t-125 -20.5t-125 20.5
t-95 58.5t-60.5 90.5t-21.5 117.5q0 64 21.5 117t60.5 91t95 58.5t125 20.5t125 -20.5t95 -58.5t60.5 -91t21.5 -117z" />
    <glyph glyph-name="pi" unicode="&#x3c0;" horiz-adv-x="685" 
d="M27 553q25 -5 55 -7t55 -2h533v-93h-135v-331q0 -40 36 -40q11 0 26.5 4t29.5 9l26 -90q-16 -8 -37.5 -13t-44.5 -5q-72 0 -112 31.5t-40 103.5v331h-154v-451h-116v451h-13q-32 0 -65.5 6.5t-60.5 19.5z" />
    <glyph glyph-name="rho" unicode="&#x3c1;" horiz-adv-x="711" 
d="M370 466q-39 0 -72.5 -13.5t-58 -36.5t-39 -54.5t-14.5 -68.5v-42q0 -37 14.5 -68.5t39 -55t58 -36.5t72.5 -13q41 0 75.5 13.5t60 39t40 61t14.5 80.5t-14.5 80.5t-40 61t-60 39t-75.5 13.5zM70 272q0 64 20.5 117t59 91t95 58.5t128.5 20.5t128.5 -20.5t95 -58.5
t59 -91t20.5 -117q0 -65 -20 -117.5t-58.5 -90.5t-93.5 -58.5t-124 -20.5q-29 0 -58 6t-55 17t-47 26t-34 33v-278h-116v483z" />
    <glyph glyph-name="sigma" unicode="&#x3c3;" horiz-adv-x="689" 
d="M679 448h-94q26 -35 40 -79.5t14 -96.5q0 -65 -21.5 -117.5t-60.5 -90.5t-95 -58.5t-125 -20.5t-125 20.5t-95 58.5t-60.5 90.5t-21.5 117.5q0 64 21.5 117t60.5 91t95 58.5t125 20.5q30 0 57.5 -4t52.5 -12h232v-95zM523 272q0 42 -13 77.5t-37 61.5t-58.5 40.5
t-77.5 14.5t-77.5 -14.5t-58.5 -40.5t-37 -61.5t-13 -77.5t13 -77.5t37 -61.5t58.5 -40.5t77.5 -14.5t77.5 14.5t58.5 40.5t37 61.5t13 77.5z" />
    <glyph glyph-name="tau" unicode="&#x3c4;" horiz-adv-x="427" 
d="M22 553q25 -5 55 -7t55 -2h285v-93h-143v-331q0 -40 36 -40q11 0 26.5 4t29.5 9l26 -90q-16 -8 -37.5 -13t-44.5 -5q-72 0 -112 31.5t-40 103.5v331h-27q-32 0 -65.5 6.5t-60.5 19.5z" />
    <glyph glyph-name="upsilon" unicode="&#x3c5;" horiz-adv-x="622" 
d="M340 -15q-118 0 -180.5 60t-62.5 166v240h-5q-19 0 -44.5 6t-42.5 17l17 79q21 -5 46 -7t48 -2h59q38 0 38 -43v-290q0 -62 33 -97.5t94 -35.5q59 0 95 41.5t36 137.5q0 63 -18.5 130t-50.5 121l98 51q19 -27 35 -62.5t27.5 -75.5t18 -82t6.5 -82q0 -70 -17 -121
t-49.5 -84.5t-78 -50t-102.5 -16.5z" />
    <glyph glyph-name="phi" unicode="&#x3c6;" horiz-adv-x="718" 
d="M151 277q0 -73 37 -126t114 -68v309q0 78 40 122.5t121 44.5q47 0 87.5 -17t70 -52t46 -88t16.5 -125q0 -60 -19.5 -109.5t-55 -87t-84.5 -61t-108 -30.5v-200h-114v200q-59 7 -108 30.5t-84.5 61t-55 87t-19.5 109.5q0 83 34.5 154.5t100.5 120.5l73 -70
q-46 -42 -69 -92t-23 -113zM567 277q0 48 -8 83.5t-22 59t-32.5 35t-39.5 11.5q-49 0 -49 -74v-309q77 15 114 68t37 126z" />
    <glyph glyph-name="chi" unicode="&#x3c7;" horiz-adv-x="691" 
d="M113 451h-9q-19 0 -48 7t-51 19l17 76q25 -5 55 -7t55 -2h26q27 0 43 -28l95 -165q9 -16 21 -37t20 -37q10 17 23 38.5t23 36.5l125 192h131l-191 -295q-10 -16 -25 -37t-28 -37q11 -16 24 -36t21 -35l113 -194q19 -33 40 -33q29 0 56 18l37 -86q-20 -11 -44.5 -18
t-53.5 -7q-42 0 -76 18t-65 71l-75 129q-9 15 -20 36t-20 38q-10 -17 -23 -38t-23 -36l-138 -212h-130l205 317q10 15 24 35t27 36q-11 15 -24 36t-23 38z" />
    <glyph glyph-name="psi" unicode="&#x3c8;" horiz-adv-x="767" 
d="M441 85q69 14 107.5 64t38.5 131v264h116v-264q0 -129 -68.5 -203.5t-193.5 -88.5v-199h-114v199q-125 14 -193.5 88.5t-68.5 203.5v264h116v-264q0 -81 38.5 -131t107.5 -64v660h114v-660z" />
    <glyph glyph-name="omega" unicode="&#x3c9;" horiz-adv-x="788" 
d="M451 450v-277q0 -45 22 -70t63 -25q20 0 38 10t32 33t22.5 60t8.5 91q0 58 -17 115.5t-53 117.5l99 54q20 -30 36 -64.5t27.5 -71.5t17.5 -75.5t6 -75.5q0 -78 -17.5 -132.5t-46.5 -89t-66 -50t-77 -15.5q-55 0 -95 20t-57 51q-17 -31 -57 -51t-95 -20q-40 0 -77 15.5
t-66 50t-46.5 89t-17.5 132.5q0 75 23 151.5t64 135.5l99 -54q-36 -60 -53 -117.5t-17 -115.5q0 -54 8.5 -91t22.5 -60t32 -33t38 -10q41 0 63 25t22 70v277h114z" />
    <glyph glyph-name="SF100000" unicode="&#x2500;" 
d="M0 294v36h900v-36h-900z" />
    <glyph glyph-name="SF110000" unicode="&#x2502;" 
d="M431 -188v1000h38v-1000h-38z" />
    <glyph glyph-name="SF010000" unicode="&#x250c;" 
d="M469 294v-482h-38v518h469v-36h-431z" />
    <glyph glyph-name="SF030000" unicode="&#x2510;" 
d="M431 -188v482h-431v36h469v-518h-38z" />
    <glyph glyph-name="SF040000" unicode="&#x2518;" 
d="M0 294v36h431v482h38v-518h-469z" />
    <glyph glyph-name="SF020000" unicode="&#x2514;" 
d="M431 294v518h38v-482h431v-36h-469z" />
    <glyph glyph-name="SF080000" unicode="&#x251c;" 
d="M469 294v-482h-38v1000h38v-482h431v-36h-431z" />
    <glyph glyph-name="SF060000" unicode="&#x252c;" 
d="M469 294v-482h-38v482h-431v36h900v-36h-431z" />
    <glyph glyph-name="SF090000" unicode="&#x2524;" 
d="M431 -188v482h-431v36h431v482h38v-1000h-38z" />
    <glyph glyph-name="SF070000" unicode="&#x2534;" 
d="M0 294v36h431v482h38v-482h431v-36h-900z" />
    <glyph glyph-name="SF050000" unicode="&#x253c;" 
d="M469 294v-482h-38v482h-431v36h431v482h38v-482h431v-36h-431z" />
    <glyph glyph-name="uni2501" unicode="&#x2501;" 
d="M0 275v74h900v-74h-900z" />
    <glyph glyph-name="uni2503" unicode="&#x2503;" 
d="M411 -188v1000h78v-1000h-78z" />
    <glyph glyph-name="uni250F" unicode="&#x250f;" 
d="M489 275v-463h-78v537h489v-74h-411z" />
    <glyph glyph-name="uni2513" unicode="&#x2513;" 
d="M411 -188v463h-411v74h489v-537h-78z" />
    <glyph glyph-name="uni251B" unicode="&#x251b;" 
d="M0 275v74h411v463h78v-537h-489z" />
    <glyph glyph-name="uni2517" unicode="&#x2517;" 
d="M411 275v537h78v-463h411v-74h-489z" />
    <glyph glyph-name="uni2523" unicode="&#x2523;" 
d="M489 275v-463h-78v1000h78v-463h411v-74h-411z" />
    <glyph glyph-name="uni2533" unicode="&#x2533;" 
d="M489 275v-463h-78v463h-411v74h900v-74h-411z" />
    <glyph glyph-name="uni252B" unicode="&#x252b;" 
d="M411 -188v463h-411v74h411v463h78v-1000h-78z" />
    <glyph glyph-name="uni253B" unicode="&#x253b;" 
d="M0 275v74h411v463h78v-463h411v-74h-900z" />
    <glyph glyph-name="uni254B" unicode="&#x254b;" 
d="M489 275v-463h-78v463h-411v74h411v463h78v-463h411v-74h-411z" />
    <glyph glyph-name="uni2520" unicode="&#x2520;" 
d="M489 294v-482h-78v1000h78v-482h411v-36h-411z" />
    <glyph glyph-name="uni252F" unicode="&#x252f;" 
d="M469 275v-463h-38v463h-431v74h900v-74h-431z" />
    <glyph glyph-name="uni2528" unicode="&#x2528;" 
d="M411 -188v482h-411v36h411v482h78v-1000h-78z" />
    <glyph glyph-name="uni2537" unicode="&#x2537;" 
d="M0 275v74h431v463h38v-463h431v-74h-900z" />
    <glyph glyph-name="uni253F" unicode="&#x253f;" 
d="M469 275v-463h-38v463h-431v74h431v463h38v-463h431v-74h-431z" />
    <glyph glyph-name="uni251D" unicode="&#x251d;" 
d="M469 275v-463h-38v1000h38v-463h431v-74h-431z" />
    <glyph glyph-name="uni2530" unicode="&#x2530;" 
d="M489 294v-482h-78v482h-411v36h900v-36h-411z" />
    <glyph glyph-name="uni2525" unicode="&#x2525;" 
d="M431 -188v463h-431v74h431v463h38v-1000h-38z" />
    <glyph glyph-name="uni2538" unicode="&#x2538;" 
d="M0 294v36h411v482h78v-482h411v-36h-900z" />
    <glyph glyph-name="uni2542" unicode="&#x2542;" 
d="M489 294v-482h-78v482h-411v36h411v482h78v-482h411v-36h-411z" />
    <glyph glyph-name="uni2512" unicode="&#x2512;" 
d="M411 -188v482h-411v36h489v-518h-78z" />
    <glyph glyph-name="uni2511" unicode="&#x2511;" 
d="M431 -188v463h-431v74h469v-537h-38z" />
    <glyph glyph-name="uni251A" unicode="&#x251a;" 
d="M0 294v36h411v482h78v-518h-489z" />
    <glyph glyph-name="uni2519" unicode="&#x2519;" 
d="M0 275v74h431v463h38v-537h-469z" />
    <glyph glyph-name="uni2516" unicode="&#x2516;" 
d="M411 294v518h78v-482h411v-36h-489z" />
    <glyph glyph-name="uni2515" unicode="&#x2515;" 
d="M431 275v537h38v-463h431v-74h-469z" />
    <glyph glyph-name="uni250E" unicode="&#x250e;" 
d="M489 294v-482h-78v518h489v-36h-411z" />
    <glyph glyph-name="uni250D" unicode="&#x250d;" 
d="M469 275v-463h-38v537h469v-74h-431z" />
    <glyph glyph-name="uni251E" unicode="&#x251e;" 
d="M469 294v-482h-38v500h-20v500h78v-482h411v-36h-431z" />
    <glyph glyph-name="uni251F" unicode="&#x251f;" 
d="M489 294v-482h-78v500h20v500h38v-482h431v-36h-411z" />
    <glyph glyph-name="uni2521" unicode="&#x2521;" 
d="M469 275v-463h-38v500h-20v500h78v-463h411v-74h-431z" />
    <glyph glyph-name="uni2522" unicode="&#x2522;" 
d="M489 275v-463h-78v500h20v500h38v-463h431v-74h-411z" />
    <glyph glyph-name="uni2526" unicode="&#x2526;" 
d="M469 312v-500h-38v482h-431v36h411v482h78v-500h-20z" />
    <glyph glyph-name="uni2527" unicode="&#x2527;" 
d="M411 -188v482h-411v36h431v482h38v-500h20v-500h-78z" />
    <glyph glyph-name="uni2529" unicode="&#x2529;" 
d="M469 312v-500h-38v463h-431v74h411v463h78v-500h-20z" />
    <glyph glyph-name="uni252A" unicode="&#x252a;" 
d="M411 -188v463h-411v74h431v463h38v-500h20v-500h-78z" />
    <glyph glyph-name="uni252D" unicode="&#x252d;" 
d="M469 294v-482h-38v463h-431v74h450v-19h450v-36h-431z" />
    <glyph glyph-name="uni252E" unicode="&#x252e;" 
d="M469 275v-463h-38v482h-431v36h450v19h450v-74h-431z" />
    <glyph glyph-name="uni2531" unicode="&#x2531;" 
d="M489 294v-482h-78v463h-411v74h450v-19h450v-36h-411z" />
    <glyph glyph-name="uni2532" unicode="&#x2532;" 
d="M489 275v-463h-78v482h-411v36h450v19h450v-74h-411z" />
    <glyph glyph-name="uni2535" unicode="&#x2535;" 
d="M450 294v-19h-450v74h431v463h38v-482h431v-36h-450z" />
    <glyph glyph-name="uni2536" unicode="&#x2536;" 
d="M450 275v19h-450v36h431v482h38v-463h431v-74h-450z" />
    <glyph glyph-name="uni2539" unicode="&#x2539;" 
d="M450 294v-19h-450v74h411v463h78v-482h411v-36h-450z" />
    <glyph glyph-name="uni253A" unicode="&#x253a;" 
d="M450 275v19h-450v36h411v482h78v-463h411v-74h-450z" />
    <glyph glyph-name="uni253D" unicode="&#x253d;" 
d="M469 294v-482h-38v463h-431v74h431v463h38v-482h431v-36h-431z" />
    <glyph glyph-name="uni253E" unicode="&#x253e;" 
d="M469 275v-463h-38v482h-431v36h431v482h38v-463h431v-74h-431z" />
    <glyph glyph-name="uni2540" unicode="&#x2540;" 
d="M469 294v-482h-38v482h-431v36h411v482h78v-482h411v-36h-431z" />
    <glyph glyph-name="uni2541" unicode="&#x2541;" 
d="M489 294v-482h-78v482h-411v36h431v482h38v-482h431v-36h-411z" />
    <glyph glyph-name="uni2543" unicode="&#x2543;" 
d="M469 294v-482h-38v463h-431v74h411v463h78v-482h411v-36h-431z" />
    <glyph glyph-name="uni2544" unicode="&#x2544;" 
d="M469 275v-463h-38v482h-431v36h411v482h78v-463h411v-74h-431z" />
    <glyph glyph-name="uni2545" unicode="&#x2545;" 
d="M489 294v-482h-78v463h-411v74h431v463h38v-482h431v-36h-411z" />
    <glyph glyph-name="uni2546" unicode="&#x2546;" 
d="M489 275v-463h-78v482h-411v36h431v482h38v-463h431v-74h-411z" />
    <glyph glyph-name="uni2547" unicode="&#x2547;" 
d="M469 275v-463h-38v463h-431v74h411v463h78v-463h411v-74h-431z" />
    <glyph glyph-name="uni2548" unicode="&#x2548;" 
d="M489 275v-463h-78v463h-411v74h431v463h38v-463h431v-74h-411z" />
    <glyph glyph-name="uni2549" unicode="&#x2549;" 
d="M489 294v-482h-78v463h-411v74h411v463h78v-482h411v-36h-411z" />
    <glyph glyph-name="uni254A" unicode="&#x254a;" 
d="M489 275v-463h-78v482h-411v36h411v482h78v-463h411v-74h-411z" />
    <glyph glyph-name="uni3395" unicode="&#x3395;" 
d="M461 192q18 8 34.5 16t32.5 16q-11 48 -15.5 101t-4.5 117q0 162 48 240t136 78q81 0 123.5 -50t42.5 -159q0 -105 -48.5 -200t-155.5 -170q10 -33 25 -62q10 -20 25.5 -29.5t33.5 -9.5q31 0 63 18l31 -88q-20 -12 -45.5 -18.5t-48.5 -6.5q-55 0 -98 26.5t-72 91.5
q-3 5 -5.5 10.5t-4.5 10.5q-13 -6 -27 -12l-28 -12zM142 -211h-111l132 755h112l-72 -409q-5 -30 5 -43.5t32 -13.5q27 0 46.5 20.5t27.5 67.5l66 378h112l-95 -544h-107l5 29q-10 -19 -27.5 -31.5t-39.5 -12.5q-17 0 -29 6t-18 16zM624 442q0 -42 1.5 -78.5t5.5 -69.5
q60 53 85.5 116t25.5 141q0 60 -13 87t-37 27q-17 0 -29.5 -11.5t-21 -38t-13 -69t-4.5 -104.5z" />
    <glyph glyph-name="uni3396" unicode="&#x3396;" 
d="M502 192q18 8 34.5 16t32.5 16q-11 48 -15.5 101t-4.5 117q0 160 44 239t128 79q78 0 118 -51t40 -158q0 -106 -43 -200t-142 -168q5 -17 11 -33t13 -31q9 -21 21.5 -30t29.5 -9q27 0 53 18l32 -88q-38 -25 -85 -25q-54 0 -92.5 26t-67.5 92q-5 9 -10 22
q-13 -7 -26.5 -13t-27.5 -12zM282 498q9 31 34 46t55 15q57 0 88 -33t31 -108v-418h-106v418q0 26 -8 37t-27 11q-17 0 -25.5 -11t-8.5 -37v-418h-104v418q0 26 -8.5 37t-26.5 11t-26 -11t-8 -37v-418h-106v544h101l5 -26q8 20 25.5 30.5t35.5 10.5q32 0 52.5 -15t26.5 -46z
M663 442q0 -41 1.5 -76t5.5 -67q53 52 74 114t21 138q0 60 -10.5 87t-33.5 27q-14 0 -25 -11.5t-18.5 -38t-11 -69t-3.5 -104.5z" />
    <glyph glyph-name="uni3397" unicode="&#x3397;" 
d="M237 559q15 0 31 -2t31 -6.5t27 -11t19 -15.5v241h114v-765h-109l-5 38q-13 -26 -44 -39.5t-64 -13.5q-98 0 -148 74.5t-50 212.5t50 212.5t148 74.5zM466 192q18 8 34.5 16t32.5 16q-11 48 -15.5 101t-4.5 117q0 162 48 240t136 78q81 0 123.5 -50t42.5 -159
q0 -105 -48.5 -200t-155.5 -170q10 -33 25 -62q10 -20 25.5 -29.5t33.5 -9.5q31 0 63 18l31 -88q-20 -12 -45.5 -18.5t-48.5 -6.5q-55 0 -98 26.5t-72 91.5q-3 5 -5.5 10.5t-4.5 10.5q-13 -6 -27 -12l-28 -12zM252 466q-48 0 -73.5 -46.5t-25.5 -147.5t25.5 -147.5
t73.5 -46.5q41 0 67 40.5t26 112.5v82q0 72 -26 112.5t-67 40.5zM629 442q0 -42 1.5 -78.5t5.5 -69.5q60 53 85.5 116t25.5 141q0 60 -13 87t-37 27q-17 0 -29.5 -11.5t-21 -38t-13 -69t-4.5 -104.5z" />
    <glyph glyph-name="afii61289" unicode="&#x2113;" horiz-adv-x="508" 
d="M25 192q20 8 39.5 16t37.5 16q-15 52 -22.5 107t-7.5 111q0 157 56.5 237.5t150.5 80.5q92 0 135.5 -57t43.5 -157q0 -106 -55.5 -198t-164.5 -164q8 -24 21 -49q26 -55 64 -55q26 0 59 19l33 -87q-20 -12 -45 -19.5t-47 -7.5q-57 0 -98.5 25t-74.5 90q-4 7 -7.5 13.5
t-6.5 14.5q-17 -8 -34 -14.5t-35 -13.5zM190 442q0 -82 16 -153q66 51 100 115t34 142q0 60 -14 89.5t-47 29.5q-41 0 -65 -52t-24 -171z" />
    <glyph glyph-name="uni3398" unicode="&#x3398;" 
d="M427 192q17 8 34 15.5t33 15.5q-11 48 -15.5 101.5t-4.5 117.5q0 162 53 240t146 78q41 0 74.5 -12t57 -37.5t36.5 -65t13 -94.5q0 -109 -57.5 -204.5t-175.5 -170.5q9 -30 24 -57q20 -39 69 -39q32 0 64 18l31 -88q-20 -12 -46 -18.5t-49 -6.5q-59 0 -104 26t-76 92
l-9 21q-26 -13 -56 -24zM476 0h-129l-165 269v-269h-112v765h112v-496l157 275h122l-119 -216q-8 -15 -18.5 -30t-19.5 -26q11 -12 20.5 -25.5t17.5 -27.5zM590 442q0 -44 1.5 -81.5t6.5 -72.5q140 110 140 263q0 60 -16 87t-49 27q-19 0 -34 -11.5t-26 -38t-17 -69
t-6 -104.5z" />
    <glyph glyph-name="uni33C4" unicode="&#x33c4;" 
d="M316 559q36 0 67 -4t65 -13l-21 -92q-52 16 -111 16q-39 0 -70 -14t-52.5 -39.5t-33.5 -61t-12 -79.5t12 -79.5t33.5 -61t52.5 -39.5t70 -14q34 0 61.5 5t58.5 18l27 -89q-36 -15 -71 -21t-76 -6q-68 0 -120.5 20t-89 57t-55.5 90.5t-19 119.5t19 119.5t55.5 90.5t89 57
t120.5 20zM723 559q36 0 67 -4t65 -13l-21 -92q-52 16 -111 16q-39 0 -70 -14t-52.5 -39.5t-33.5 -61t-12 -79.5t12 -79.5t33.5 -61t52.5 -39.5t70 -14q34 0 61.5 5t58.5 18l27 -89q-36 -15 -71 -21t-76 -6q-68 0 -120.5 20t-89 57t-55.5 90.5t-19 119.5t19 119.5t55.5 90.5
t89 57t120.5 20z" />
    <glyph glyph-name="uni33A3" unicode="&#x33a3;" 
d="M706 654q18 -6 34.5 -8.5t32.5 -2.5q36 0 36 27q0 14 -7.5 20.5t-27.5 6.5h-47v63h47q15 0 21 6.5t6 18.5q0 9 -5.5 15t-21.5 6q-14 0 -30 -2t-33 -8l-15 63q18 6 42 9t43 3q51 0 75 -21.5t24 -59.5q0 -44 -30 -60q37 -19 37 -66q0 -42 -26.5 -64t-78.5 -22q-9 0 -21 1
t-24.5 3t-24 4.5t-20.5 6.5zM266 508q8 23 27.5 37t48.5 14q40 0 65 -27.5t25 -94.5v-437h-98v431q0 35 -24 35t-24 -35v-431h-98v431q0 35 -24 35t-24 -35v-431h-100v544h95l5 -22q8 17 24.5 27t33.5 10q26 0 44 -13.5t24 -37.5zM692 508q8 23 27.5 37t48.5 14
q40 0 66 -27.5t26 -94.5v-437h-100v431q0 35 -24 35t-24 -35v-431h-98v431q0 35 -24 35t-24 -35v-431h-98v544h93l5 -22q8 17 24.5 27t33.5 10q26 0 44 -13.5t24 -37.5z" />
    <glyph glyph-name="uni33A4" unicode="&#x33a4;" 
d="M247 559q28 0 60.5 -4.5t60.5 -14.5l-24 -90q-21 8 -44.5 12t-47.5 4q-50 0 -78.5 -49t-28.5 -145t28.5 -145t78.5 -49q57 0 97 24l34 -86q-51 -31 -136 -31q-103 0 -158.5 75t-55.5 212t55.5 212t158.5 75zM660 493q8 32 32 49t53 17q114 0 114 -136v-423h-108v417
q0 23 -7 36t-27 13t-27 -13t-7 -36v-417h-106v417q0 23 -7.5 36t-27.5 13t-26.5 -13t-6.5 -36v-417h-108v544h103l5 -29q7 19 24.5 31.5t39.5 12.5q35 0 58.5 -16t28.5 -50zM706 654q18 -6 34.5 -8.5t32.5 -2.5q36 0 36 27q0 14 -7.5 20.5t-27.5 6.5h-47v63h47q15 0 21 6.5
t6 18.5q0 9 -5.5 15t-21.5 6q-14 0 -30 -2t-33 -8l-15 63q18 6 42 9t43 3q51 0 75 -21.5t24 -59.5q0 -44 -30 -60q37 -19 37 -66q0 -42 -26.5 -64t-78.5 -22q-9 0 -21 1t-24.5 3t-24 4.5t-20.5 6.5z" />
    <glyph glyph-name="uni33A5" unicode="&#x33a5;" 
d="M469 473q19 39 57 62.5t86 23.5q101 0 154.5 -51t53.5 -145v-363h-116v363q0 53 -25 83t-73 30t-73 -30t-25 -83v-363h-116v363q0 53 -25 83t-73 30t-73 -30t-25 -83v-363h-116v544h111l5 -49q16 27 49 45.5t67 18.5q66 0 104.5 -23.5t52.5 -62.5zM683 654
q18 -6 34.5 -8.5t32.5 -2.5q36 0 36 27q0 14 -7.5 20.5t-27.5 6.5h-47v63h47q15 0 21 6.5t6 18.5q0 9 -5.5 15t-21.5 6q-14 0 -30 -2t-33 -8l-15 63q18 6 42 9t43 3q51 0 75 -21.5t24 -59.5q0 -44 -30 -60q37 -19 37 -66q0 -42 -26.5 -64t-78.5 -22q-9 0 -21 1t-24.5 3
t-24 4.5t-20.5 6.5z" />
    <glyph glyph-name="uni33A6" unicode="&#x33a6;" 
d="M662 493q8 32 31.5 49t52.5 17q113 0 113 -136v-423h-108v417q0 23 -6.5 36t-26.5 13t-26.5 -13t-6.5 -36v-417h-106v417q0 23 -7 36t-27 13t-26 -13t-6 -36v-417h-108v544h103l5 -29q7 19 24 31.5t39 12.5q35 0 58 -16t28 -50zM391 0h-115l-127 269v-269h-108v765h108
v-496l115 275h112l-92 -216q-7 -15 -14.5 -30t-15.5 -26q7 -10 15.5 -25t14.5 -28zM706 654q18 -6 34.5 -8.5t32.5 -2.5q36 0 36 27q0 14 -7.5 20.5t-27.5 6.5h-47v63h47q15 0 21 6.5t6 18.5q0 9 -5.5 15t-21.5 6q-14 0 -30 -2t-33 -8l-15 63q18 6 42 9t43 3q51 0 75 -21.5
t24 -59.5q0 -44 -30 -60q37 -19 37 -66q0 -42 -26.5 -64t-78.5 -22q-9 0 -21 1t-24.5 3t-24 4.5t-20.5 6.5z" />
    <glyph glyph-name="uni3399" unicode="&#x3399;" 
d="M637 495q8 32 32.5 48t53.5 16q115 0 115 -136v-423h-110v419q0 23 -7.5 35t-25.5 12q-34 0 -34 -47v-419h-108v419q0 47 -34 47q-18 0 -25.5 -12t-7.5 -35v-419h-110v544h105l5 -29q8 19 26 31.5t39 12.5q35 0 58 -16t28 -48zM41 553q20 -4 45 -6t48 -3v81
q0 76 39 115.5t123 39.5q23 0 47.5 -4t44.5 -11l-20 -90q-15 5 -34 7.5t-38 2.5q-46 0 -46 -60v-81h107v-93h-107v-451h-116v451q-29 2 -58 8.5t-52 17.5z" />
    <glyph glyph-name="uni339A" unicode="&#x339a;" 
d="M146 514q11 20 35.5 32.5t59.5 12.5q69 0 106.5 -41t37.5 -129v-389h-110v389q0 77 -65 77q-64 0 -64 -77v-389h-110v544h105zM675 493q6 31 28.5 48.5t53.5 17.5q55 0 80.5 -35t25.5 -101v-423h-104v423q0 21 -7 32t-24 11t-24 -11t-7 -32v-423h-102v423q0 43 -32 43
q-17 0 -23.5 -11t-6.5 -32v-423h-104v544h99l5 -27q6 18 23 30t40 12q32 0 53 -17t26 -49z" />
    <glyph glyph-name="uni339B" unicode="&#x339b;" 
d="M108 -211h-97l132 755h98l-72 -409q-5 -31 3 -44t26 -13q20 0 35.5 19t24.5 69l66 378h98l-95 -544h-93l4 25q-15 -40 -54 -40q-24 0 -37 22zM680 493q6 31 28.5 48.5t53.5 17.5q55 0 80.5 -35t25.5 -101v-423h-104v423q0 21 -7 32t-24 11t-24 -11t-7 -32v-423h-102v423
q0 43 -32 43q-17 0 -23.5 -11t-6.5 -32v-423h-104v544h99l5 -27q6 18 23 30t40 12q32 0 53 -17t26 -49z" />
    <glyph glyph-name="uni339C" unicode="&#x339c;" 
d="M266 508q8 23 27.5 37t48.5 14q40 0 65 -27.5t25 -94.5v-437h-98v431q0 35 -24 35t-24 -35v-431h-98v431q0 35 -24 35t-24 -35v-431h-100v544h95l5 -22q8 17 24.5 27t33.5 10q26 0 44 -13.5t24 -37.5zM692 508q8 23 27.5 37t48.5 14q40 0 66 -27.5t26 -94.5v-437h-100
v431q0 35 -24 35t-24 -35v-431h-98v431q0 35 -24 35t-24 -35v-431h-98v544h93l5 -22q8 17 24.5 27t33.5 10q26 0 44 -13.5t24 -37.5z" />
    <glyph glyph-name="uni339D" unicode="&#x339d;" 
d="M247 559q28 0 60.5 -4.5t60.5 -14.5l-24 -90q-21 8 -44.5 12t-47.5 4q-50 0 -78.5 -49t-28.5 -145t28.5 -145t78.5 -49q57 0 97 24l34 -86q-51 -31 -136 -31q-103 0 -158.5 75t-55.5 212t55.5 212t158.5 75zM660 493q8 32 32 49t53 17q114 0 114 -136v-423h-108v417
q0 23 -7 36t-27 13t-27 -13t-7 -36v-417h-106v417q0 23 -7.5 36t-27.5 13t-26.5 -13t-6.5 -36v-417h-108v544h103l5 -29q7 19 24.5 31.5t39.5 12.5q35 0 58.5 -16t28.5 -50z" />
    <glyph glyph-name="uni339E" unicode="&#x339e;" 
d="M662 493q8 32 31.5 49t52.5 17q113 0 113 -136v-423h-108v417q0 23 -6.5 36t-26.5 13t-26.5 -13t-6.5 -36v-417h-106v417q0 23 -7 36t-27 13t-26 -13t-6 -36v-417h-108v544h103l5 -29q7 19 24 31.5t39 12.5q35 0 58 -16t28 -50zM391 0h-115l-127 269v-269h-108v765h108
v-496l115 275h112l-92 -216q-7 -15 -14.5 -30t-15.5 -26q7 -10 15.5 -25t14.5 -28z" />
    <glyph glyph-name="uni339F" unicode="&#x339f;" 
d="M266 508q8 23 27.5 37t48.5 14q40 0 65 -27.5t25 -94.5v-437h-98v431q0 35 -24 35t-24 -35v-431h-98v431q0 35 -24 35t-24 -35v-431h-100v544h95l5 -22q8 17 24.5 27t33.5 10q26 0 44 -13.5t24 -37.5zM692 508q8 23 27.5 37t48.5 14q40 0 66 -27.5t26 -94.5v-437h-100
v431q0 35 -24 35t-24 -35v-431h-98v431q0 35 -24 35t-24 -35v-431h-98v544h93l5 -22q8 17 24.5 27t33.5 10q26 0 44 -13.5t24 -37.5zM775 806q-15 0 -30.5 -4.5t-34.5 -12.5l-19 63q19 9 43.5 14t50.5 5q47 0 71 -22.5t24 -61.5q0 -32 -13.5 -55t-41.5 -48l-40 -35h100v-66
h-197v66l58 52q32 28 43.5 45.5t11.5 34.5q0 25 -26 25z" />
    <glyph glyph-name="uni33A0" unicode="&#x33a0;" 
d="M247 559q28 0 60.5 -4.5t60.5 -14.5l-24 -90q-21 8 -44.5 12t-47.5 4q-50 0 -78.5 -49t-28.5 -145t28.5 -145t78.5 -49q57 0 97 24l34 -86q-51 -31 -136 -31q-103 0 -158.5 75t-55.5 212t55.5 212t158.5 75zM660 493q8 32 32 49t53 17q114 0 114 -136v-423h-108v417
q0 23 -7 36t-27 13t-27 -13t-7 -36v-417h-106v417q0 23 -7.5 36t-27.5 13t-26.5 -13t-6.5 -36v-417h-108v544h103l5 -29q7 19 24.5 31.5t39.5 12.5q35 0 58.5 -16t28.5 -50zM775 806q-15 0 -30.5 -4.5t-34.5 -12.5l-19 63q19 9 43.5 14t50.5 5q47 0 71 -22.5t24 -61.5
q0 -32 -13.5 -55t-41.5 -48l-40 -35h100v-66h-197v66l58 52q32 28 43.5 45.5t11.5 34.5q0 25 -26 25z" />
    <glyph glyph-name="uni33A1" unicode="&#x33a1;" 
d="M469 473q19 39 57 62.5t86 23.5q101 0 154.5 -51t53.5 -145v-363h-116v363q0 53 -25 83t-73 30t-73 -30t-25 -83v-363h-116v363q0 53 -25 83t-73 30t-73 -30t-25 -83v-363h-116v544h111l5 -49q16 27 49 45.5t67 18.5q66 0 104.5 -23.5t52.5 -62.5zM752 806
q-15 0 -30.5 -4.5t-34.5 -12.5l-19 63q19 9 43.5 14t50.5 5q47 0 71 -22.5t24 -61.5q0 -32 -13.5 -55t-41.5 -48l-40 -35h100v-66h-197v66l58 52q32 28 43.5 45.5t11.5 34.5q0 25 -26 25z" />
    <glyph glyph-name="uni33A2" unicode="&#x33a2;" 
d="M662 493q8 32 31.5 49t52.5 17q113 0 113 -136v-423h-108v417q0 23 -6.5 36t-26.5 13t-26.5 -13t-6.5 -36v-417h-106v417q0 23 -7 36t-27 13t-26 -13t-6 -36v-417h-108v544h103l5 -29q7 19 24 31.5t39 12.5q35 0 58 -16t28 -50zM391 0h-115l-127 269v-269h-108v765h108
v-496l115 275h112l-92 -216q-7 -15 -14.5 -30t-15.5 -26q7 -10 15.5 -25t14.5 -28zM775 806q-15 0 -30.5 -4.5t-34.5 -12.5l-19 63q19 9 43.5 14t50.5 5q47 0 71 -22.5t24 -61.5q0 -32 -13.5 -55t-41.5 -48l-40 -35h100v-66h-197v66l58 52q32 28 43.5 45.5t11.5 34.5
q0 25 -26 25z" />
    <glyph glyph-name="uni33CA" unicode="&#x33ca;" 
d="M149 510q16 22 44.5 35.5t64.5 13.5q93 0 134.5 -50.5t41.5 -150.5v-358h-114v358q0 57 -22 82.5t-61 25.5q-43 0 -65.5 -25.5t-22.5 -82.5v-358h-114v765h114v-255zM671 466q-61 0 -131 -33l-33 92q38 17 80 25.5t84 8.5q97 0 146 -43t49 -134v-382h-106l-4 29
q-18 -20 -46.5 -32t-60.5 -12q-92 0 -143 49.5t-51 134.5t51 134.5t143 49.5q28 0 56 -4t47 -11v44q0 40 -20.5 62t-60.5 22zM656 78q47 0 71.5 22t24.5 57v93q-24 6 -48 8t-48 2q-38 0 -62.5 -25t-24.5 -66q0 -42 24.5 -66.5t62.5 -24.5z" />
    <glyph glyph-name="uni338D" unicode="&#x338d;" 
d="M869 -36q0 -88 -48.5 -134t-136.5 -46q-89 0 -162 43l35 87q35 -20 63.5 -28.5t59.5 -8.5q35 0 55 24t20 63v77q-14 -22 -38.5 -34t-56.5 -12q-98 0 -144.5 70.5t-46.5 211.5t46 211.5t143 70.5q35 0 61 -14t36 -35l5 34h109v-580zM668 88q87 0 87 153v72q0 153 -87 153
q-41 0 -63 -43t-22 -146q0 -52 5.5 -88t16.5 -58.5t26.5 -32.5t36.5 -10zM127 -211h-111l132 755h112l-72 -409q-5 -30 5 -43.5t33 -13.5q28 0 47.5 21t27.5 67l66 378h112l-95 -544h-107l5 29q-10 -20 -28 -32t-40 -12q-35 0 -48 22z" />
    <glyph glyph-name="uni338E" unicode="&#x338e;" 
d="M291 493q7 30 30 48t54 18q53 0 83.5 -32t30.5 -108v-419h-108v419q0 47 -33 47t-33 -47v-419h-106v419q0 47 -33 47t-33 -47v-419h-108v544h103l5 -29q7 20 25 32t40 12q35 0 56.5 -17.5t26.5 -48.5zM871 -54q0 -85 -42.5 -123.5t-124.5 -38.5q-35 0 -73 10.5t-67 30.5
l39 86q56 -34 101 -34q55 0 55 69v78q-27 -29 -83 -29q-83 0 -124 66.5t-41 215.5t41 215.5t124 66.5q32 0 52.5 -11.5t30.5 -28.5l5 25h107v-598zM693 88q32 0 49 36t17 117v72q0 81 -17 117t-49 36q-17 0 -30 -9.5t-22 -31.5t-13.5 -58t-4.5 -90t4.5 -90t13.5 -58
t22 -31.5t30 -9.5z" />
    <glyph glyph-name="uni338F" unicode="&#x338f;" 
d="M841 -36q0 -87 -51.5 -133.5t-143.5 -46.5q-47 0 -91 10.5t-81 32.5l35 87q35 -20 68 -28.5t65 -8.5q39 0 62 24t23 63v77q-14 -22 -43.5 -34t-61.5 -12q-98 0 -149.5 70.5t-51.5 211.5t51 211.5t148 70.5q35 0 66 -14t41 -35l5 34h109v-580zM470 1h-127l-166 268v-268
h-112v763h112v-495l157 274h121l-120 -215q-8 -14 -19 -29.5t-22 -26.5q11 -11 22 -25.5t19 -27.5zM630 88q46 0 71.5 38t25.5 115v72q0 77 -25.5 115t-71.5 38q-44 0 -69.5 -43t-25.5 -146q0 -52 6.5 -88t19 -58.5t30 -32.5t39.5 -10z" />
    <glyph glyph-name="uni33CF" unicode="&#x33cf;" 
d="M535 0h-135l-193 269v-269h-116v765h116v-496l184 275h129l-140 -216q-9 -14 -22 -30t-24 -26q11 -10 23 -24.5t23 -28.5zM532 553q19 -4 41 -6t44 -3v191h116v-191h101v-93h-101v-331q0 -40 36 -40q11 0 26.5 4t29.5 9l26 -90q-16 -8 -37.5 -13t-44.5 -5
q-72 0 -112 31.5t-40 103.5v332q-27 2 -53.5 8t-48.5 17z" />
    <glyph glyph-name="uni3388" unicode="&#x3388;" 
d="M243 559q21 0 42.5 -2.5t46.5 -9.5l-20 -91q-34 10 -69 10q-43 0 -67 -45t-24 -149t24 -149t67 -45q23 0 40 5t35 14l29 -88q-23 -11 -49 -17.5t-55 -6.5q-103 0 -154 69t-51 218t51 218t154 69zM528 466q-23 0 -48.5 -7t-48.5 -18l-33 86q31 15 67.5 23.5t72.5 8.5
q79 0 116 -39t37 -112v-408h-106l-4 25q-11 -17 -33 -28.5t-48 -11.5q-75 0 -113.5 47t-38.5 137t39 137t118 47q20 0 40 -3.5t32 -8.5v67q0 30 -13 44t-36 14zM518 78q29 0 44 16.5t15 46.5v112q-14 5 -30.5 6t-28.5 1q-25 0 -40.5 -23.5t-15.5 -67.5t15.5 -67.5
t40.5 -23.5zM857 0h-114v765h114v-765z" />
    <glyph glyph-name="uni3389" unicode="&#x3389;" 
d="M302 0h-98l-86 269v-269h-96v765h96v-496l76 275h93l-58 -216q-4 -14 -10 -29.5t-13 -26.5q7 -11 12.5 -25.5t10.5 -27.5zM626 466q-29 0 -54 -17l-35 85q45 25 103 25q57 0 85.5 -34.5t28.5 -106.5v-418h-84l-4 18q-8 -14 -21.5 -23.5t-30.5 -9.5q-119 0 -119 184
t119 184q10 0 25 -2t23 -6v73q0 26 -9.5 37t-26.5 11zM880 0h-95v765h95v-765zM422 559q17 0 35 -2.5t35 -8.5l-19 -91q-12 5 -24.5 7t-26.5 2q-27 0 -42.5 -45t-15.5 -149t15.5 -149t42.5 -45q17 0 30 3t28 11l27 -86q-20 -11 -41.5 -16t-43.5 -5q-75 0 -114 72.5
t-39 214.5t39 214.5t114 72.5zM626 78q36 0 36 43v133q-9 3 -18.5 4.5t-17.5 1.5q-36 0 -36 -91t36 -91z" />
    <glyph glyph-name="uni33C8" unicode="&#x33c8;" 
d="M466 745h185q100 0 150 -54.5t50 -154.5q0 -54 -22.5 -96t-62.5 -62q50 -14 80.5 -58t30.5 -113q0 -104 -57 -159.5t-168 -55.5q-26 0 -52 1t-51 2.5t-46.5 4t-36.5 4.5v741zM763 207q0 60 -30 90.5t-85 30.5h-68v-235q28 -6 68 -6q55 0 85 29.5t30 90.5zM648 423
q42 0 65.5 27t23.5 86q0 58 -23.5 86t-65.5 28h-68v-227h68zM211 559q32 0 59.5 -9t42.5 -26v241h112v-765h-107l-5 34q-11 -23 -39 -36t-63 -13q-91 0 -138.5 73.5t-47.5 213.5t47.5 213.5t138.5 73.5zM228 466q-45 0 -68 -46.5t-23 -147.5t23 -147.5t68 -46.5
q39 0 62 40.5t23 112.5v82q0 72 -23 112.5t-62 40.5z" />
    <glyph glyph-name="uni33A7" unicode="&#x33a7;" 
d="M262 719q8 18 26 29.5t47 11.5q49 0 77 -28t28 -87v-278h-91v267q0 20 -6.5 28.5t-21.5 8.5q-14 0 -20.5 -8.5t-6.5 -28.5v-267h-90v267q0 20 -6.5 28.5t-20.5 8.5q-15 0 -21 -8.5t-6 -28.5v-267h-92v382h88l4 -22q5 14 20 23.5t32 9.5q24 0 40 -12t20 -29zM719 303
q-36 0 -36 -26q0 -25 29 -35l54 -19q48 -17 68 -44t21 -69q1 -57 -34.5 -91t-107.5 -34q-37 0 -72 9t-64 25l33 81q26 -15 50 -22.5t43 -7.5q25 0 36.5 12t11.5 30q0 29 -34 42l-53 19q-38 14 -61 39t-23 67q0 48 31.5 79t97.5 31q26 0 60 -4.5t62 -12.5l-18 -84
q-26 8 -51 11.5t-43 3.5zM389 -20h-95l373 785h95z" />
    <glyph glyph-name="uni33A8" unicode="&#x33a8;" 
d="M241 719q8 18 26 29.5t47 11.5q49 0 77 -28t28 -87v-278h-91v267q0 20 -6.5 28.5t-21.5 8.5q-14 0 -20.5 -8.5t-6.5 -28.5v-267h-90v267q0 20 -6.5 28.5t-20.5 8.5q-15 0 -21 -8.5t-6 -28.5v-267h-92v382h88l4 -22q5 14 20 23.5t32 9.5q24 0 40 -12t20 -29zM678 303
q-36 0 -36 -26q0 -25 29 -35l54 -19q48 -17 68 -44t21 -69q1 -57 -34.5 -91t-107.5 -34q-37 0 -72 9t-64 25l33 81q26 -15 50 -22.5t43 -7.5q25 0 36.5 12t11.5 30q0 29 -34 42l-53 19q-38 14 -61 39t-23 67q0 48 31.5 79t97.5 31q26 0 60 -4.5t62 -12.5l-18 -84
q-26 8 -51 11.5t-43 3.5zM360 -20h-95l351 785h95zM775 644q-15 0 -30.5 -4.5t-34.5 -12.5l-19 63q19 9 43.5 14t50.5 5q47 0 71 -22.5t24 -61.5q0 -32 -13.5 -55t-41.5 -48l-40 -35h100v-66h-197v66l58 52q32 28 43.5 45.5t11.5 34.5q0 25 -26 25z" />
    <glyph glyph-name="uni33B0" unicode="&#x33b0;" 
d="M658 466q-31 0 -45 -14.5t-14 -36.5q0 -23 11.5 -39t29.5 -24l100 -44q63 -27 91.5 -67t28.5 -92q0 -75 -48.5 -119.5t-143.5 -44.5q-48 0 -97.5 13.5t-91.5 36.5l36 85q37 -20 76 -31t77 -11t56.5 19.5t18.5 51.5q0 57 -44 76l-100 44q-56 24 -86 59.5t-30 86.5
q0 31 10 57.5t31.5 45.5t54.5 30t79 11q41 0 85.5 -5.5t83.5 -16.5l-20 -92q-83 21 -149 21zM283 -15q-34 0 -64 10.5t-46 27.5v-234h-114v755h109l5 -38q14 23 42.5 38t67.5 15q97 0 146.5 -73.5t49.5 -213.5t-49.5 -213.5t-146.5 -73.5zM266 78q50 0 74.5 45.5t24.5 148.5
t-24.5 148.5t-74.5 45.5q-42 0 -67.5 -39.5t-25.5 -113.5v-82q0 -74 25.5 -113.5t67.5 -39.5z" />
    <glyph glyph-name="uni33B1" unicode="&#x33b1;" 
d="M174 519q13 17 45 28.5t65 11.5q80 0 127.5 -46.5t47.5 -137.5v-375h-114v375q0 45 -22.5 68t-63.5 23q-39 0 -62 -23t-23 -68v-375h-114v544h109zM663 466q-31 0 -45 -14.5t-14 -36.5q0 -23 11.5 -39t29.5 -24l100 -44q63 -27 91.5 -67t28.5 -92q0 -75 -48.5 -119.5
t-143.5 -44.5q-48 0 -97.5 13.5t-91.5 36.5l36 85q37 -20 76 -31t77 -11t56.5 19.5t18.5 51.5q0 57 -44 76l-100 44q-56 24 -86 59.5t-30 86.5q0 31 10 57.5t31.5 45.5t54.5 30t79 11q41 0 85.5 -5.5t83.5 -16.5l-20 -92q-83 21 -149 21z" />
    <glyph glyph-name="uni33B2" unicode="&#x33b2;" 
d="M668 466q-31 0 -45 -14.5t-14 -36.5q0 -23 11.5 -39t29.5 -24l100 -44q63 -27 91.5 -67t28.5 -92q0 -75 -48.5 -119.5t-143.5 -44.5q-48 0 -97.5 13.5t-91.5 36.5l36 85q37 -20 76 -31t77 -11t56.5 19.5t18.5 51.5q0 57 -44 76l-100 44q-56 24 -86 59.5t-30 86.5
q0 31 10 57.5t31.5 45.5t54.5 30t79 11q41 0 85.5 -5.5t83.5 -16.5l-20 -92q-83 21 -149 21zM130 -211h-113l132 755h114l-72 -409q-5 -30 7.5 -43.5t38.5 -13.5q29 0 52 20t31 68l66 378h114l-95 -544h-109l5 29q-11 -20 -32 -32t-44 -12q-18 0 -33.5 6.5t-22.5 15.5z" />
    <glyph glyph-name="uni33B3" unicode="&#x33b3;" 
d="M289 498q9 31 34 46t55 15q57 0 88 -33t31 -108v-418h-106v418q0 26 -8 37t-27 11q-17 0 -25.5 -11t-8.5 -37v-418h-104v418q0 26 -8.5 37t-26.5 11t-26 -11t-8 -37v-418h-106v544h101l5 -26q8 20 25.5 30.5t35.5 10.5q32 0 52.5 -15t26.5 -46zM696 466q-26 0 -41 -16
t-15 -40t10.5 -38.5t30.5 -24.5l70 -35q66 -33 93 -70t27 -90q0 -76 -47 -121.5t-135 -45.5q-39 0 -83.5 12t-85.5 36l35 85q37 -21 66 -30.5t61 -9.5t52 19.5t20 54.5q0 27 -10 46.5t-34 31.5l-70 34q-60 29 -88 66t-28 88q0 66 40 103.5t124 37.5q41 0 76 -5.5t74 -16.5
l-23 -92q-38 11 -64.5 16t-54.5 5z" />
    <glyph glyph-name="uni33B4" unicode="&#x33b4;" 
d="M572 0l-173 745h118l99 -502q5 -28 11.5 -64t10.5 -65q4 29 10 65t11 64l100 502h118l-174 -745h-131zM274 -15q-32 0 -59.5 9t-43.5 26v-231h-114v755h109l5 -37q14 23 41.5 37.5t61.5 14.5q97 0 145 -74.5t48 -212.5t-48 -212.5t-145 -74.5zM259 78q48 0 71 46.5
t23 147.5t-23 147.5t-71 46.5q-40 0 -64 -40.5t-24 -112.5v-82q0 -72 24 -112.5t64 -40.5z" />
    <glyph glyph-name="uni33B5" unicode="&#x33b5;" 
d="M163 516q14 18 41 30.5t59 12.5q86 0 130.5 -48t44.5 -145v-366h-114v366q0 53 -22.5 76.5t-58.5 23.5t-58 -23.5t-22 -76.5v-366h-114v544h109zM564 0l-183 745h118l108 -502q3 -13 6 -29.5t6 -34t6 -34.5t5 -31q4 29 10.5 66t11.5 63l109 502h118l-184 -745h-131z" />
    <glyph glyph-name="uni33B6" unicode="&#x33b6;" 
d="M132 -211h-113l132 755h114l-72 -409q-5 -29 6 -43t36 -14q29 0 50 20.5t29 67.5l66 378h78l-45 201h118l95 -502q5 -27 11 -63.5t10 -65.5q4 29 9.5 65.5t10.5 63.5l96 502h118l-169 -745h-131l-103 455l-79 -455h-109l5 29q-11 -20 -31 -32t-41 -12q-18 0 -31.5 6.5
t-20.5 15.5z" />
    <glyph glyph-name="uni33B7" unicode="&#x33b7;" 
d="M600 0l-152 745h116l84 -492q5 -29 10 -68.5t8 -70.5q3 31 7.5 70.5t9.5 68.5l85 492h116l-153 -745h-131zM296 493q7 30 30 48t54 18q53 0 83.5 -32t30.5 -108v-419h-108v419q0 47 -33 47t-33 -47v-419h-106v419q0 47 -33 47t-33 -47v-419h-108v544h103l5 -29
q7 20 25 32t40 12q35 0 56.5 -17.5t26.5 -48.5z" />
    <glyph glyph-name="uni33B8" unicode="&#x33b8;" 
d="M181 269l157 275h82l-49 201h118l108 -502q3 -13 6 -29.5t6 -34t6 -34.5t5 -31q4 29 10.5 66t11.5 63l109 502h118l-184 -745h-131l-122 494l-91 -166q-8 -15 -18.5 -30t-19.5 -26q11 -12 20.5 -25.5t17.5 -27.5l134 -219h-129l-165 269v-269h-112v765h112v-496z" />
    <glyph glyph-name="uni33B9" unicode="&#x33b9;" 
d="M187 458q-8 20 -15.5 44.5t-13.5 50.5v-553h-111v745h124l106 -287l106 287h125v-745h-111v553q-6 -26 -14 -50.5t-16 -44.5l-90 -222zM632 0l-108 745h115l52 -472q1 -14 3 -34t3.5 -41.5l3 -43t2.5 -37.5q1 16 2 37.5t2.5 43t3 41.5t3.5 34l54 472h114l-109 -745h-141z
" />
    <glyph glyph-name="uni3380" unicode="&#x3380;" 
d="M270 -15q-30 0 -58 9t-42 26v-231h-112v755h107l5 -38q13 26 40 39.5t60 13.5q97 0 142.5 -74.5t45.5 -212.5t-45.5 -212.5t-142.5 -74.5zM730 745l160 -745h-116l-29 159h-159l-28 -159h-116l159 745h129zM255 78q47 0 69 46.5t22 147.5t-22 147.5t-69 46.5
q-39 0 -62 -40.5t-23 -112.5v-82q0 -72 23 -112.5t62 -40.5zM666 631q-2 -14 -4.5 -34t-5.5 -41l-6 -42t-6 -37l-41 -223h124l-40 223q-3 16 -6 37l-6 42t-5.5 41t-3.5 34z" />
    <glyph glyph-name="uni3381" unicode="&#x3381;" 
d="M715 745l175 -745h-116l-34 159h-179l-33 -159h-116l174 745h129zM153 519q11 17 34 28.5t53 11.5q76 0 113 -40.5t37 -128.5v-390h-112v390q0 40 -17 58t-46 18t-45.5 -18t-16.5 -58v-390h-112v544h107zM651 631l-4.5 -36t-5.5 -41t-6.5 -41t-6.5 -36l-47 -223h139
l-47 223q-3 16 -6.5 36.5t-6.5 41t-5.5 40.5t-3.5 36z" />
    <glyph glyph-name="uni3382" unicode="&#x3382;" 
d="M720 745l170 -745h-116l-32 159h-173l-31 -159h-116l169 745h129zM125 -211h-111l132 755h112l-72 -409q-5 -30 5 -43.5t32 -13.5q27 0 46.5 20.5t27.5 67.5l66 378h112l-95 -544h-107l5 29q-10 -19 -27.5 -31.5t-39.5 -12.5q-17 0 -29 6t-18 16zM656 631l-4.5 -36
t-5.5 -40.5t-6.5 -41t-6.5 -36.5l-45 -223h135l-45 223q-3 17 -6.5 37t-6.5 40.5t-5.5 40.5t-3.5 36z" />
    <glyph glyph-name="uni3383" unicode="&#x3383;" 
d="M282 498q9 31 34 46t55 15q57 0 88 -33t31 -108v-418h-106v418q0 26 -8 37t-27 11q-17 0 -25.5 -11t-8.5 -37v-418h-104v418q0 26 -8.5 37t-26.5 11t-26 -11t-8 -37v-418h-106v544h101l5 -26q8 20 25.5 30.5t35.5 10.5q32 0 52.5 -15t26.5 -46zM767 745l127 -745h-110
l-21 159h-121l-20 -159h-109l125 745h129zM703 628q-2 -15 -4 -34.5t-4.5 -40t-5.5 -40.5t-5 -36l-29 -223h95l-29 223q-2 16 -5 36t-5.5 40.5t-4.5 40t-3 34.5z" />
    <glyph glyph-name="uni3384" unicode="&#x3384;" 
d="M161 0h-112v765h112v-496l157 275h122l-119 -216q-8 -15 -18.5 -30t-19.5 -26q11 -12 20.5 -25.5t17.5 -27.5l95 -157l160 683h129l175 -745h-116l-34 159h-179l-33 -159h-192l-165 269v-269zM641 631l-4.5 -36t-5.5 -41t-6.5 -41t-6.5 -36l-47 -223h139l-47 223
q-3 16 -6.5 36.5t-6.5 41t-5.5 40.5t-3.5 36z" />
    <glyph glyph-name="uni33BA" unicode="&#x33ba;" 
d="M676 745l43 -470q3 -31 6 -74t5 -81q2 38 4.5 81t4.5 74l35 470h109l-82 -745h-135l-43 476q-1 12 -2.5 27t-2.5 31.5l-2 33t-2 30.5q-1 -14 -2 -30.5l-2 -33t-2.5 -31.5t-2.5 -27l-43 -476h-135l-82 745h109l35 -470q2 -30 4.5 -72t4.5 -79q2 37 5.5 79t6.5 72l42 470
h124zM223 -15q-52 0 -79 34v-230h-106v755h101l5 -33q11 22 33 35t46 13q151 0 151 -287t-151 -287zM203 78q36 0 50.5 44.5t14.5 149.5t-14.5 149.5t-50.5 44.5q-32 0 -45.5 -39.5t-13.5 -113.5v-82q0 -74 13.5 -113.5t45.5 -39.5z" />
    <glyph glyph-name="uni33BB" unicode="&#x33bb;" 
d="M668 745l45 -470q3 -30 6 -73.5t5 -81.5q2 38 4.5 81.5t4.5 73.5l38 470h108l-84 -745h-135l-45 476q-1 12 -2.5 27t-2.5 31.5l-2 33t-2 30.5q-1 -14 -2 -30.5l-2 -33t-2.5 -31.5t-2.5 -27l-45 -476h-135l-84 745h108l38 -470q2 -32 4.5 -74.5t4.5 -80.5q2 38 5.5 80.5
t6.5 74.5l44 470h124zM151 521q11 16 33.5 27t48.5 11q121 0 121 -160v-399h-106v402q0 30 -12 47t-37 17t-36.5 -17t-11.5 -47v-402h-106v544h101z" />
    <glyph glyph-name="uni33BC" unicode="&#x33bc;" 
d="M116 -211h-107l132 755h108l-76 -431q-3 -18 3.5 -26.5t19.5 -8.5q40 0 52 64l70 402h62l-21 201h107l33 -470q2 -32 4.5 -74.5t4.5 -80.5q2 38 5.5 80.5t6.5 74.5l40 470h124l41 -470q3 -31 6 -72.5t5 -78.5q2 37 4.5 78.5t4.5 72.5l33 470h107l-79 -745h-133l-42 476
q-2 24 -4.5 59l-4.5 63l-4.5 -63t-4.5 -59l-42 -476h-133l-42 396l-69 -396h-99l4 23q-5 -16 -19.5 -27t-28.5 -11q-22 0 -30 17z" />
    <glyph glyph-name="uni33BD" unicode="&#x33bd;" 
d="M711 745l35 -460q1 -14 2.5 -33t3 -40.5t2.5 -42.5t2 -39q0 18 1 39t2 42.5t2 40.5t2 33l28 460h99l-69 -745h-124l-36 466q-1 10 -2 25t-2 32l-2 34t-2 31q-1 -14 -2 -31l-2 -34t-2 -32t-2 -25l-36 -466h-124l-69 745h99l28 -460q1 -13 2 -32t2 -39.5t2 -41.5t1 -39
q1 18 2.5 39t3 41.5t3 39.5t2.5 32l34 460h116zM262 508q8 23 27.5 37t48.5 14q40 0 65 -27.5t25 -94.5v-437h-98v431q0 35 -24 35t-24 -35v-431h-98v431q0 35 -24 35t-24 -35v-431h-100v544h95l5 -22q8 17 24.5 27t33.5 10q26 0 44 -13.5t24 -37.5z" />
    <glyph glyph-name="uni33BE" unicode="&#x33be;" 
d="M672 745l45 -470q3 -30 6 -73.5t5 -81.5q2 38 4.5 81.5t4.5 73.5l38 470h108l-84 -745h-135l-45 476q-1 12 -2.5 27t-2.5 31.5l-2 33t-2 30.5q-1 -14 -2 -30.5l-2 -33t-2.5 -31.5t-2.5 -27l-45 -476h-135l-58 511l-72 -183q-5 -14 -13.5 -29t-16.5 -27q7 -11 16 -26.5
t14 -26.5l100 -219h-110l-128 269v-269h-108v765h108v-496l116 275h90l-22 201h108l38 -470q2 -31 4.5 -72.5t4.5 -78.5q2 37 5.5 78.5t6.5 72.5l44 470h124z" />
    <glyph glyph-name="uni33BF" unicode="&#x33bf;" 
d="M706 745l34 -470q2 -30 4.5 -72t4.5 -79q2 37 4 79t4 72l30 470h91l-67 -745h-117l-36 476q-2 24 -4 58t-3 61q-1 -27 -3 -61t-4 -58l-36 -476h-117l-67 745h91l30 -470q2 -30 4 -72t4 -79q2 37 5 79t5 72l33 470h110zM147 468q-7 23 -13 48t-10 47v-563h-93v745h115
l73 -270l73 270h116v-745h-93v563q-5 -22 -12 -47t-14 -48l-70 -232z" />
    <glyph glyph-name="uni3390" unicode="&#x3390;" 
d="M480 0h-116v346h-176v-346h-116v745h116v-304h176v304h116v-745zM529 550q16 -3 36.5 -4.5t37.5 -1.5h245v-93l-176 -294q-10 -17 -23.5 -35.5t-24.5 -31.5q19 -3 46.5 -4t56.5 -1t64 1.5t67 6.5v-88q-37 -7 -86.5 -10t-89.5 -3q-19 0 -42 0.5t-46 2t-45 4t-38 5.5v91
l180 298q8 14 19 30.5t20 27.5h-113q-26 0 -55 7t-51 20z" />
    <glyph glyph-name="uni3391" unicode="&#x3391;" 
d="M597 0h-97v346h-63v-346h-97v745h97v-304h63v304h97v-745zM330 0h-98l-92 269v-269h-97v765h97v-496l80 275h95l-62 -216q-8 -30 -24 -56q7 -11 13 -25.5t11 -27.5zM638 550q16 -3 36.5 -4.5t37.5 -1.5h155v-93l-121 -295q-7 -16 -17 -35t-19 -33q13 -2 31.5 -3t42.5 -1
q23 0 44 1.5t49 6.5v-87q-30 -7 -63.5 -10t-66.5 -3q-31 0 -65.5 3t-61.5 9v90l123 298q5 12 14 30t16 29h-47q-26 0 -55 7t-51 20z" />
    <glyph glyph-name="uni3392" unicode="&#x3392;" 
d="M137 468q-7 24 -10.5 46t-6.5 49v-563h-83v745h105l58 -270l58 270h106v-745h-83v563q-4 -27 -9 -49t-11 -46l-61 -232zM631 0h-88v346h-55v-346h-87v745h87v-304h55v304h88v-745zM671 550q16 -3 36.5 -4.5t37.5 -1.5h132v-93l-109 -294q-6 -16 -14.5 -35t-16.5 -33
q11 -2 26.5 -3t35.5 -1q19 0 41 1.5t46 6.5v-88q-23 -7 -56.5 -10t-62.5 -3q-27 0 -58 3t-55 9v91l111 297q5 14 12.5 31t12.5 28h-31q-26 0 -55 7t-51 20z" />
    <glyph glyph-name="uni3393" unicode="&#x3393;" 
d="M223 665q-49 0 -72 -69.5t-23 -222.5q0 -79 5.5 -134.5t16.5 -91t26.5 -51.5t36.5 -16q50 0 59 54v186h-8q-20 0 -44.5 6.5t-42.5 19.5l17 75q16 -3 33 -4.5t32 -1.5h105v-415h-84l-6 23q-8 -17 -26 -27.5t-40 -10.5q-91 0 -133.5 95t-42.5 293q0 199 44 293t142 94
q29 0 58 -5.5t57 -16.5l-26 -91q-44 18 -84 18zM631 0h-88v346h-60v-346h-87v745h87v-304h60v304h88v-745zM671 550q16 -3 36.5 -4.5t37.5 -1.5h132v-93l-109 -294q-6 -16 -14.5 -35t-16.5 -33q11 -2 26.5 -3t35.5 -1q19 0 41 1.5t46 6.5v-88q-23 -7 -56.5 -10t-62.5 -3
q-27 0 -58 3t-55 9v91l111 297q5 14 12.5 31t12.5 28h-31q-26 0 -55 7t-51 20z" />
    <glyph glyph-name="uni3394" unicode="&#x3394;" 
d="M597 0h-97v346h-63v-346h-97v745h97v-304h63v304h97v-745zM33 751q16 -3 36.5 -4.5t37.5 -1.5h213v-95h-87v-650h-106v650h-6q-26 0 -55 7t-51 20zM638 550q16 -3 36.5 -4.5t37.5 -1.5h155v-93l-121 -295q-7 -16 -17 -35t-19 -33q13 -2 31.5 -3t42.5 -1q23 0 44 1.5
t49 6.5v-87q-30 -7 -63.5 -10t-66.5 -3q-31 0 -65.5 3t-61.5 9v90l123 298q5 12 14 30t16 29h-47q-26 0 -55 7t-51 20z" />
    <glyph glyph-name="Omega" unicode="&#x2126;" horiz-adv-x="858" 
d="M429 760q88 0 159.5 -27.5t122.5 -76.5t79 -117t28 -149q0 -47 -13 -91t-35.5 -82.5t-52 -69.5t-62.5 -52h144v-95h-309v79q100 54 155 134.5t55 176.5q0 60 -20.5 110.5t-56.5 87t-86 57t-108 20.5q-59 0 -108.5 -20.5t-85.5 -57t-56.5 -87t-20.5 -110.5
q0 -96 55 -176.5t155 -134.5v-79h-309v95h144q-33 21 -62.5 52t-52 69.5t-35.5 82.5t-13 91q0 81 28 149t79 117t122.5 76.5t159.5 27.5z" />
    <glyph glyph-name="uni33C0" unicode="&#x33c0;" 
d="M630 760q116 0 180 -91t64 -266q0 -44 -8.5 -89t-22.5 -86t-32.5 -75.5t-38.5 -57.5h83v-95h-199v79q50 63 77 149t27 175q0 134 -34.5 198t-95.5 64t-95.5 -64t-34.5 -198q0 -89 27.5 -175t77.5 -149v-79h-200v95h84q-20 23 -38.5 57.5t-33 75.5t-23 86t-8.5 89
q0 175 64 266t180 91zM396 0h-115l-133 269v-269h-112v765h112v-496l121 275h112l-91 -216q-7 -16 -14.5 -30t-15.5 -26q7 -11 15.5 -26t14.5 -27z" />
    <glyph glyph-name="uni33C1" unicode="&#x33c1;" 
d="M155 468q-12 40 -18 95v-563h-102v745h124l65 -270l65 270h125v-745h-102v563q-4 -27 -9.5 -51t-11.5 -44l-67 -232zM653 760q109 0 163.5 -90t54.5 -267q0 -44 -6.5 -88.5t-18 -85t-26.5 -75t-32 -59.5h64v-95h-175v79q45 63 65 149t20 175q0 134 -27 198t-82 64
t-82 -64t-27 -198q0 -89 20 -175t65 -149v-79h-175v95h64q-17 25 -32.5 59.5t-26.5 75t-17.5 85t-6.5 88.5q0 177 54.5 267t163.5 90z" />
    </font>
</defs>
</svg>
